<?xml version="1.0" encoding="utf-8"?>
<!-- Generator: Adobe Illustrator 21.0.0, SVG Export Plug-In . SVG Version: 6.00 Build 0)  -->
<svg version="1.1" id="Capa_1" xmlns="http://www.w3.org/2000/svg" xmlns:xlink="http://www.w3.org/1999/xlink" x="0px" y="0px"
	 viewBox="0 0 500 240" style="enable-background:new 0 0 500 240;" xml:space="preserve">
<style type="text/css">
	.st0{fill:#BABEC2;}
	.st1{fill:#FFDC6A;}
	.st2{fill:#EBCC64;}
	.st3{fill:#FFB809;}
	.st4{fill:#E7AA16;}
	.st5{fill:#E1E5E8;}
	.st6{fill:#D8DBDE;}
	.st7{fill:#D8DFE5;}
	.st8{fill:#C9D0D4;}
	.st9{fill:#EDEDEE;}
	.st10{fill:#504B5A;}
	.st11{fill:#DCDBDE;}
	.st12{fill:#A7C0D2;}
	.st13{fill:#ABC7DA;}
	.st14{fill:#A1B9CA;}
	.st15{fill:#9D9D9C;}
	.st16{fill:#B2B2B2;}
	.st17{fill:#C6C6C6;}
	.st18{fill:#CC3D32;}
	.st19{fill:#DADADA;}
</style>
<g>
	<path class="st0" d="M100.4,152.5h72.3v21.7h319.1c4,0,7.2,3.2,7.2,7.2v14.5c0,4-3.2,7.2-7.2,7.2H100.4V152.5z"/>
	<g>
		<path class="st1" d="M135.1,36.9H60.9c-7.1,0-13.5,3.7-16.1,9.3l-33.1,72.2C7.9,126.6,6,135.4,6,144.3v7.3h18.6
			c2.9,0,5.2,2,5.2,4.4v3.8h66.6h38.7c4.8,0,8.6-3.2,8.6-7.2V44.1C143.7,40.1,139.9,36.9,135.1,36.9z"/>
		<path class="st2" d="M29.8,155.9c0-2.4-2.3-4.4-5.2-4.4H6v8.2h23.8V155.9z"/>
		<path class="st3" d="M29.8,164.7c0,2.4-2.3,4.4-5.2,4.4H6v26.8h90.4v-36.1H29.8V164.7z"/>
		<path class="st4" d="M29.8,164.7v-5H6v9.4h18.6C27.5,169.1,29.8,167.1,29.8,164.7z"/>
	</g>
	<g>
		<path class="st5" d="M478,0.8H166.6c-4.6,0-8.4,3.2-8.4,7.2v159c0,4,3.8,7.2,8.4,7.2h161.8c11.7-4.1,23.4-8.9,35-14.5H179.9
			c-4,0-7.2-3.2-7.2-7.2c0-4,3.2-7.2,7.2-7.2H390c40.9-25,76.9-61.6,96.5-114.8V8C486.5,4,482.7,0.8,478,0.8z M462.8,29.7H179.9
			c-4,0-7.2-3.2-7.2-7.2c0-4,3.2-7.2,7.2-7.2h282.9c4,0,7.2,3.2,7.2,7.2C470,26.4,466.8,29.7,462.8,29.7z"/>
		<path class="st6" d="M390,145.3h72.8c4,0,7.2,3.2,7.2,7.2c0,4-3.2,7.2-7.2,7.2h-99.4c-11.6,5.5-23.3,10.3-35,14.5H478
			c4.6,0,8.4-3.2,8.4-7.2V30.5C466.8,83.7,430.9,120.2,390,145.3z"/>
		<path class="st7" d="M179.9,145.3c-4,0-7.2,3.2-7.2,7.2c0,4,3.2,7.2,7.2,7.2h183.5c9-4.3,17.9-9.1,26.6-14.5H179.9z"/>
		<path class="st8" d="M470,152.5c0-4-3.2-7.2-7.2-7.2H390c-8.7,5.3-17.6,10.1-26.6,14.5h99.4C466.8,159.7,470,156.5,470,152.5z"/>
		<path class="st7" d="M462.8,15.2H179.9c-4,0-7.2,3.2-7.2,7.2c0,4,3.2,7.2,7.2,7.2h282.9c4,0,7.2-3.2,7.2-7.2
			C470,18.4,466.8,15.2,462.8,15.2z"/>
	</g>
	<circle class="st9" cx="415.4" cy="199.5" r="33.1"/>
	<path class="st10" d="M375.6,199.5c0-21.9,17.8-39.7,39.7-39.7c21.9,0,39.7,17.8,39.7,39.7s-17.8,39.7-39.7,39.7
		C393.4,239.2,375.6,221.4,375.6,199.5z M390.1,199.5c0,13.9,11.3,25.3,25.3,25.3c13.9,0,25.3-11.3,25.3-25.3
		c0-13.9-11.3-25.3-25.3-25.3C401.4,174.2,390.1,185.5,390.1,199.5z"/>
	<circle class="st11" cx="415.4" cy="199.5" r="14.5"/>
	<path class="st0" d="M78.6,203.1H8.2c-4,0-7.2-3.2-7.2-7.2v-14.5c0-4,3.2-7.2,7.2-7.2h70.4c4,0,7.2,3.2,7.2,7.2v14.5
		C85.8,199.9,82.6,203.1,78.6,203.1z"/>
	<path class="st12" d="M14.6,145.3H6V167h8.6c4.8,0,8.6-3.2,8.6-7.2v-7.2C23.2,148.5,19.4,145.3,14.6,145.3z"/>
	<g>
		<path class="st13" d="M126.5,58.3c-0.2-3.8-4-6.9-8.6-6.9H63.5c-7.1,0-13.5,3.7-16.1,9.3L31.7,94.8c-1.6,3.4,1.4,7.1,5.8,7.1h37.7
			C96.6,95.1,117.8,82.3,126.5,58.3z"/>
		<path class="st14" d="M75.2,101.9h42.7c4.8,0,8.6-3.2,8.6-7.2V58.6c0,0,0-0.2,0-0.3C117.8,82.3,96.6,95.1,75.2,101.9z"/>
	</g>
	<circle class="st9" cx="104" cy="199.5" r="33.1"/>
	<path class="st10" d="M64.2,199.5c0-21.9,17.8-39.7,39.7-39.7s39.7,17.8,39.7,39.7s-17.8,39.7-39.7,39.7S64.2,221.4,64.2,199.5z
		 M78.7,199.5c0,13.9,11.3,25.3,25.3,25.3s25.3-11.3,25.3-25.3c0-13.9-11.3-25.3-25.3-25.3S78.7,185.5,78.7,199.5z"/>
	<circle class="st11" cx="104" cy="199.5" r="14.5"/>
</g>
</svg>
