<?xml version="1.0" encoding="utf-8"?>
<!-- Generator: Adobe Illustrator 22.1.0, SVG Export Plug-In . SVG Version: 6.00 Build 0)  -->
<svg version="1.1" id="Capa_1" xmlns="http://www.w3.org/2000/svg" xmlns:xlink="http://www.w3.org/1999/xlink" x="0px" y="0px"
	 viewBox="0 0 36.718 41.635" style="enable-background:new 0 0 36.718 41.635;" xml:space="preserve">
<style type="text/css">
	.st0{fill:#FBCF12;}
	.st1{fill:#CCA609;}
</style>
<g>
	<path class="st0" d="M33.027,0.867L32.26,5.645l-0.444,2.757l-0.813,5.062l-0.598,3.721l-0.347,2.161
		c-0.412,2.578-1.568,4.954-3.305,6.801l-0.014,0.016c-1.872,1.992-4.213,3.179-6.643,3.562c-1.1,0.173-2.217,0.181-3.319,0.024
		c-2.5-0.353-4.912-1.556-6.831-3.606c-0.863-0.922-1.582-1.976-2.135-3.119c-0.556-1.143-0.946-2.376-1.151-3.661l-0.343-2.127
		l-0.59-3.681L4.884,8.293L4.465,5.689L3.69,0.867C3.619,0.414,3.945,0,4.376,0h27.966C32.772,0,33.1,0.414,33.027,0.867z"/>
	<g>
		<path class="st1" d="M4.884,8.293L4.465,5.689C3.999,5.69,3.534,5.686,3.068,5.685l0.393,2.603
			C3.946,8.285,4.418,8.281,4.884,8.293z"/>
		<path class="st1" d="M5.505,13.428c-0.606-0.543-1.117-1.148-1.543-1.818l0.669,4.436c0.532,0.422,1.095,0.817,1.686,1.188
			l-0.59-3.681C5.651,13.532,5.575,13.49,5.505,13.428z"/>
		<path class="st0" d="M2.846,9.064C2.738,8.675,3.027,8.291,3.43,8.289c0.011,0,0.021,0,0.032,0L3.068,5.685
			c-0.537-0.002-1.074,0-1.611,0.016c-1.09,0.034-1.55,0.49-1.442,1.558c0.102,1.016,0.275,2.04,0.564,3.016
			c0.728,2.465,2.19,4.295,4.053,5.772L3.963,11.61C3.479,10.85,3.106,10.006,2.846,9.064z"/>
		<path class="st0" d="M10.001,41.635c5.574-0.008,11.149-0.008,16.723,0c0.717,0,1.305-0.191,1.301-1.008
			c-0.004-0.771-0.626-0.851-1.253-0.98c-0.532-0.112-1.123-0.339-1.51-0.705c-2.273-2.158-3.717-4.886-5.236-7.591
			c-0.759,0.093-1.821,0.132-3.232-0.004c-0.451,0.844-0.884,1.665-1.413,2.416c-1.273,1.811-2.633,3.562-4.03,5.279
			c-0.283,0.347-0.872,0.532-1.351,0.606c-0.669,0.106-1.337,0.185-1.333,1.008C8.674,41.46,9.29,41.635,10.001,41.635z"/>
		<path class="st1" d="M20.026,31.351c-0.113-0.201-0.226-0.402-0.34-0.602c-0.141-0.247-0.094-0.56,0.116-0.751
			c0.1-0.092,0.197-0.181,0.295-0.273c-1.1,0.173-2.217,0.181-3.319,0.024c0.086,0.088,0.169,0.177,0.255,0.265
			c0.185,0.191,0.223,0.48,0.096,0.713c-0.114,0.208-0.224,0.414-0.334,0.62C18.206,31.483,19.267,31.444,20.026,31.351z"/>
		<path class="st0" d="M34.865,5.647c-0.38-0.003-0.76-0.004-1.142-0.004l-0.419,2.774c0.333,0.068,0.558,0.403,0.469,0.749
			c-0.204,0.793-0.511,1.515-0.911,2.18l-0.699,4.633c2.672-2.024,4.166-4.86,4.525-8.323C36.845,6.115,36.397,5.661,34.865,5.647z"
			/>
		<path class="st1" d="M32.26,5.645l-0.444,2.757h1.366c0.042,0,0.083,0.006,0.122,0.014l0.419-2.774
			C33.239,5.643,32.753,5.643,32.26,5.645z"/>
		<path class="st1" d="M31.238,13.324c-0.072,0.068-0.153,0.112-0.235,0.139l-0.598,3.721c0.245-0.183,0.504-0.359,0.779-0.53
			c0.344-0.214,0.668-0.441,0.979-0.677l0.699-4.633C32.429,12.066,31.886,12.722,31.238,13.324z"/>
	</g>
</g>
</svg>
