<?xml version="1.0" encoding="utf-8"?>
<!-- Generator: Adobe Illustrator 22.1.0, SVG Export Plug-In . SVG Version: 6.00 Build 0)  -->
<svg version="1.1" id="Capa_1" xmlns="http://www.w3.org/2000/svg" xmlns:xlink="http://www.w3.org/1999/xlink" x="0px" y="0px"
	 viewBox="0 0 40.635 46.077" style="enable-background:new 0 0 40.635 46.077;" xml:space="preserve">
<style type="text/css">
	.st0{fill:#8199A2;}
	.st1{fill:#5F7A83;}
</style>
<g>
	<path class="st0" d="M36.55,0.959l-0.849,5.289L35.21,9.299L34.31,14.9l-0.661,4.118l-0.384,2.392
		c-0.456,2.853-1.735,5.483-3.657,7.526l-0.015,0.018c-2.072,2.205-4.663,3.518-7.352,3.942c-1.217,0.192-2.454,0.201-3.673,0.026
		c-2.767-0.39-5.436-1.722-7.559-3.99c-0.955-1.021-1.75-2.187-2.363-3.452c-0.615-1.265-1.047-2.63-1.274-4.052l-0.379-2.354
		L6.339,15L5.405,9.177L4.942,6.296L4.084,0.959C4.005,0.459,4.366,0,4.843,0h30.949C36.268,0,36.632,0.459,36.55,0.959z"/>
	<path class="st1" d="M5.405,9.177L4.942,6.296C4.426,6.297,3.911,6.293,3.396,6.292l0.435,2.881
		C4.367,9.168,4.889,9.164,5.405,9.177z"/>
	<path class="st1" d="M6.093,14.861c-0.671-0.601-1.236-1.271-1.707-2.011l0.741,4.91c0.589,0.467,1.212,0.904,1.866,1.315L6.339,15
		C6.253,14.975,6.17,14.929,6.093,14.861z"/>
	<path class="st0" d="M3.149,10.031C3.03,9.601,3.35,9.175,3.795,9.173c0.012,0,0.023,0,0.035,0L3.396,6.292
		c-0.594-0.002-1.189,0-1.783,0.018C0.407,6.347-0.102,6.852,0.017,8.033c0.112,1.124,0.304,2.257,0.624,3.338
		c0.806,2.728,2.424,4.753,4.485,6.388l-0.741-4.91C3.85,12.007,3.437,11.073,3.149,10.031z"/>
	<path class="st0" d="M11.068,46.077c6.168-0.009,12.339-0.009,18.507,0c0.794,0,1.444-0.212,1.44-1.115
		c-0.004-0.853-0.692-0.941-1.387-1.085c-0.589-0.123-1.243-0.375-1.671-0.78c-2.516-2.389-4.113-5.408-5.794-8.401
		c-0.84,0.103-2.015,0.147-3.577-0.004c-0.499,0.934-0.979,1.842-1.564,2.674c-1.409,2.004-2.914,3.942-4.46,5.842
		c-0.313,0.384-0.966,0.589-1.495,0.67c-0.741,0.117-1.479,0.205-1.475,1.115C9.6,45.883,10.281,46.077,11.068,46.077z"/>
	<path class="st1" d="M22.163,34.695c-0.125-0.222-0.25-0.445-0.376-0.666c-0.157-0.273-0.104-0.619,0.128-0.831
		c0.11-0.101,0.218-0.201,0.326-0.302c-1.217,0.192-2.454,0.201-3.673,0.026c0.095,0.097,0.187,0.196,0.282,0.293
		c0.205,0.212,0.247,0.531,0.106,0.789c-0.126,0.23-0.248,0.459-0.37,0.686C20.148,34.842,21.323,34.798,22.163,34.695z"/>
	<path class="st0" d="M38.585,6.25c-0.42-0.003-0.841-0.004-1.264-0.005l-0.463,3.069c0.369,0.075,0.618,0.446,0.519,0.828
		c-0.225,0.878-0.566,1.676-1.008,2.412l-0.774,5.127c2.958-2.24,4.61-5.378,5.007-9.21C40.776,6.768,40.28,6.265,38.585,6.25z"/>
	<path class="st1" d="M35.701,6.248L35.21,9.299h1.512c0.047,0,0.092,0.007,0.135,0.016l0.463-3.069
		C36.785,6.245,36.247,6.245,35.701,6.248z"/>
	<path class="st1" d="M34.57,14.746c-0.079,0.075-0.17,0.123-0.26,0.154l-0.661,4.118c0.271-0.203,0.558-0.397,0.862-0.586
		c0.381-0.236,0.739-0.488,1.084-0.75l0.774-5.127C35.889,13.353,35.288,14.079,34.57,14.746z"/>
</g>
</svg>
