<?xml version="1.0" encoding="utf-8"?>
<!-- Generator: Adobe Illustrator 22.1.0, SVG Export Plug-In . SVG Version: 6.00 Build 0)  -->
<svg version="1.1" id="Capa_1" xmlns="http://www.w3.org/2000/svg" xmlns:xlink="http://www.w3.org/1999/xlink" x="0px" y="0px"
	 viewBox="0 0 256 256" style="enable-background:new 0 0 256 256;" xml:space="preserve">
<style type="text/css">
	.st0{fill:#1D71B8;}
	.st1{fill:#FFFFFF;}
</style>
<g>
	<g>
		<circle class="st0" cx="128" cy="128" r="128"/>
	</g>
	<path class="st1" d="M181.247,84.69l-2.495,28.636c0,0.238-0.059,0.534-0.119,0.772v0.059c-0.593,1.842-2.376,3.089-4.337,2.911
		l-7.367-0.653l-21.269-1.842c-3.564-0.356-6.238-3.327-6.238-6.832v-0.594c0.356-3.743,3.683-6.535,7.426-6.238l11.466,1.01
		l0.951,0.059c-7.545-9.149-18.952-14.971-31.666-14.971c-10.397,0-19.963,3.861-27.151,10.456c-0.653,0.416-1.247,1.01-1.783,1.604
		C91.18,106.434,86.605,116.712,86.605,128c0,6.06,1.308,11.823,3.684,16.992c2.614,5.763,6.535,10.753,11.406,14.734h0.059
		c7.011,5.822,16.041,9.268,25.844,9.268c15.624,0,29.289-8.793,36.121-21.685c0.178-0.416,0.501-0.953,0.679-1.309
		c1.01-1.307,2.35-2.077,4.073-2.315c0.238-0.059,0.535-0.059,0.773-0.059c1.96,0,3.683,0.951,4.812,2.377
		c0.713,1.01,1.189,2.258,1.189,3.624c0,0.594-0.059,1.188-0.297,1.723c-0.297,0.713-0.654,1.426-1.07,2.08
		c-8.912,16.338-26.319,27.448-46.28,27.448c-23.408,0-43.311-15.269-50.262-36.419c-1.663-5.169-2.614-10.694-2.614-16.457
		c0-5.644,0.892-11.11,2.555-16.219c6.892-21.21,26.794-36.656,50.321-36.656c15.565,0,29.527,6.773,39.21,17.467l0.119-1.426
		l0.654-7.664c0.356-3.564,3.327-6.238,6.832-6.238h0.595C178.751,77.62,181.603,80.947,181.247,84.69z"/>
</g>
</svg>
