<?xml version="1.0" encoding="utf-8"?>
<!-- Generator: Adobe Illustrator 22.1.0, SVG Export Plug-In . SVG Version: 6.00 Build 0)  -->
<svg version="1.1" id="Capa_1" xmlns="http://www.w3.org/2000/svg" xmlns:xlink="http://www.w3.org/1999/xlink" x="0px" y="0px"
	 viewBox="0 0 12.964 14.7" style="enable-background:new 0 0 12.964 14.7;" xml:space="preserve">
<style type="text/css">
	.st0{fill:#FBCF12;}
	.st1{fill:#CCA609;}
	.st2{fill:#9C9FA7;}
	.st3{fill:#777A7C;}
	.st4{fill:#BB5126;}
	.st5{fill:#A23E1B;}
</style>
<g>
	<path class="st2" d="M11.661,0.306L11.39,1.993l-0.157,0.973l-0.287,1.787l-0.211,1.314l-0.122,0.763
		c-0.146,0.91-0.554,1.749-1.167,2.401L9.441,9.238C8.78,9.941,7.954,10.36,7.096,10.495c-0.388,0.061-0.783,0.064-1.172,0.008
		C5.041,10.379,4.19,9.954,3.512,9.231C3.208,8.905,2.954,8.533,2.758,8.129C2.562,7.725,2.424,7.29,2.352,6.836L2.231,6.085
		l-0.208-1.3L1.724,2.928L1.577,2.009L1.303,0.306C1.278,0.146,1.393,0,1.545,0h9.874C11.571,0,11.687,0.146,11.661,0.306z"/>
	<g>
		<path class="st3" d="M1.724,2.928L1.577,2.009c-0.165,0-0.329-0.001-0.493-0.001l0.139,0.919C1.393,2.925,1.56,2.924,1.724,2.928z
			"/>
		<path class="st3" d="M1.944,4.741C1.73,4.55,1.549,4.336,1.399,4.099l0.236,1.566c0.188,0.149,0.387,0.288,0.595,0.419l-0.208-1.3
			C1.995,4.778,1.968,4.763,1.944,4.741z"/>
		<path class="st2" d="M1.005,3.2C0.967,3.063,1.069,2.927,1.211,2.927c0.004,0,0.007,0,0.011,0L1.083,2.007
			c-0.19-0.001-0.379,0-0.569,0.006C0.13,2.025-0.033,2.186,0.005,2.563c0.036,0.359,0.097,0.72,0.199,1.065
			c0.257,0.87,0.773,1.516,1.431,2.038L1.399,4.099C1.228,3.831,1.096,3.533,1.005,3.2z"/>
		<path class="st2" d="M3.531,14.7c1.968-0.003,3.937-0.003,5.904,0c0.253,0,0.461-0.068,0.459-0.356
			c-0.001-0.272-0.221-0.3-0.442-0.346c-0.188-0.039-0.397-0.12-0.533-0.249c-0.803-0.762-1.312-1.725-1.849-2.68
			c-0.268,0.033-0.643,0.047-1.141-0.001c-0.159,0.298-0.312,0.588-0.499,0.853c-0.449,0.639-0.93,1.258-1.423,1.864
			c-0.1,0.122-0.308,0.188-0.477,0.214c-0.236,0.037-0.472,0.065-0.471,0.356C3.063,14.638,3.28,14.7,3.531,14.7z"/>
		<path class="st3" d="M7.071,11.069c-0.04-0.071-0.08-0.142-0.12-0.213c-0.05-0.087-0.033-0.198,0.041-0.265
			c0.035-0.032,0.07-0.064,0.104-0.096c-0.388,0.061-0.783,0.064-1.172,0.008c0.03,0.031,0.06,0.063,0.09,0.094
			c0.065,0.068,0.079,0.17,0.034,0.252c-0.04,0.073-0.079,0.146-0.118,0.219C6.428,11.116,6.803,11.102,7.071,11.069z"/>
		<path class="st2" d="M12.31,1.994c-0.134-0.001-0.268-0.001-0.403-0.001l-0.148,0.979c0.118,0.024,0.197,0.142,0.166,0.264
			c-0.072,0.28-0.18,0.535-0.322,0.77l-0.247,1.636c0.944-0.715,1.471-1.716,1.598-2.939C13.009,2.159,12.851,1.999,12.31,1.994z"/>
		<path class="st3" d="M11.39,1.993l-0.157,0.973h0.482c0.015,0,0.029,0.002,0.043,0.005l0.148-0.979
			C11.736,1.992,11.564,1.992,11.39,1.993z"/>
		<path class="st3" d="M11.029,4.705c-0.025,0.024-0.054,0.039-0.083,0.049l-0.211,1.314c0.087-0.065,0.178-0.127,0.275-0.187
			c0.121-0.075,0.236-0.156,0.346-0.239l0.247-1.636C11.45,4.26,11.258,4.492,11.029,4.705z"/>
	</g>
</g>
</svg>
