<?xml version="1.0" encoding="utf-8"?>
		<!-- Generator: Adobe Illustrator 21.0.0, SVG Export Plug-In . SVG Version: 6.00 Build 0)  -->
<svg version="1.1" id="Capa_1" xmlns="http://www.w3.org/2000/svg" xmlns:xlink="http://www.w3.org/1999/xlink" x="0px" y="0px"
	 viewBox="0 0 500 268" style="enable-background:new 0 0 500 268;" xml:space="preserve">
	 <style type="text/css">
	.st0{fill:#3b68e4;}
</style>
<path  class="st0" d="M38.4,236.7v-5.4H0.7V268h6.9v-15.1h28.7v-5.4H7.6v-10.7H38.4z M85.4,242.8v-2.6c0-5.3-3.2-8.9-11.5-8.9H42.7V268h6.9v-16.4
	H69l8.6,16.4h7.4l-8.7-16.5C82.8,250.9,85.4,247.5,85.4,242.8z M78.4,242.8c0,2.2-1.5,3.4-4.6,3.4H49.6v-9.5h24.2
	c3.1,0,4.6,1.2,4.6,3.4V242.8z M129.2,236.7v-5.4H91.5V268h37.7v-5.4H98.4v-11.3h29.2v-5.4H98.4v-9.2H129.2z M135.9,231.3V268h6.9
	v-36.7H135.9z M185.6,248v12.2c0,1.6-2,2.4-6.1,2.4h-16.2c-4.1,0-6.2-0.8-6.2-2.5v-20.9c0-1.7,2-2.5,6.2-2.5h28.7v-5.4h-28.7
	c-8.7,0-13.1,2.6-13.1,7.9v20.9c0,5.3,4.4,7.9,13.1,7.9h16.2c8.7,0,13.1-2.6,13.1-7.8V248H185.6z M236.4,231.3v14.6h-30v-14.6h-6.9
	V268h6.9v-16.7h30V268h6.9v-36.7H236.4z M248.5,231.3v5.4h19.2V268h6.9v-31.3h18.7v-5.4H248.5z M305.5,262.6v-31.3h-7V268h36.7v-5.4
	H305.5z M340.9,231.3V268h6.9v-36.7H340.9z M397.9,231.3v27.3l-36.5-27.3h-6V268h6.1v-28.6l39.1,28.6h3.4v-36.7H397.9z M449,236.7
	v-5.4h-37.7V268H449v-5.4h-30.8v-11.3h29.2v-5.4h-29.2v-9.2H449z M498.1,242.8v-2.6c0-5.3-3.2-8.9-11.5-8.9h-31.2V268h6.9v-16.4
	h19.4l8.6,16.4h7.4l-8.7-16.5C495.6,250.9,498.1,247.5,498.1,242.8z M491.2,242.8c0,2.2-1.5,3.4-4.6,3.4h-24.2v-9.5h24.2
	c3.1,0,4.6,1.2,4.6,3.4V242.8z M70.5,160v-9.6H3.3v65.3h67.2V206H15.6v-20h52v-9.7h-52V160H70.5z M157.6,150.3v48.5l-65-48.5H81.9
	v65.3h10.8v-50.8l69.7,50.8h6v-65.3H157.6z M193.8,206v-55.7h-12.4v65.3h65.4V206H193.8z M368.9,160h52.6v-9.6h-52.6
	c-14.8,0-20.5,6.4-20.5,15.8v33.8c0,9.4,5.6,15.8,20.5,15.8h52.6V206h-52.6c-5.6,0-8.2-2.1-8.2-6v-34
	C360.7,162.1,363.3,160,368.9,160z M500,160v-9.6h-67.2v65.3H500V206h-54.8v-20h52.1v-9.7h-52.1V160H500z M317.3,90.2l-0.1,5
	c27.8,0.8,49.8,24,49,51.8l5,0.2C372,116.6,347.9,91,317.3,90.2z M316.5,116.9l-0.1,5c13.1,0.3,23.5,11.3,23.1,24.4l5,0.2
	C345,130.6,332.4,117.3,316.5,116.9z M450.5,150.1c-4.9-24.3-10.6-41.3-28.6-65.5c-9.1-13.3-43.6-50.5-86.3-67.2
	C303.4,3.1,270.8,1,257.8,0.5c-3.6-0.3-5.8-0.2-6-0.2c-0.1,0-2.3-0.1-6,0.2C232.8,1,200.3,3.1,168,17.3
	C125.4,34,90.8,71.2,81.8,84.5c-18,24.2-23.8,41.3-28.6,65.5c10.7-20.9,19-34.5,34.4-55.4c12.6,4,25.3,7.6,38,10.6
	c-5.9,16-7.6,28.4-8.7,44.7c6.7-15.6,11.7-26.7,18.8-42.4c19.2,4.3,38.6,7.4,58,9.5c-1.1,11.8-0.3,20.9,1,32.8
	c3.9-11.6,6.5-20.2,9-31.9c4.1,0.4,8.3,0.7,12.5,1c-0.3-0.5-0.6-1.1-0.9-1.8c-0.3-0.8,0.4-0.4-0.3-0.8l0.9-3.3l-0.2-4.5
	c-2.2-0.2-4.4-0.3-6.7-0.5c-1.4,0.6-2.8,0.8-3.8,0.8c-2,0-5.7-7.1-8.5-11.5c-0.6,3.3-1.1,6-1.5,8c-0.1,0.5-0.1,1-0.2,1.4
	c-18.4-2-36.7-4.9-54.9-8.9c0,0,0,0,0-0.1c3.5-7.8,13.5-27,28.7-44.8c0.2,0,0.3,0,0.5,0.1c-0.3-0.8-0.5-1.7-0.6-2.6
	c-0.8-1.3-1.2-2.5-1.4-3.4c-1.3-5.7,1.6-11.1,6.9-12.8c1.1-0.4,2.3-0.6,3.5-0.6c0.6,0,1.3,0.1,1.9,0.1c1.2-0.2,2.2-0.3,3.3-0.3
	c0.6,0,1.2,0,1.9,0.1c0.7-0.3,1.5-0.4,2.1-0.1l1.2,1c1.2-1,2.4-2,3.7-2.9c12-9.4,24.9-14.5,35.6-17.4c-5.4,6.8-10.1,15.6-14,24.7
	l4.6-0.4c1.1-0.1,2.2-0.2,3.4-0.2c0.7,0,1.5,0,2.2,0.1l0.8,0c0.3,0,0.6,0.1,0.9,0.1c4.7-10,10.2-18.6,15.6-23.1
	c6.2-5.2,10.6-4.4,10.8-4.7c0,0,0,0,0,0c0,0,0,0,0,0c0.2,0.3,4.6-0.5,10.8,4.7c6.3,5.3,12.9,16.2,17.9,28.3c0.5,1.3,1.1,2.6,1.6,3.9
	c-13.8,0.7-27.7,0.9-41.5,0.7c0.5,0.7,0.9,1.3,1.1,1.7l0.1-0.1c1.2-0.4,2.4-0.6,3.6-0.6c0.9,0,1.9,0.1,2.8,0.3c0.3,0,0.6,0,1,0
	c4.6,0.2,7.3,2.5,8.7,4.4c0.2,0.3,0.4,0.5,0.5,0.8c0.5,0.5,1.1,1,1.6,1.6c0.7,0.7,1.1,1.4,1.6,2.1c8.1-0.1,16.2-0.4,24.2-0.8
	c5.2,15.5,8.5,31.1,10.5,41.2c0.7-0.4,1.5-0.7,2.5-0.9l0.4-0.1c0.8-0.2,1.9-0.6,3.3-0.8c0.4-0.1,0.7-0.1,1-0.1
	c0.8-0.4,1.9-0.7,3.2-1c-1.9-9.8-5-24.1-9.8-38.9c12.6-1,25.2-2.3,37.9-4.1c15.3,17.7,25.2,37,28.7,44.8c0,0,0,0,0,0.1
	c-2.4,0.5-4.9,1-7.3,1.5c2.7,2.9,5.1,5.9,7.2,9c1.5-0.3,3-0.6,4.5-0.9c7.2,15.7,12.1,26.7,18.8,42.4c-1-16.3-2.7-28.7-8.7-44.7
	c12.7-3.1,25.4-6.6,38-10.6C431.5,115.5,439.8,129.2,450.5,150.1z M130.4,93.5c-0.3,0.7-0.6,1.5-1,2.2c-11.9-2.8-23.7-6.1-35.4-9.7
	c7.8-9.6,22.5-24.8,41.3-38.3c7,1.4,14,2.6,21,3.7C142.6,68.7,133.7,86.1,130.4,93.5z M185.4,23.3c-7.8,5.6-14.9,12.1-21.2,18.9
	c-5.5-0.8-11-1.7-16.5-2.7c7.7-4.7,15.9-8.9,24.5-12.3c5.4-2.4,10.8-4.4,16.1-6.1C187.4,21.8,186.4,22.5,185.4,23.3z M293.4,47.3
	c-0.9-2.5-1.9-5-2.9-7.4c-4-9.4-8.8-18.3-14.3-25.3c10.8,2.9,23.6,8,35.6,17.4c5.1,3.6,9.9,7.7,14.3,12.1
	C315.3,45.4,304.4,46.5,293.4,47.3z M318.2,23.3c-1-0.8-1.9-1.5-2.9-2.2c5.3,1.7,10.7,3.7,16.1,6.1c8.5,3.4,16.8,7.6,24.5,12.3
	c-5.5,1-11,1.9-16.5,2.7C333.1,35.4,326,28.9,318.2,23.3z M374.2,95.7c-0.3-0.7-0.6-1.4-1-2.2c-3.3-7.5-12.2-24.8-26-42.1
	c7-1.1,14-2.4,20.9-3.8C387,61.1,401.8,76.4,409.5,86C397.8,89.6,386,92.9,374.2,95.7z M345.9,215.7H332l-33.7-52.6L264,215.7h-13.7
	l43.4-65.3h9l2,3.1c2.9-3,7.7-8,10-10.4c-0.3-0.5-0.4-1-0.6-1.5c-5.2,0.6-13.4,1.4-15.6,1.4c-3.2-0.1-2.7-3.6-0.3-4l16-1.3
	c0.2-0.5,0.4-1.1,0.8-1.6c2.1-3.1,6.4-3.9,9.5-1.8c3.1,2.1,4,6.4,1.8,9.5c-0.5,0.8-1.1,1.4-1.9,1.9l0.9,16.4c-0.1,2.5-3.5,3.5-4,0.3
	c-0.3-2.1-0.6-10.3-0.8-15.6c-1.1,0-2.1-0.3-3.1-0.8c-2.5,2.6-7.4,7.8-10.6,11.1L345.9,215.7z M357.9,146.8l-5.1-0.1
	c0.5-20.3-15.3-37.2-35.5-38.1c-0.1,0.2-0.2,0.5-0.2,0.9c1.2-0.2,0.7,1.9-0.5,1.7c-0.4-0.5,0.7-1.5-0.4-1.3c-0.6,0.1-1.1,1-1.3,1.5
	c-0.3,0.6,0.1,1.4-0.2,2c-0.3,0.6-1.2,0.9-1.3,1.7c1.3-0.1,0.2,1,0.2,1.6c0.2,0,0.3-0.1,0.5-0.2c0.1,0.6-0.3,1.6-0.5,2.2
	c-0.1,0.4-0.4,0.7-0.5,1.1c-0.1,0.4-0.2,0.9-0.3,1.3c-0.1,0.5,0,1.1-0.2,1.6c-0.2,0.5-0.7,0.7-0.8,0c-0.1-0.4,0.4-0.8,0.2-1.1
	c-0.1-0.2-0.7-0.2-1-0.4c0.2-0.3,0.7-0.5,0.6-1c-0.1-0.5-0.2-0.4-0.5-0.1c-0.5,0.5-0.5,1.2-1.2,1.5c-0.3,0.1-0.8,0.1-1,0.4
	c-0.2,0.2-0.2,0.6-0.4,0.9c-0.4,0.5-0.9,0.6-1,1.2c-0.1,0.3,0.1,0.4-0.1,0.7c-0.1,0.2-0.6,0.4-0.8,0.3c-0.4-0.2-0.3-0.8-0.8-0.8
	c-0.2,0.5-0.1,0.7-0.6,0.8c-0.3,0.1-0.8,0.1-1.1,0.1c-0.8,0.1-1.6,0-2.3,0.2c-1.7,0.3-3.5-0.1-5.1,0.4c0,0.7,0.2,1.5,0.2,2.2
	c0,1.2-1.1,0.2-1.9,0.7c-0.1,0.6,0.7,1.4,1.1,1.6c0.5,0.3,1.2,0.6,1.7,1.1c0.3,0.3,0.4,0.6,0.4,1c0.2,0.7,0.4,0.2,0.9,0.6
	c0.3,0.3,0,0.8,0,1.1c0,0.6,0.2,0.7-0.4,0.8c-0.9,0.2-1.9,0.2-2.8,0.3c-1,0.2-1.9,0-2.8,0.1c-0.2,0.3-0.5,0.5-0.8,0.8
	c-0.3,0.4-0.5,0.8-0.7,1.3c-0.2,0.7-1.1,1.5-1.1,2.2c0,0.5,0.3,0.8,0.3,1.3c0,0.5-0.3,0.7-0.3,1.2c0,0.7,0,2.2-0.9,1.4
	c-0.7-0.7-1.2-1.4-1.8-2.1c-0.5-0.7-1.6-1.3-1.8-2.2c-1.1-0.4-1.5-1.2-2.3-2c-0.4-0.4-0.9-0.5-1.3-0.8c-0.4-0.3-0.3-0.7-0.6-1.1
	c-0.7,0.7-2-0.3-2.7-0.5c-0.3-0.1-0.8-0.1-1.1-0.3c-0.3-0.2-0.2-0.8-0.7-1c-0.8-0.2,0,0.4-0.1,0.8c-0.1,0.2-1,0.3-1.3,0.5
	c-0.5,0.4-0.9,1-1.5,1.3c-0.6,0.4-1.3,0.1-1.9,0.5c-0.4,0.3-0.5,0.8-1,1c-0.7,0.3-1.6,0.1-2.3,0c-0.9-0.2-1.8-0.6-2.7-0.8
	c-0.8-0.2-1.6-0.5-2.4-0.6c-0.4-0.1-0.9-0.2-1.3-0.3c-0.7-0.1-0.5-0.2-0.9-0.7c-0.6-0.8-1.6-0.8-2.3-1.3c-0.7-0.5-1.3-1.1-2.2-1.4
	c-1-0.3-2-0.4-2.9-0.8c-0.9-0.4-1.6-0.8-2.3-1.2c-0.9-0.5-1.8-0.5-2.7-1.2c-0.8-0.7-1.9-0.7-2.5-1.4c-0.3-0.4-0.4-0.8-0.8-1
	c-0.4-0.3-0.8-0.5-1.3-0.7c-0.5-0.3-0.9-0.7-1.2-1.1c-0.4-0.5-0.6-0.6-1.2-0.6c-0.5-0.1-0.9-0.1-1.3-0.2c-0.4,0-1,0.1-1.4,0
	c-0.4-0.2-0.7-0.5-1.2-0.6c-0.5-0.1-1-0.1-1.4-0.2c-0.2-0.1-0.4-0.2-0.6-0.3c-0.2-0.1-0.4,0-0.5-0.1c-0.4-0.2-0.6-0.7-0.8-1
	c-0.5-0.9-0.9-1.6-1.6-2.3c-1.3-1.3-3.4-1.2-4.7-2.5c-0.7-0.7-1.3-1.3-1.6-2.3c-0.2-0.5-0.4-1-0.6-1.6c-0.2-0.5-0.8-1.3-0.8-1.8
	c-0.2-1,0.9-1.4,1.7-1.6c0.3-0.1,0.8-0.4,0.5-0.9c-0.2-0.3-1-0.4-1.3-0.5c0.4-0.5,0.8-1,1.2-1.5c0.5-0.7,0.6-0.7,0.5-1.6
	c-0.1-0.4-0.2-0.9-0.3-1.3c-0.2-0.6-0.5-0.5-1-0.8c-0.8-0.5-0.6-1.6-0.7-2.5c-0.2-1.1-0.5-2.1-1-3.1c-0.5-0.9-1.2-1.3-1.7-2.1
	c-0.6-0.8-1.1-1.6-1.7-2.3c-0.4-0.4-0.3-0.8-0.5-1.3c-0.4-0.8-1.3-1.5-1.9-2.1c-0.3-0.3-0.6-0.5-0.9-0.8c-0.4-0.5-0.7-0.7-1.2-1.1
	c-0.5-0.3-0.7-0.5-0.9-1.1c-0.2-0.4-0.4-1.2-1-1.1c0-0.5,0.2-1.8-0.7-1.3c0-0.8,0.1-0.8-0.7-0.9c-0.6-0.1-0.6-0.6-0.9-1.1
	c-0.3,0.2-0.5,0.7-0.8,0.7c-0.4,0-0.7-0.6-0.8-0.9c-0.1-0.5,0-0.7-0.5-1.1c-0.4-0.3-1.1-0.8-1.1-1.4c-0.1-0.9,1.7-1.3,1.4-2.3
	c-0.1-0.3-0.3-0.7-0.4-1c-0.1-0.3-0.3-1.2-0.7-1.3c0,0.3-0.3,0.6-0.5,0.8c-0.5,0.3-0.7-0.1-1.1-0.5c-0.2-0.4-0.4-0.7-0.3-1.2
	c0.1-0.2,0.4-0.6,0.2-0.8c-0.2-0.4-1.4,0.1-1.9-0.3c-0.6-0.4-0.7-1-0.9-1.6c-0.2-0.5-0.5-0.9-0.4-1.5c0-0.2,0.2-0.4,0.1-0.7
	c0-0.2-0.3-0.4-0.3-0.6c-0.7,0-1.1,0-1.5-0.5c-0.4-0.5-0.7-0.8-1.4-0.8c-0.2-0.4-0.2-1.1-0.5-1.2c-0.4-0.2-0.4,0.2-0.6-0.3
	c-0.1-0.2,0.1-0.4,0.1-0.7c-0.1-0.3-0.3-0.5-0.6-0.7c-0.3-0.2-0.5-0.1-0.8-0.2c-0.5-0.2-0.5-1-0.8-1.4c-0.2,0.4-0.3,0.8-0.7,0.8
	c-0.4,0.1-0.7-0.2-1-0.4c-0.7-0.5-0.4-1.1,0.1-1.7c0.4-0.4,0.9-0.4,0.6-0.9c-0.1-0.2-0.3-0.1-0.4-0.3c-0.1-0.2,0-0.4,0-0.5
	c-0.1-0.5-0.2-1.2-0.4-1.7c-0.2-0.4-0.5-0.8-0.6-1.2c-0.3-1,0-1.9-0.6-2.8c-0.7-1-0.1-1.6,0-2.6c0.1-0.3,0.1-1.1-0.1-1.4
	c-0.2-0.2-0.9-0.4-1.2-0.5c-0.5-0.2-0.8-0.3-1.1-0.7c-0.2-0.3-0.5-0.9-1-1.1c-0.4,0.6-0.8,0.8-1.6,0.5c-0.6-0.2-0.8-1-1.4-1.3
	c-0.2-0.1-0.8-0.1-1,0c-0.2,0.2-0.2,0.4-0.3,0.8c-0.1,0.8-0.6,1.4-0.5,2.3c0.1,1,0.2,1.9,0.2,3c0,0.6,0.2,1,0.2,1.6
	c0,0.5-0.1,0.9,0,1.4c0.1,1.1,1,1.7,1.8,2.5c0.3,0.3,0.5,0.7,0.7,1.1c0.3,0.7,0.7,1.4,1.5,1.6c0,0.7-0.2,1,0.5,1.3
	c0.4,0.2,0.8,0.3,1.1,0.7c0.4,0.4,0.4,0.7,0.4,1.3c0,0.8,0.2,0.6,0.8,0.9c0,0.4,0.3,0.7,0.4,1.1c0.1,0.4,0.3,0.8,0.3,1.3
	c0.1,0.5-0.1,0.9-0.1,1.4c0.1,0.4,0.4,0.7,0.7,1c0.1,0.1,0.4,0.4,0.5,0.5c0.1,0.2,0.1,0.3,0.1,0.6c0.1,0.5,0.3,0.7,0.5,1.1
	c0.2,0.5,0.3,1,0.7,1.3c0.3,0.3,0.2,0.2,0.6,0.2c0.2,0,0.4-0.1,0.6,0.1c0.4,0.3,0.4,1.1,0.6,1.5c0.2,0.4,0.6,0.6,0.7,1.1
	c0.1,0.4-0.1,1.2,0.4,1.6c0.4,0.2,0.9-0.4,1.1,0.3c0.1,0.3-0.1,0.4-0.2,0.6c-0.1,0.2-0.1,0.3-0.2,0.6c-0.1,0.2-0.1,0.3-0.2,0.5
	c-0.2,0.2-0.5,0.2-0.5,0.5c0,0.3,0.7,1.2,0.9,1.5c0.2,0.4,0.5,0.7,0.7,1.1c0.1,0.3,0.2,0.7,0.3,0.9c0.4,0.4,0.8,0,1.2,0.4
	c0.3,0.2,0.2,1,0.1,1.3c-0.7,0.1-0.7-0.4-0.9,0.5c-0.1,0.5-0.3,0.9-0.2,1.3c0.1,0.5,0.2,1.2,0.5,1.6c0.4,0.5,0.9,0.4,0.9-0.3
	c0-0.5-0.4-0.7-0.2-1.2c0.2-0.6,0.5-0.8,0.7-0.2c0.1,0.5,0.2,0.7,0.5,1.1c0.3,0.4,0.5,0.8,0.9,1.1c0.5,0.4,0.7,0.7,0.9,1.3
	c0.2,0.5,0.5,0.6,0.9,1c0.4,0.4,0.5,0.7,0.5,1.3c-0.1,0.6-0.2,1-0.2,1.6c0,0.8-0.2,0.8-0.8,1.1c-0.5,0.2-0.7,0.5-1,0.8
	c-0.5,0.5-0.6,0.4-1-0.2c-0.2-0.4-0.6-0.8-0.7-1.3c-0.2-0.9,0.5-1.9-0.6-2.5c-0.5-0.2-1,0-1.3-0.6c-0.2-0.5-0.3-0.8-0.8-1.2
	c-0.9-0.8-1.8-1.3-2.6-2.2c-0.7-0.7-1.4-1.9-2.5-1.9c0,0,0,0.1,0.1,0.1c0.3,0.1,0.9,0.4,1,0.7c0.1,0.2,0.1,1.1-0.1,1.2
	c-0.9,0.7-1.6-1.3-1.7-1.8c-0.3-0.9-0.8-1.3-0.4-2.2c0.2-0.4,0.5-0.7,0.6-1.1c0.2-0.8,0.3-2.6,0-3.3c-0.1-0.3-0.3-0.6-0.4-1
	c-0.1-0.6,0-1.1-0.6-1.5c-0.6-0.4-1.3-0.3-1.8-0.9c-0.3-0.4-0.3-0.9-0.6-1.3c-0.6-0.7-1.5-1.4-2.4-1.3c-0.4,0.1-0.9,0.2-1.2-0.1
	c-0.3-0.3-0.2-0.7-0.7-0.9c-0.2-0.1-0.4,0-0.7-0.1c-0.2-0.1-0.3-0.3-0.4-0.4c-0.4-0.2-0.8-0.2-1.2-0.6c-0.5-0.5-0.5-0.8-0.7-1.4
	c-0.1-0.5-0.6-0.7-0.9-1c-0.4-0.5-1.1-0.7-1.5-1.2c0.4,0.4,1.5,0,2-0.1c1-0.1,2.1,0.1,2.6-0.9c0.4-0.7,0.6-1.9,0.6-2.6
	c0.1-1.7-1.6-3-2.6-4.1c-0.3-0.3-0.2-0.7-0.5-1c-0.3-0.3-1-0.2-1.4-0.4c-0.5-0.2-0.7-0.5-1-0.9c-0.5-0.5-0.5-0.6-0.6-1.2
	c0-0.5-0.1-0.9-0.3-1.3c-0.2-0.5-0.1-1.1-0.3-1.6c-0.1-0.4-0.6-0.6-0.7-1c-0.1-0.4,0.2-0.8,0.1-1.3c-0.1-0.5-0.5-0.7-0.4-1.2
	c0-0.3,0.2-0.2,0.2-0.5c0-0.2-0.2-0.4-0.3-0.5c-0.2-0.3-0.5-0.5-0.6-0.9c-0.2-0.5-0.4-0.7-0.7-1.1c-0.6-1,1-1.4,0.4-2.2
	c-0.3-0.4-0.9-0.4-1.1-0.8c-0.2-0.4,0-0.9-0.3-1.2c-0.3-0.4-0.7-0.2-0.8-0.8c-0.1-0.5-0.1-0.9,0.4-1.1c0.4-0.1,1,0.1,1.4,0.1
	c0.6,0.1,1.4,0.1,2.1,0c1.1-0.2,2-0.3,3.2-0.2c0.7,0.1,1.4,0.1,2.1,0.1c0.2,0,2.6-0.1,2.7-0.3c-0.3,0.6-0.3,0.7,0,1.2
	c0.3,0.4,0.7,0.6,1.2,0.9c1.2,0.5,2.5,1,3.7,1.3c2.2,0.7,4.4,1.4,6.5,2.4c1.1,0.5,2.3,1,3.5,1.3c0.5,0.1,0.9,0.4,1.4,0.5
	c0.5,0.1,1.1,0,1.6,0c1,0,2,0.2,3.1,0.2c0.6,0,1.1-0.2,1.7-0.1c0.5,0,1,0.3,1.4,0.3c0.6,0.1,1.1-0.2,1.7-0.2c0.4,0,0.9,0,1.3,0
	c0.7,0,1.6,0.1,2.3-0.2c0.6-0.2,0.4-0.6,0.6-1.2c0.1-0.4,0.2-0.8,0.3-1.2c1.4-0.1,2.8-0.1,4.2-0.1c1,0.1,2,0.1,3,0.2
	c0.4,0.1,0.9,0,1.3,0.3c0.4,0.3,0.5,0.9,0.8,1.3c0.6,0.7,1.4,1.3,2.1,1.9c0.3,0.3,0.4,0.8,0.8,1.1c0.3,0.3,0.7,0.4,1.1,0.6
	c0.9,0.6,1,1.4,1.6,2.2c0.7,0.8,0.2,1.6,0.4,2.5c0.1,0.8,0.6,1.8,1,2.5c0.3,0.4,0.7,0.4,1.1,0.7c0.3,0.2,0.5,0.6,0.8,0.8
	c0.6,0.4,1.3,0.2,1.9,0.5c0.3,0.2,0.7,0.8,0.9,1.2c1.4,0.1,2-1,2.8-2c0.5-0.6,0.6-1.9,1.3-2.3c0.2-0.1,0.4-0.1,0.6-0.1
	c0.2-0.1,0.4-0.2,0.5-0.3c0.4-0.1,0.9-0.1,1.2,0.1c0.9,0.3,1.6,0.1,2.5,0.2c0.4,0,0.9,0,1.2,0.4c0.3,0.4,0.3,0.9,0.7,1.2
	c0.7,0.6,1.4,1.2,2.1,1.9c0.4,0.4,0.4,0.7,0.5,1.2c0.1,0.6,0.4,0.8,0.7,1.3c0.5,0.8,0.4,2,1,2.6c0.4,0.5,1.1,0.8,1.3,1.4
	c0.1,0.4,0,0.9,0.2,1.2c0.3,0.5,1.1,0.5,1.4,1c0.3,0.5,0.2,1,0.2,1.5c0,0.7-0.2,1.2,0.2,1.9c0.4,0.6,0.5,1,0.5,1.8
	c0.1,1.2,1.1,1.2,1.9,1.8c0.4,0.3,0.8,0.7,1.2,1c0.4,0.2,1,0.3,1.4,0.4c0.4,0.1,0.9,0.2,1.3,0.3c0.4,0.1,0.9,0,1.3,0.1
	c0.5,0.1,0.6,0.7,1,0.7c0.5,0.1,0.6-0.8,1.1-0.7c0.3,0.8,0,1.5-0.3,2.2c-0.3,0.7-0.5,1.5-0.9,2.2c-0.8,1.5-1.2,3.3-1.6,5
	c-0.2,0.9-0.3,1.9-0.4,2.9c-0.1,0.9-0.4,1.8-0.5,2.8c-0.1,0.7,0.1,1.4,0.1,2.2c0,0.6-0.2,0.8-0.4,1.3c-0.2,0.5,0,0.8,0.1,1.2
	c0.1,0.4,0,0.9,0,1.3c0,1,0.5,1.8,0.9,2.6c0.2,0.5,0.6,0.7,1,1.1c0.5,0.5,0.1,0.6-0.1,1.2c-0.3,1,0.1,1.8,0.3,2.8
	c0.2,0.9,0.5,1.7,1.1,2.5c0.2,0.3,0.5,0.6,0.8,0.9c0.4,0.4,0.5,0.8,0.7,1.2c0.4,0.8,1.1,1.4,1.1,2.3c0,0.7,0,1.5,0.3,2.2
	c0.2,0.4,0.6,0.5,0.8,0.8c0.3,0.4,0.4,0.9,0.6,1.4c0.4,0.9,1.2,1.1,2.1,1.3c0.5,0.1,1.1-0.1,1.6,0.1c0.4,0.1,0.5,0.5,0.9,0.7
	c0.4,0.2,0.7,0.2,1.1,0.6c0.3,0.3,0.6,0.7,0.9,1.1c0.8,1,1.6,0.7,2.7,0.2c0.5-0.2,0.9-0.5,1.4-0.7c0.5-0.2,1-0.8,1.5-0.7
	c0.5,0.1,0.7,0.4,1.2,0.4c0.4,0,1-0.1,1.3-0.3c0.4-0.2,0.6-0.7,1-0.9c0.5-0.3,1.4-0.6,2-0.6c0.3,0,0.5,0.1,0.8,0
	c0.3,0,0.5-0.3,0.8-0.3c1.1,0,0.6,1.6,1.5,1.8c0.2,0.1,0.6,0,0.8,0c0.3-0.1,0.2-0.1,0.4-0.2c0.2-0.1,0.8-0.4,1-0.6
	c0.3-0.5-0.3-0.6-0.4-1c-0.2-0.4,0.3-0.7,0.6-0.9c1-0.7,1.9-1.4,2.4-2.6c0.2-0.4,0-0.8,0.2-1.3c0.2-0.5,0.5-0.7,0.9-1
	c0.4-0.4,0.3-0.8,0.3-1.4c0.1-0.5,0.2-1,0.2-1.6c0.1-1-0.2-2,0.3-2.9c0.5-1,0.9-1.9,2-2.2c1-0.2,1.9-0.7,2.8-0.8
	c0.5-0.1,1.1,0,1.6-0.1c0.5-0.1,1-0.4,1.5-0.6c0.4-0.2,0.9-0.5,1.4-0.5c0.5-0.1,0.8,0,1.3-0.3c0.9-0.4,1.5,0.3,2.5,0.4
	c0.4,0.1,0.9,0,1.3,0c0.6,0,0.6,0.3,1.1,0.5c0.4-0.4,0.7-0.8,1.1-0.7l0-0.4C340.2,104.1,358.6,123.5,357.9,146.8z"/>
</svg>
