<?xml version="1.0" encoding="utf-8"?>
<!-- Generator: Adobe Illustrator 22.1.0, SVG Export Plug-In . SVG Version: 6.00 Build 0)  -->
<svg version="1.1" id="Capa_1" xmlns="http://www.w3.org/2000/svg" xmlns:xlink="http://www.w3.org/1999/xlink" x="0px" y="0px"
	 viewBox="0 0 14 14" style="enable-background:new 0 0 14 14;" xml:space="preserve">
<path d="M0.234,10.204v0.36H0.026V9.67h0.929v0.16H0.234v0.214h0.491v0.159H0.234z M2.034,10.564l-0.288-0.335H1.443v0.335H1.239
	V9.67h0.753c0.168,0,0.217,0.04,0.217,0.177v0.2c0,0.144-0.058,0.182-0.219,0.182l0.3,0.335H2.034z M2,9.851
	C2,9.828,1.993,9.826,1.97,9.826H1.443v0.245H1.97C1.993,10.07,2,10.067,2,10.045V9.851z M2.562,10.564V9.67h0.931v0.16H2.769v0.19
	h0.486v0.159H2.769v0.217h0.732v0.168H2.562z M3.839,10.564V9.67h0.208v0.894H3.839z M4.63,10.57c-0.169,0-0.222-0.041-0.222-0.212
	V9.882c0-0.169,0.053-0.212,0.222-0.212h0.804v0.16H4.648c-0.023,0-0.032,0.003-0.032,0.026v0.52c0,0.022,0.009,0.026,0.032,0.026
	h0.581c0.023,0,0.031-0.004,0.031-0.026v-0.181H5.012v-0.153h0.455v0.315c0,0.17-0.051,0.212-0.221,0.212H4.63z M6.66,10.564v-0.382
	H6.036v0.382H5.828V9.67h0.208v0.349H6.66V9.67h0.208v0.894H6.66z M7.557,10.564V9.831H7.149V9.67h1.027v0.16h-0.41v0.733H7.557z
	 M8.456,10.564V9.67h0.208v0.726h0.669v0.168H8.456z M9.616,10.564V9.67h0.208v0.894H9.616z M11.118,10.564l-0.592-0.515
	c-0.038-0.033-0.104-0.095-0.128-0.121h-0.005c0.005,0.051,0.008,0.215,0.008,0.278v0.358h-0.208V9.67h0.159l0.604,0.526
	c0.038,0.033,0.091,0.083,0.115,0.108h0.005c-0.004-0.05-0.006-0.214-0.006-0.278V9.67h0.208v0.894H11.118z M11.646,10.564V9.67
	h0.931v0.16h-0.723v0.19h0.486v0.159h-0.486v0.217h0.732v0.168H11.646z M13.718,10.564l-0.288-0.335h-0.303v0.335h-0.204V9.67h0.753
	c0.168,0,0.217,0.04,0.217,0.177v0.2c0,0.144-0.058,0.182-0.219,0.182l0.3,0.335H13.718z M13.685,9.851
	c0-0.023-0.008-0.026-0.031-0.026h-0.527v0.245h0.527c0.023,0,0.031-0.004,0.031-0.026V9.851z M0.056,9.026V7.384h1.74v0.327h-1.3
	v0.306H1.36v0.318H0.496v0.351H1.81v0.339H0.056z M4.08,9.026L3.14,8.213C2.992,8.086,2.872,7.971,2.82,7.921H2.813
	c0.007,0.097,0.014,0.37,0.014,0.513v0.591H2.392V7.384h0.339l0.977,0.848C3.8,8.31,3.943,8.444,3.988,8.489h0.009
	C3.991,8.395,3.981,8.114,3.981,7.973V7.384h0.436v1.641H4.08z M5.05,9.026V7.384h0.443v1.295h1.194v0.346H5.05z M8.898,9.026
	L8.733,8.722H7.735L7.572,9.026h-0.48L8.01,7.384h0.459l0.923,1.641H8.898z M7.89,8.416h0.69L8.234,7.794H8.232L7.89,8.416z
	 M10.266,9.026c-0.332,0-0.436-0.078-0.436-0.4V7.785c0-0.32,0.101-0.4,0.436-0.4h1.354v0.332h-1.293
	c-0.04,0-0.054,0.007-0.054,0.045v0.874c0,0.035,0.014,0.045,0.054,0.045h1.293v0.346H10.266z M12.19,9.026V7.384h1.74v0.327h-1.3
	v0.306h0.864v0.318H12.63v0.351h1.314v0.339H12.19z M5.439,12.13v-0.362c0-0.183,0.062-0.231,0.257-0.231H6.22
	c0.024,0,0.032-0.004,0.032-0.026v-0.133c0-0.022-0.008-0.026-0.032-0.026H5.47v-0.189h0.782c0.196,0,0.256,0.043,0.256,0.2v0.157
	c0,0.158-0.064,0.204-0.256,0.204H5.728c-0.024,0-0.032,0.006-0.032,0.028v0.179h0.811v0.2H5.439z M6.856,12.13v-0.204h0.253v0.204
	H6.856z M7.712,12.137c-0.194,0-0.256-0.047-0.256-0.236v-0.51c0-0.189,0.061-0.236,0.256-0.236h0.593
	c0.196,0,0.256,0.047,0.256,0.236v0.51c0,0.19-0.06,0.236-0.256,0.236H7.712z M8.3,11.378c0-0.022-0.007-0.026-0.031-0.026H7.75
	c-0.024,0-0.032,0.004-0.032,0.026v0.529c0,0.021,0.008,0.026,0.032,0.026h0.519c0.024,0,0.031-0.006,0.031-0.026V11.378z
	 M3.069,3.926c-0.2,0.29-0.168,0.681,0.075,0.935c0.074,0.078,0.151,0.153,0.23,0.226C3.56,5.26,3.76,5.419,3.97,5.563l0.007,0.005
	C4.311,5.796,4.77,5.713,4.995,5.376c0.03-0.046,0.063-0.09,0.096-0.134c0.423-0.547,1.085-0.9,1.828-0.9
	c0.663,0,1.261,0.281,1.683,0.73c0.075,0.08,0.046,0.211-0.055,0.252C8.434,5.369,8.321,5.41,8.205,5.445
	C8.153,5.461,8.096,5.449,8.056,5.412c-0.3-0.275-0.699-0.443-1.137-0.443c-0.47,0-0.895,0.194-1.201,0.505
	C5.645,5.548,5.578,5.629,5.52,5.716c-0.161,0.24-0.03,0.568,0.252,0.632C5.775,6.348,5.778,6.349,5.78,6.349
	c0.169,0.038,0.34-0.035,0.438-0.178c0.153-0.223,0.41-0.37,0.701-0.37c0.325,0,0.608,0.184,0.751,0.453
	c0.049,0.093,0.157,0.14,0.26,0.119c0.209-0.042,0.414-0.096,0.614-0.162c0.2-0.066,0.396-0.143,0.585-0.232
	c0.169-0.079,0.333-0.167,0.491-0.264C9.766,5.628,9.825,5.443,9.75,5.289C9.67,5.123,9.575,4.966,9.468,4.817
	c-0.571-0.792-1.501-1.308-2.55-1.308c-0.968,0-1.835,0.441-2.413,1.132c-0.084,0.1-0.233,0.116-0.335,0.034
	C4.098,4.616,4.027,4.555,3.957,4.492c-0.094-0.085-0.106-0.231-0.026-0.33c0.721-0.894,1.825-1.467,3.06-1.467
	c1.274,0,2.408,0.609,3.127,1.551c0.065,0.085,0.126,0.173,0.184,0.263c0.15,0.234,0.487,0.25,0.662,0.034l0.006-0.007
	c0.114-0.14,0.124-0.337,0.026-0.488c-0.108-0.168-0.227-0.329-0.355-0.481C9.766,2.526,8.455,1.863,6.991,1.863
	c-1.513,0-2.862,0.709-3.736,1.812C3.191,3.756,3.128,3.84,3.069,3.926z"/>
</svg>
