<?xml version="1.0" encoding="utf-8"?>
<svg version="1.1" xmlns="http://www.w3.org/2000/svg" xmlns:xlink="http://www.w3.org/1999/xlink" x="0px" y="0px"
	 viewBox="0 0 258.6 50.5"  xml:space="preserve">
<g>
	<g>
		<path  d="M43.1,14.2h-4.2c-0.9,0-1.7,0.3-2.4,0.7c-0.8,0.6-1.4,1.4-1.4,2.4v28.9c0,1.7,1.7,3.1,3.7,3.1H43
			c0.9,0,1.7-0.3,2.4-0.7c0.6-0.4,1-0.9,1.2-1.4c0.1-0.3,0.2-0.6,0.2-0.9V17.2c0-0.3-0.1-0.6-0.2-0.9C46.2,15.1,44.8,14.2,43.1,14.2
			z M79.7,24.3c-0.6-6.2-2.6-11.4-8.7-16.6c-5.9-4.9-13-5.3-17.4-5.9C48.9,1.2,42,1.2,40.5,1.2h-0.3c-1.5,0-8.5,0.1-13.1,0.7
			C24.3,2.3,20.4,2.6,16.5,4c-2.3,0.8-4.6,2-6.8,3.8C3.5,13,1.5,18.2,1,24.4C0.9,25,0.9,40.1,0.8,46.2l0,0c0,1.6,1.4,2.8,3.1,3
			c0.1,0,1.2,0,2.3,0s2.2,0,2.3,0s0.2,0,0.2,0h0.1l0,0c1-0.2,1.8-0.7,2.3-1.4c0.3-0.5,0.5-1,0.5-1.6c0,0,0.1-18.2,0.2-21
			c0.2-4.1,0.6-8.2,5-11.6c3.6-2.8,7.5-3.7,10.9-4.1c0.8-0.1,1.5-0.2,2.3-0.3c0.1,0,0.3,0,0.4,0s0.3,0,0.4,0c0.2,0,0.3,0,0.5,0
			c3.5-0.3,8.2-0.3,8.9-0.3h0.1c0.8,0,6.8,0,10.2,0.4c3.9,0.4,8.7,1,13.1,4.4s4.8,7.5,5,11.6c0.2,2.8,0.2,21,0.2,21
			c0,1.6,1.4,2.9,3.1,3c0.1,0,1.2,0,2.3,0c1.1,0,2.2,0,2.3,0c1.5-0.1,2.7-1.1,3.1-2.4l0,0c0-0.1,0-0.2,0-0.3c0,0,0,0,0-0.1
			s0-0.2,0-0.2C79.8,40.2,79.8,25.5,79.7,24.3L79.7,24.3z M146.6,8.1c-7.4,0-13.5,6-13.5,13.3c0,7.5,5.9,13.3,13.4,13.4h0.1
			c3.6,0,6.9-1.4,9.4-3.9s3.9-5.9,3.9-9.4C159.9,14.1,154,8.1,146.6,8.1z M146.6,31.4c-2.7,0-5.2-1.1-7.1-3
			c-1.9-1.9-2.9-4.4-2.9-7.1c0.1-5.4,4.5-9.8,10-9.8h0.1c5.3,0.1,9.8,4.6,9.8,10C156.5,26.9,152,31.4,146.6,31.4z M215.4,8.1v2.4
			c0,1.3,0,2.7,0,4c0,3.4,0,7-0.1,10.5c0,1.1-0.5,2.5-1.2,3.6c-1.2,1.7-3.7,2.8-6.4,2.8c-1.4,0-2.7-0.3-3.8-0.8
			c-2.5-1.2-3.7-3.3-3.8-6.6c0-3.2,0-6.5,0-9.7c0-1.4,0-2.7,0-4.1V8.1h-3.4v0.8c0,1.5,0,2.9,0,4.4c0,4.4,0,8.5,0.1,12.8
			c0,1,0.4,2.1,1.1,3.4c1.9,3.6,5.2,5.4,10,5.4h0.1c6.7,0,10.9-4.3,11-11c0-3.1,0-6.3,0-9.4V8.2L215.4,8.1L215.4,8.1L215.4,8.1z
			 M174.8,34.7h3.6V11.6h9V8.2h-21.5v3.4h9v23.1H174.8z M121.9,8.3c-0.4-0.1-0.7-0.2-1-0.2c-0.9,0-1.6,0.5-2,1.4
			c-1.4,2.9-5.5,11-5.5,11c-1.1,2.3-4.2,8.4-4.2,8.4l0,0l-2.2-4.4c-2.4-4.7-4.8-9.6-7.2-14.4c-0.5-0.9-1-2-2.3-2
			c-0.4,0-0.8,0.1-1.3,0.3l-0.5,0.2v26.2h3.6V16.7c0,0,5.8,11.5,8.1,16c0.3,0.6,1,1.3,1.9,1.3l0,0c0.8,0,1.7-1.1,1.9-1.6
			c1.9-3.7,3.6-7.1,5.4-10.7c0,0,2.6-5.2,2.7-5.4v18.5h3.4V8.6L121.9,8.3z M254.2,34.8h3.4V8.6l-0.8-0.3c-0.4-0.1-0.7-0.2-1-0.2
			c-0.9,0-1.6,0.5-2,1.4c-1.4,2.9-5.5,11-5.5,11c-1.2,2.3-4.2,8.4-4.2,8.4l0,0l-2.2-4.4c-2.4-4.7-4.8-9.6-7.2-14.4
			c-0.5-0.9-1-2-2.3-2c-0.4,0-0.8,0.1-1.3,0.3l-0.5,0.2v26.2h3.6V16.7c0,0,5.8,11.5,8.1,16c0.3,0.6,1,1.3,1.9,1.3l0,0
			c0.8,0,1.7-1.1,1.9-1.6c1.9-3.7,3.6-7.1,5.4-10.7c0,0,2.6-5.2,2.7-5.4L254.2,34.8L254.2,34.8z M99.1,46.2L96.2,42h-0.6v7.3h0.6
			v-6.1l2.8,4l0,0h0.1l2.8-4v6.1h0.6V42h-0.6L99.1,46.2z M104.6,49.2h0.6V42h-0.6V49.2z M112.5,43c-0.3-0.3-0.8-0.6-1.2-0.8
			c-0.5-0.2-1-0.3-1.6-0.3h-2.4v7.3h2.4c0.6,0,1.1-0.1,1.6-0.3s0.9-0.4,1.2-0.8c0.3-0.3,0.6-0.7,0.8-1.1c0.2-0.4,0.3-0.9,0.3-1.4
			l0,0c0-0.5-0.1-1-0.3-1.4C113.1,43.7,112.9,43.3,112.5,43z M113,45.6c0,0.4-0.1,0.8-0.2,1.2c-0.2,0.4-0.4,0.7-0.6,1
			c-0.3,0.3-0.6,0.5-1,0.6c-0.4,0.2-0.8,0.2-1.3,0.2h-1.8v-6.1h1.8c0.5,0,0.9,0.1,1.3,0.2c0.4,0.2,0.7,0.4,1,0.7s0.5,0.6,0.6,1
			C112.9,44.8,113,45.2,113,45.6L113,45.6z M115.9,45.9h4.1v-0.6h-4.1v-2.7h4.6V42h-5.2v7.2h5.2v-0.6h-4.6V45.9z M127.5,44.6
			c-0.1-0.1-0.3-0.2-0.4-0.3c-0.3-0.1-0.7-0.1-1,0c-0.2,0.1-0.3,0.2-0.4,0.3s-0.2,0.3-0.3,0.4c-0.1,0.2-0.1,0.3-0.1,0.5l0,0
			c0,0.2,0,0.4,0.1,0.5c0.1,0.2,0.2,0.3,0.3,0.4c0.1,0.1,0.3,0.2,0.4,0.3c0.2,0.1,0.3,0.1,0.5,0.1s0.3,0,0.5-0.1s0.3-0.2,0.4-0.3
			s0.2-0.3,0.3-0.4c0.1-0.2,0.1-0.3,0.1-0.5l0,0c0-0.2,0-0.3-0.1-0.5C127.8,44.9,127.7,44.8,127.5,44.6z M138.3,43
			c-0.3-0.3-0.8-0.6-1.2-0.8c-0.5-0.2-1-0.3-1.6-0.3h-2.4v7.3h2.4c0.6,0,1.1-0.1,1.6-0.3s0.9-0.4,1.2-0.8c0.3-0.3,0.6-0.7,0.8-1.1
			c0.2-0.4,0.3-0.9,0.3-1.4l0,0c0-0.5-0.1-1-0.3-1.4C138.9,43.7,138.7,43.3,138.3,43z M138.8,45.6c0,0.4-0.1,0.8-0.2,1.2
			c-0.1,0.4-0.4,0.7-0.6,1c-0.3,0.3-0.6,0.5-1,0.6c-0.4,0.2-0.8,0.2-1.3,0.2h-1.8v-6.1h1.8c0.5,0,0.9,0.1,1.3,0.2
			c0.4,0.2,0.7,0.4,1,0.7s0.5,0.6,0.6,1C138.7,44.8,138.8,45.2,138.8,45.6L138.8,45.6z M141.2,49.2h0.6V42h-0.6V49.2z M147.2,41.9
			h-0.6l-3.4,7.3h0.7l0.9-2h4.2l0.9,2l0,0h0.7L147.2,41.9L147.2,41.9z M145.1,46.6l1.8-4l1.8,4H145.1z M155.2,46h2.4v2
			c-0.1,0.1-0.3,0.2-0.4,0.3c-0.2,0.1-0.3,0.2-0.5,0.3s-0.4,0.1-0.6,0.2c-0.2,0-0.4,0.1-0.7,0.1c-0.5,0-0.9-0.1-1.3-0.2
			c-0.4-0.2-0.7-0.4-1-0.7s-0.5-0.6-0.6-1s-0.2-0.8-0.2-1.3l0,0c0-0.4,0.1-0.8,0.2-1.2c0.1-0.4,0.3-0.7,0.6-1s0.6-0.5,0.9-0.7
			c0.4-0.2,0.8-0.3,1.2-0.3c0.5,0,1,0.1,1.3,0.2c0.4,0.2,0.7,0.4,0.9,0.6l0,0l0.4-0.5l0,0c-0.2-0.2-0.4-0.3-0.6-0.4
			c-0.2-0.1-0.4-0.2-0.6-0.3c-0.2-0.1-0.4-0.1-0.7-0.2c-0.2,0-0.5-0.1-0.8-0.1c-0.5,0-1,0.1-1.5,0.3c-0.4,0.2-0.8,0.5-1.1,0.8
			s-0.6,0.7-0.7,1.2c-0.2,0.4-0.3,0.9-0.3,1.4l0,0c0,0.5,0.1,1,0.2,1.4c0.2,0.5,0.4,0.8,0.7,1.2c0.3,0.3,0.7,0.6,1.1,0.8
			c0.4,0.2,1,0.3,1.5,0.3c0.6,0,1.1-0.1,1.6-0.3s0.9-0.5,1.2-0.8l0,0v-2.8h-3V46H155.2z M165.5,48.1l-4.9-6.1l0,0H160v7.3h0.6V43
			l5,6.3h0.5V42h-0.6V48.1z M174.1,43c-0.3-0.3-0.7-0.6-1.1-0.8c-0.4-0.2-0.9-0.3-1.5-0.3s-1.1,0.1-1.5,0.3s-0.8,0.5-1.2,0.8
			c-0.3,0.3-0.6,0.7-0.7,1.2c-0.2,0.4-0.3,0.9-0.3,1.4l0,0c0,0.5,0.1,1,0.3,1.4s0.4,0.8,0.7,1.2c0.3,0.3,0.7,0.6,1.1,0.8
			c0.4,0.2,0.9,0.3,1.5,0.3c0.5,0,1-0.1,1.5-0.3s0.8-0.5,1.2-0.8c0.3-0.3,0.6-0.7,0.7-1.2c0.2-0.4,0.3-0.9,0.3-1.4l0,0
			c0-0.5-0.1-1-0.3-1.4C174.6,43.7,174.4,43.3,174.1,43z M174.4,45.6c0,0.4-0.1,0.8-0.2,1.2c-0.1,0.4-0.4,0.7-0.6,1
			c-0.3,0.3-0.6,0.5-0.9,0.7c-0.4,0.2-0.8,0.2-1.2,0.2s-0.8-0.1-1.2-0.3s-0.7-0.4-1-0.7s-0.5-0.6-0.6-1c-0.2-0.4-0.2-0.8-0.2-1.2
			l0,0c0-0.4,0.1-0.8,0.2-1.2c0.1-0.4,0.4-0.7,0.6-1c0.3-0.3,0.6-0.5,0.9-0.7c0.4-0.2,0.8-0.2,1.2-0.2s0.8,0.1,1.2,0.3
			s0.7,0.4,1,0.7s0.5,0.6,0.6,1C174.3,44.7,174.4,45.2,174.4,45.6L174.4,45.6z M179.3,45.3c-0.4-0.1-0.8-0.2-1-0.3
			c-0.3-0.1-0.5-0.2-0.6-0.3s-0.2-0.3-0.3-0.4c-0.1-0.1-0.1-0.3-0.1-0.5l0,0c0-0.2,0-0.3,0.1-0.5s0.2-0.3,0.3-0.4
			c0.1-0.1,0.3-0.2,0.5-0.3s0.4-0.1,0.7-0.1c0.4,0,0.8,0.1,1.1,0.2c0.3,0.1,0.7,0.3,1,0.6l0,0l0.4-0.5l0,0c-0.4-0.3-0.7-0.5-1.1-0.7
			c-0.4-0.1-0.8-0.2-1.4-0.2c-0.3,0-0.7,0.1-0.9,0.1c-0.3,0.1-0.5,0.2-0.7,0.4s-0.4,0.4-0.5,0.6c-0.1,0.2-0.2,0.5-0.2,0.8l0,0
			c0,0.3,0,0.5,0.1,0.7s0.2,0.4,0.4,0.6c0.2,0.2,0.5,0.3,0.8,0.4c0.3,0.1,0.7,0.2,1.1,0.3c0.4,0.1,0.7,0.2,1,0.3s0.5,0.2,0.6,0.3
			s0.2,0.2,0.3,0.4c0.1,0.1,0.1,0.3,0.1,0.5l0,0c0,0.2,0,0.4-0.1,0.5c-0.1,0.2-0.2,0.3-0.4,0.4c-0.2,0.1-0.3,0.2-0.6,0.3
			c-0.2,0.1-0.5,0.1-0.7,0.1c-0.3,0-0.5,0-0.7-0.1c-0.2,0-0.4-0.1-0.6-0.2c-0.2-0.1-0.4-0.2-0.6-0.3c-0.2-0.1-0.4-0.3-0.6-0.5l0,0
			l-0.4,0.5l0,0c0.4,0.4,0.9,0.7,1.3,0.9c0.5,0.2,1,0.3,1.6,0.3c0.4,0,0.7,0,1-0.1s0.5-0.2,0.8-0.4c0.2-0.2,0.4-0.4,0.5-0.6
			c0.1-0.2,0.2-0.5,0.2-0.8l0,0c0-0.5-0.2-1-0.6-1.3C180.7,45.7,180.1,45.5,179.3,45.3z M182.8,42.5h2.5v6.7h0.6v-6.7h2.5V42h-5.6
			V42.5z M190,49.2h0.6V42H190V49.2z M198.5,47.7c-0.4,0.4-0.7,0.6-1.1,0.8c-0.4,0.2-0.8,0.3-1.3,0.3c-0.4,0-0.8-0.1-1.2-0.2
			c-0.4-0.2-0.7-0.4-0.9-0.7c-0.3-0.3-0.5-0.6-0.6-1c-0.2-0.4-0.2-0.8-0.2-1.2l0,0c0-0.4,0.1-0.9,0.2-1.2c0.2-0.4,0.4-0.7,0.6-1
			c0.3-0.3,0.6-0.5,0.9-0.7c0.4-0.2,0.8-0.2,1.2-0.2c0.3,0,0.5,0,0.7,0.1s0.4,0.1,0.6,0.2c0.2,0.1,0.4,0.2,0.5,0.3
			c0.2,0.1,0.3,0.3,0.5,0.4l0,0l0.4-0.5l0,0c-0.2-0.2-0.4-0.3-0.6-0.5c-0.2-0.1-0.4-0.3-0.6-0.4c-0.2-0.1-0.5-0.2-0.7-0.2
			c-0.3-0.1-0.6-0.1-0.9-0.1c-0.5,0-1,0.1-1.5,0.3c-0.4,0.2-0.8,0.5-1.1,0.8s-0.6,0.7-0.8,1.2s-0.3,0.9-0.3,1.4l0,0
			c0,0.5,0.1,1,0.3,1.5s0.4,0.9,0.8,1.2c0.3,0.3,0.7,0.6,1.1,0.8c0.4,0.2,0.9,0.3,1.4,0.3c0.3,0,0.6,0,0.9-0.1
			c0.3-0.1,0.5-0.1,0.8-0.3c0.2-0.1,0.5-0.2,0.7-0.4s0.4-0.3,0.6-0.5l0,0L198.5,47.7L198.5,47.7z M203.6,41.9H203l-3.4,7.3h0.7
			l0.9-2h4.2l0.9,2l0,0h0.7L203.6,41.9L203.6,41.9z M201.5,46.6l1.8-4l1.8,4H201.5z M213.7,44.6c-0.1-0.1-0.3-0.2-0.4-0.3
			c-0.3-0.1-0.7-0.1-1,0c-0.2,0.1-0.3,0.2-0.4,0.3c-0.1,0.1-0.2,0.3-0.3,0.4c-0.1,0.2-0.1,0.3-0.1,0.5l0,0c0,0.2,0,0.4,0.1,0.5
			c0.1,0.2,0.2,0.3,0.3,0.4c0.1,0.1,0.3,0.2,0.4,0.3c0.2,0.1,0.3,0.1,0.5,0.1s0.3,0,0.5-0.1s0.3-0.2,0.4-0.3
			c0.1-0.1,0.2-0.3,0.3-0.4c0.1-0.2,0.1-0.3,0.1-0.5l0,0c0-0.2,0-0.3-0.1-0.5C214,44.9,213.9,44.8,213.7,44.6z M224.5,43
			c-0.3-0.3-0.7-0.6-1.2-0.8s-1-0.3-1.6-0.3h-2.4v7.3h2.4c0.6,0,1.1-0.1,1.6-0.3s0.9-0.4,1.2-0.8c0.3-0.3,0.6-0.7,0.8-1.1
			c0.2-0.4,0.3-0.9,0.3-1.4l0,0c0-0.5-0.1-1-0.3-1.4C225.1,43.7,224.9,43.3,224.5,43z M225,45.6c0,0.4-0.1,0.8-0.2,1.2
			c-0.2,0.4-0.4,0.7-0.6,1c-0.3,0.3-0.6,0.5-1,0.6c-0.4,0.2-0.8,0.2-1.3,0.2h-1.8v-6.1h1.8c0.5,0,0.9,0.1,1.3,0.2
			c0.4,0.2,0.7,0.4,1,0.7s0.5,0.6,0.6,1C224.9,44.8,225,45.2,225,45.6L225,45.6z M227.9,45.9h4.1v-0.6h-4.1v-2.7h4.6V42h-5.2v7.2
			h5.2v-0.6h-4.6V45.9z M239.9,47.7c-0.4,0.4-0.7,0.6-1.1,0.8c-0.4,0.2-0.8,0.3-1.3,0.3c-0.4,0-0.8-0.1-1.2-0.2
			c-0.4-0.2-0.7-0.4-0.9-0.7c-0.3-0.3-0.5-0.6-0.6-1c-0.2-0.4-0.2-0.8-0.2-1.2l0,0c0-0.4,0.1-0.9,0.2-1.2c0.2-0.4,0.4-0.7,0.6-1
			c0.3-0.3,0.6-0.5,0.9-0.7c0.4-0.2,0.8-0.2,1.2-0.2c0.3,0,0.5,0,0.7,0.1s0.4,0.1,0.6,0.2c0.2,0.1,0.4,0.2,0.5,0.3
			c0.2,0.1,0.3,0.3,0.5,0.4l0,0l0.4-0.5l0,0c-0.2-0.2-0.4-0.3-0.6-0.5c-0.2-0.1-0.4-0.3-0.6-0.4c-0.2-0.1-0.5-0.2-0.7-0.2
			c-0.3-0.1-0.6-0.1-0.9-0.1c-0.5,0-1,0.1-1.5,0.3c-0.4,0.2-0.8,0.5-1.1,0.8s-0.6,0.7-0.8,1.2s-0.3,0.9-0.3,1.4l0,0
			c0,0.5,0.1,1,0.3,1.5s0.4,0.9,0.8,1.2c0.3,0.3,0.7,0.6,1.1,0.8c0.4,0.2,0.9,0.3,1.4,0.3c0.3,0,0.6,0,0.9-0.1s0.5-0.1,0.8-0.3
			c0.2-0.1,0.4-0.2,0.7-0.4c0.2-0.2,0.4-0.3,0.6-0.5l0,0L239.9,47.7L239.9,47.7z M241.8,49.2h0.6V42h-0.6V49.2z M249.7,43
			c-0.3-0.3-0.8-0.6-1.2-0.8c-0.5-0.2-1-0.3-1.6-0.3h-2.4v7.3h2.4c0.6,0,1.1-0.1,1.6-0.3s0.9-0.4,1.2-0.8c0.3-0.3,0.6-0.7,0.8-1.1
			c0.2-0.4,0.3-0.9,0.3-1.4l0,0c0-0.5-0.1-1-0.3-1.4C250.3,43.7,250.1,43.3,249.7,43z M250.2,45.6c0,0.4-0.1,0.8-0.2,1.2
			c-0.2,0.4-0.4,0.7-0.6,1c-0.3,0.3-0.6,0.5-1,0.6c-0.4,0.2-0.8,0.2-1.3,0.2h-1.8v-6.1h1.8c0.5,0,0.9,0.1,1.3,0.2
			c0.4,0.2,0.7,0.4,1,0.7s0.5,0.6,0.6,1C250.1,44.8,250.2,45.2,250.2,45.6L250.2,45.6z M253.1,48.6v-2.8h4.1v-0.6h-4.1v-2.7h4.6V42
			h-5.2v7.3h5.2v-0.6h-4.6V48.6z"/>
	</g>
</g>
</svg>
