<?xml version="1.0" encoding="utf-8"?>
<!-- Generator: Adobe Illustrator 21.0.0, SVG Export Plug-In . SVG Version: 6.00 Build 0)  -->
<svg version="1.1" id="Capa_1" xmlns="http://www.w3.org/2000/svg" xmlns:xlink="http://www.w3.org/1999/xlink" x="0px" y="0px"
	 viewBox="0 0 500 500" style="enable-background:new 0 0 500 500;" xml:space="preserve">
<style type="text/css">
	.st0{fill:#FFFFFF;}
</style>
<path class="st0" d="M367.9,348.3c5.4,5.4,5.4,14.2,0,19.6c-2.7,2.7-6.3,4.1-9.8,4.1s-7.1-1.4-9.8-4.1L250,269.6l-98.3,98.3
	c-2.7,2.7-6.3,4.1-9.8,4.1s-7.1-1.4-9.8-4.1c-5.4-5.4-5.4-14.2,0-19.6l98.3-98.3l-98.3-98.3c-5.4-5.4-5.4-14.2,0-19.6
	c5.4-5.4,14.2-5.4,19.6,0l98.3,98.3l98.3-98.3c5.4-5.4,14.2-5.4,19.6,0c5.4,5.4,5.4,14.2,0,19.6L269.6,250L367.9,348.3z"/>
</svg>
