<?xml version="1.0" encoding="utf-8"?>
<!-- Generator: Adobe Illustrator 22.1.0, SVG Export Plug-In . SVG Version: 6.00 Build 0)  -->
<svg version="1.1" id="Capa_1" xmlns="http://www.w3.org/2000/svg" xmlns:xlink="http://www.w3.org/1999/xlink" x="0px" y="0px"
	 viewBox="0 0 230.7 225" style="enable-background:new 0 0 230.7 225;" xml:space="preserve">
<style type="text/css">
	.st0{fill:#727070;}
</style>
<g>
	<g>
		<path class="st0" d="M219.7,117.2c0,2.6-2.1,4.7-4.7,4.7h-17.6c-2.3,41.5-35.8,75-77.4,77.4v17.6c0,2.6-2.1,4.7-4.7,4.7
			c-2.5,0-4.7-2.1-4.7-4.7v-17.6c-41.5-2.3-74.9-35.8-77.3-77.4H15.7c-2.6,0-4.7-2.1-4.7-4.7c0-2.6,2.1-4.7,4.7-4.7h17.7
			c2-34.4,25.1-63.3,56.7-73.5l-4.7,12c-23.8,10.7-40.8,34-42.5,61.5h17.3c2.6,0,4.7,2.1,4.7,4.7c0,2.6-2.1,4.7-4.7,4.7H42.9
			c2.3,36.3,31.5,65.6,67.8,67.9v-17.4c0-2.6,2.2-4.7,4.7-4.7c2.6,0,4.7,2.1,4.7,4.7v17.4c36.4-2.3,65.6-31.6,67.9-67.9h-17.4
			c-2.6,0-4.7-2.1-4.7-4.7c0-2.6,2.1-4.7,4.7-4.7h17.4c-1.7-27.4-18.7-50.9-42.7-61.6L140.5,39c31.6,10.1,54.9,39,56.9,73.5H215
			C217.6,112.5,219.7,114.6,219.7,117.2z"/>
		<g>
			<path class="st0" d="M153.3,97.3c0.1,0.4,0.1,0.8,0,1.1c-0.1,0.4-0.3,0.8-0.6,1c-0.2,0.3-0.5,0.5-0.8,0.6
				c-0.3,0.1-0.6,0.2-0.9,0.2c-0.3,0-0.6,0-0.8-0.1L116.1,85c-0.2,0-0.5-0.1-0.8-0.1c-0.3,0-0.6,0.1-0.8,0.2l-34.1,15.1
				c-0.9,0.3-1.9,0-2.4-0.6c-0.3-0.3-0.5-0.5-0.6-0.8c-0.3-0.6-0.3-1.3,0-2l19.6-50.2l4-10.4L113,6.1c0.5-0.9,1.3-1.4,2.2-1.4
				c0.5,0,0.9,0.1,1.3,0.4c0.4,0.2,0.8,0.6,0.9,1l11.9,30.2l4.1,10.4l19.7,50.1C153.3,97,153.3,97.2,153.3,97.3z"/>
		</g>
	</g>
</g>
</svg>
