<?xml version="1.0" encoding="utf-8"?>
<!-- Generator: Adobe Illustrator 21.0.0, SVG Export Plug-In . SVG Version: 6.00 Build 0)  -->
<svg version="1.1" id="Capa_1" xmlns="http://www.w3.org/2000/svg" xmlns:xlink="http://www.w3.org/1999/xlink" x="0px" y="0px"
	 viewBox="0 0 500 500" style="enable-background:new 0 0 500 500;" xml:space="preserve">
<style type="text/css">
	.st0{fill:#2d9eea;}
</style>
<path class="st0" d="M318.2,239.7c1.1,1.6,1.2,3.7,0.3,5.5c-0.9,1.7-2.7,2.8-4.7,2.8H186.3c-2,0-3.8-1.1-4.7-2.8
	c-0.9-1.7-0.8-3.8,0.3-5.5l20.4-30.5l15.9-45.9l-9.7-30.5c-1.1-1.6-1.2-3.7-0.3-5.5s2.7-2.8,4.7-2.8h74.4c2,0,3.8,1.1,4.7,2.8
	s0.8,3.8-0.3,5.5l-9.7,30.5l15.9,45.9L318.2,239.7z M260.6,258.6h-21.2c-1.5,0-2.9,0.6-3.9,1.7c-1,1.1-1.5,2.6-1.3,4.1l10.6,106.2
	c0.3,2.7,2.6,4.8,5.3,4.8s5-2.1,5.3-4.8l10.6-106.2c0.1-1.5-0.3-3-1.3-4.1C263.6,259.2,262.1,258.6,260.6,258.6z"/>
</svg>
