<?xml version="1.0" encoding="utf-8"?>
<!-- Generator: Adobe Illustrator 21.0.0, SVG Export Plug-In . SVG Version: 6.00 Build 0)  -->
<svg version="1.1" id="Capa_1" xmlns="http://www.w3.org/2000/svg" xmlns:xlink="http://www.w3.org/1999/xlink" x="0px" y="0px"
	 viewBox="0 0 500 500" style="enable-background:new 0 0 500 500;" xml:space="preserve">
<style type="text/css">
	.st0{fill:#727070;}
	.st0:hover{fill:#ec008c;}
</style>
<path class="st0" d="M273.1,351.9c0,12.8-10.3,23.1-23.1,23.1s-23.1-10.3-23.1-23.1c0-12.8,10.3-23.1,23.1-23.1
	S273.1,339.1,273.1,351.9z M250,226.9c-12.8,0-23.1,10.3-23.1,23.1s10.3,23.1,23.1,23.1s23.1-10.3,23.1-23.1S262.8,226.9,250,226.9z
	 M250,125c-12.8,0-23.1,10.3-23.1,23.1c0,12.8,10.3,23.1,23.1,23.1s23.1-10.3,23.1-23.1C273.1,135.4,262.8,125,250,125z"/>
</svg>
