<?xml version="1.0" encoding="utf-8"?>
<!-- Generator: Adobe Illustrator 21.0.0, SVG Export Plug-In . SVG Version: 6.00 Build 0)  -->
<svg version="1.1" id="Capa_1" xmlns="http://www.w3.org/2000/svg" xmlns:xlink="http://www.w3.org/1999/xlink" x="0px" y="0px"
	 viewBox="0 0 500 500" style="enable-background:new 0 0 500 500;" xml:space="preserve">
<style type="text/css">
	.st0{fill:#727070;}
</style>
<path class="st0" d="M227.7,260.4c-4.5,15.1-18.4,26-34.9,26s-30.5-11-34.9-26h-22.3c-5.8,0-10.4-4.6-10.4-10.4
	c0-5.8,4.7-10.4,10.4-10.4h22.3c4.5-15.1,18.4-26,34.9-26s30.5,11,34.9,26h136.9c5.8,0,10.4,4.6,10.4,10.4c0,5.8-4.7,10.4-10.4,10.4
	H227.7z M272.3,328.1c4.5-15.1,18.4-26,34.9-26c16.5,0,30.5,11,34.9,26h22.3c5.8,0,10.4,4.6,10.4,10.4c0,5.8-4.7,10.4-10.4,10.4
	h-22.3c-4.5,15.1-18.4,26-34.9,26c-16.5,0-30.5-11-34.9-26H135.5c-5.8,0-10.4-4.6-10.4-10.4c0-5.8,4.7-10.4,10.4-10.4H272.3z
	 M272.3,151.1c4.5-15.1,18.4-26,34.9-26c16.5,0,30.5,11,34.9,26h22.3c5.8,0,10.4,4.6,10.4,10.4c0,5.8-4.7,10.4-10.4,10.4h-22.3
	c-4.5,15.1-18.4,26-34.9,26c-16.5,0-30.5-11-34.9-26H135.5c-5.8,0-10.4-4.6-10.4-10.4c0-5.8,4.7-10.4,10.4-10.4H272.3z M307.3,177.1
	c8.6,0,15.6-7,15.6-15.6s-7-15.6-15.6-15.6c-8.6,0-15.6,7-15.6,15.6S298.6,177.1,307.3,177.1z M307.3,354.1c8.6,0,15.6-7,15.6-15.6
	s-7-15.6-15.6-15.6c-8.6,0-15.6,7-15.6,15.6S298.6,354.1,307.3,354.1z M192.7,234.4c-8.6,0-15.6,7-15.6,15.6c0,8.6,7,15.6,15.6,15.6
	s15.6-7,15.6-15.6C208.3,241.4,201.4,234.4,192.7,234.4z"/>
</svg>
