<?xml version="1.0" standalone="no"?>
<!DOCTYPE svg PUBLIC "-//W3C//DTD SVG 1.1//EN" "http://www.w3.org/Graphics/SVG/1.1/DTD/svg11.dtd" >
<svg xmlns="http://www.w3.org/2000/svg">
<metadata>Generated by IcoMoon</metadata>
<defs>
<font id="motumicon" horiz-adv-x="1024">
<font-face units-per-em="1024" ascent="960" descent="-64" />
<missing-glyph horiz-adv-x="1024" />
<glyph unicode="&#x20;" horiz-adv-x="512" d="" />
<glyph unicode="&#xe900;" glyph-name="6RA-05" d="M740.718 901.339c-207.36 104.594-453.266 53.102-603.063-110.226-30.72-33.499-57.49-71.826-78.994-114.395-13.605-27.063-24.649-54.784-33.061-82.871-61.733-205.605 13.824-430.373 187.977-556.69 21.723-15.726 44.983-29.989 69.705-42.423 22.309-11.264 45.056-20.699 68.023-28.379 205.093-68.608 432.274 1.755 563.2 172.032 19.090 24.869 36.206 51.858 50.834 80.896 21.504 42.569 36.425 86.821 45.129 131.511 42.277 217.454-62.391 445.879-269.751 550.546zM178.688 186.222c-75.483 96.329-106.935 222.281-82.798 344.283 0.439 2.341 0.951 4.681 1.463 7.095 0.512 2.267 1.024 4.608 1.609 6.949 0.512 2.194 1.024 4.462 1.609 6.583 0.439 1.829 0.951 3.657 1.463 5.486 0.146 0.658 0.293 1.317 0.512 2.048 0.878 3.218 1.755 6.51 2.779 9.801 0.073 0.293 0.219 0.512 0.219 0.805 0.073 0.219 0.073 0.366 0.073 0.366 0.951 3.145 1.829 5.998 2.779 8.923 1.097 3.291 2.194 6.656 3.365 9.947 0.146 0.366 0.293 0.731 0.439 1.097 1.097 3.145 2.194 6.29 3.365 9.362 0 0 0.146 0.293 0.219 0.512 1.243 3.072 2.414 6.29 3.73 9.362l0.146 0.366 0.073 0.146c0.439 1.024 0.805 1.975 1.243 2.999 0.951 2.341 1.902 4.535 2.926 6.802l0.073 0.146c1.17 2.706 2.414 5.339 3.657 7.973l0.073 0.073c0.731 1.682 1.536 3.291 2.414 4.974 1.097 2.267 2.194 4.462 3.291 6.729 10.898 21.65 23.479 41.984 37.449 60.855 16.457 22.455 34.962 42.862 55.077 61.221 126.245 115.2 315.685 147.017 477.184 65.609 25.527-12.873 49.006-28.306 70.656-45.349l-87.040-87.040h-350.135c-16.677-5.851-29.038-19.602-37.742-41.326-20.992-60.123-39.79-119.589-61.513-178.981l0.731-208.677v-19.822l-59.392-59.319zM743.717 506.661h-125.586l92.672 92.672 32.914-92.672zM748.105 400.896c0-26.112-20.992-47.835-47.835-47.835-25.381 0-47.104 21.723-47.104 47.835 0 26.77 21.723 47.104 47.104 47.104 26.843 0 47.835-20.334 47.835-47.104zM346.843 354.45c-2.267-0.366-4.242-1.39-6.656-1.39-26.112 0-47.835 21.723-47.835 47.835 0 26.77 21.723 47.104 47.835 47.104 26.843 0 47.835-20.334 47.835-47.104 0-2.341-1.024-4.389-1.317-6.656l-39.863-39.79zM297.472 506.661l49.225 140.581h292.937l-140.507-140.581h-201.655zM933.815 403.895c-2.779-27.063-8.192-54.053-16.457-80.75-6.802-22.455-15.726-44.617-26.624-66.267-13.239-26.185-28.818-50.469-46.373-72.558-5.998-7.607-12.288-14.994-18.798-22.089-106.203-116.443-270.702-165.303-424.229-123.685-1.682 0.439-3.365 0.878-4.974 1.317-25.6 7.241-50.834 16.969-75.41 29.403-24.649 12.434-47.397 26.917-68.389 43.227-1.39 1.024-2.779 2.194-4.096 3.291-3.95 3.145-7.607 6.51-11.41 9.728l139.191 139.191h343.698v-31.89c0-23.918 18.139-42.057 41.984-42.057 22.455 0 41.326 18.139 41.326 42.057v32.622l1.317 208.603c-19.749 53.906-38.254 107.959-56.686 162.45l86.674 86.674c74.971-88.064 111.25-203.922 99.255-319.269z" />
<glyph unicode="&#xe901;" glyph-name="6RA-01" d="M1012.955 196.242l-255.561 513.024c-1.17 2.414-3.218 3.803-5.339 3.803h-87.040v-63.927c0-5.266-4.315-9.582-9.582-9.582h-26.551c-5.266 0-9.582 4.315-9.582 9.582v64h-79.506c-2.121 0-4.169-1.463-5.339-3.803l-90.551-181.687-129.463 185.49h-110.299l302.446-530.286h104.521v156.453c0 5.266 4.315 9.582 9.582 9.582h43.52c5.339 0 9.655-4.315 9.655-9.655v-156.379h333.678c5.193 0 8.265 7.68 5.413 13.385zM668.16 440.613c0-5.339-4.315-9.582-9.582-9.582h-32.987c-5.266 0-9.582 4.315-9.582 9.582v127.269c0 7.095 5.778 12.873 12.873 12.873h29.696c5.339 0 9.582-4.315 9.582-9.582v-130.56zM151.552 713.143l302.446-530.286h-169.838c0 0 0 0 0 0h-3.438l-270.775 530.286h141.605z" />
<glyph unicode="&#xe902;" glyph-name="6RA-02" d="M711.461 672.622h-369.591c-14.775 0-26.77-11.995-26.77-26.77v-26.697h-292.279c-11.191 0-20.261-9.070-20.261-20.261s9.070-20.261 20.261-20.261h292.279v-152.576h-147.383c-11.191 0-20.261-9.070-20.261-20.261s9.070-20.114 20.261-20.114h147.383v-76.873c0-14.775 11.995-26.77 26.77-26.77h48.421c0 44.763 36.425 81.189 81.262 81.189 44.763 0 81.189-36.425 81.189-81.189h185.563v363.813c-0.073 14.775-12.069 26.77-26.843 26.77zM530.066 281.966c0-32.357-26.23-58.587-58.587-58.587s-58.587 26.23-58.587 58.587c0 32.357 26.23 58.587 58.587 58.587s58.587-26.23 58.587-58.587zM1016.466 422.619l-120.393 150.528c-2.706 3.365-8.411 6.071-12.727 6.071h-122.368v-297.253h22.821c0 44.763 36.425 81.189 81.189 81.189s81.189-36.425 81.189-81.189h51.712c13.019 0 23.552 10.533 23.552 23.552v103.131c0 4.315-2.194 10.606-4.974 13.97zM964.608 415.89l-156.014 0.585c-2.926 0-5.266 2.341-5.266 5.266v119.662c0 2.926 2.341 5.266 5.266 5.266h57.344c1.609 0 3.072-0.731 4.096-1.902l98.743-120.247c2.779-3.438 0.293-8.631-4.169-8.631zM923.575 281.966c0-32.357-26.23-58.587-58.587-58.587s-58.587 26.23-58.587 58.587c0 32.357 26.23 58.587 58.587 58.587s58.587-26.23 58.587-58.587zM214.894 503.077c0 11.191-9.070 20.261-20.261 20.261h-98.889c-11.191 0-20.261-9.070-20.261-20.261s9.070-20.261 20.261-20.261h98.962c11.191 0.073 20.187 9.070 20.187 20.261z" />
<glyph unicode="&#xe903;" glyph-name="13PA-11" d="M404.041 602.843c100.864 0 169.399 78.702 169.399 175.762s-68.535 175.689-169.399 175.689c-100.937 0-169.472-78.629-169.472-175.689 0.073-97.061 68.608-175.762 169.472-175.762zM413.477 159.378c-2.414 13.531-3.657 27.429-3.657 41.618 0 22.309 3.072 43.959 8.85 64.439 28.233 99.913 120.101 173.275 228.864 173.349-53.321 74.021-141.605 122.807-242.103 123.685v0.146c-0.439 0-0.951-0.073-1.39-0.073s-0.878 0.073-1.39 0.073v-0.146c-163.328-1.463-295.351-129.17-295.351-286.72 2.267-46.299 18.725-98.231 45.495-127.854 13.239-15.506 144.238-22.382 269.239-21.577-1.829 5.559-3.511 11.264-4.974 16.969-1.39 5.339-2.633 10.679-3.584 16.091zM907.849 243.493c-28.16 99.694-119.954 172.983-228.498 172.983-108.617 0-200.411-73.289-228.498-172.983-5.778-20.48-8.85-42.057-8.85-64.366 0-14.19 1.243-28.087 3.657-41.545 17.554-98.816 96.402-176.713 195.73-192.805 12.361-1.975 25.088-3.072 38.034-3.072 11.703 0 23.113 0.878 34.377 2.487 100.059 14.555 180.078 91.794 198.802 190.391 2.706 14.409 4.169 29.257 4.169 44.471-0.073 22.309-3.145 43.959-8.923 64.439zM873.618 139.045c-0.878-4.462-1.975-8.85-3.218-13.166-19.822-71.022-78.19-126.025-151.040-141.019-0.805-0.219-1.609-0.366-2.341-0.512-12.215-2.341-24.795-3.657-37.669-3.657s-25.454 1.243-37.669 3.657c-0.805 0.146-1.609 0.293-2.414 0.512-72.85 14.994-131.218 69.998-150.967 141.019-0.293 1.097-0.585 2.194-0.878 3.291s-0.585 2.194-0.805 3.291c-0.219 1.024-0.512 2.048-0.731 3.072-0.219 0.878-0.366 1.755-0.585 2.56-0.073 0.293-0.146 0.658-0.219 0.951-0.293 1.536-0.658 3.072-0.878 4.681l-0.073 0.366-0.073 0.146c-0.293 1.463-0.512 2.926-0.731 4.315-0.219 1.609-0.439 3.218-0.658 4.827 0 0.219-0.073 0.366-0.073 0.585-0.219 1.536-0.366 3.072-0.585 4.608v0.219c-0.146 1.536-0.293 3.145-0.439 4.681v0.293c-0.073 0.512-0.073 1.024-0.146 1.536-0.073 1.097-0.146 2.267-0.219 3.365v0.073c-0.073 1.39-0.146 2.706-0.146 4.096v0.146c-0.073 0.878-0.073 1.682-0.073 2.56 0 1.17-0.073 2.341-0.073 3.511 0 11.337 0.951 22.455 2.779 33.28 2.194 12.873 5.632 25.307 10.167 37.157 28.453 74.679 100.791 127.854 185.344 127.854s156.891-53.175 185.344-127.854c4.535-11.922 7.973-24.283 10.094-37.157 1.902-10.825 2.853-21.943 2.853-33.28 0.146-13.678-1.243-27.063-3.877-40.009zM735.963 263.241c-20.114 1.39-39.57 2.267-56.539 2.267-47.543 0-112.713-6.802-162.743-12.873-10.167-22.382-15.872-47.323-15.872-73.582 0-13.605 1.609-26.917 4.535-39.863 17.189-1.097 34.67-6.363 51.419-14.702 14.263-7.022 27.648-16.311 39.863-28.306 26.478-26.478 40.96-59.538 43.008-91.429 12.873-2.706 26.258-4.315 40.082-4.315 13.605 0 26.697 1.39 39.424 4.315 2.048 31.671 16.75 64.951 43.227 91.429s59.758 40.96 91.429 43.008c2.926 12.873 4.535 26.258 4.535 39.863 0 26.258-5.632 50.907-15.872 73.362-32.183 4.096-70.51 8.338-106.496 10.825zM709.925 170.642c-0.219-0.658-0.439-1.317-0.658-1.975-1.829-5.193-4.974-9.728-9.070-13.385-0.439-0.439-0.878-0.878-1.609-1.39-2.048-1.609-4.315-3.145-6.802-4.315-3.072-1.243-6.583-1.755-10.094-2.048 3.511 0.219 6.875 0.805 9.947 2.121 0 0 0 0 0 0-3.145-1.317-6.583-1.902-10.167-2.194-0.293 0-0.585-0.146-0.878-0.146-0.439 0-0.878-0.219-1.39-0.219-17.627 0-31.89 14.263-31.89 31.89 0 7.095 2.487 13.605 6.51 18.944-3.95-5.339-6.437-11.849-6.437-18.944 0-17.554 14.263-31.817 31.817-31.817 0 0 0 0 0 0-17.554 0-31.817 14.263-31.817 31.817 0 8.265 3.218 15.726 8.411 21.431 5.851 6.29 14.117 10.313 23.406 10.313h0.658c1.829 0 3.877-0.219 5.632-0.439 1.609-0.439 2.926-0.878 4.315-1.39 0.439-0.219 1.097-0.439 1.609-0.439 11.557-4.974 19.456-16.311 19.456-29.403 0.219-2.926-0.219-5.851-0.951-8.411z" />
<glyph unicode="&#xe904;" glyph-name="6RA-03" d="M397.458 605.403c-5.559 6.363-14.336 8.777-22.309 6.217-13.824-4.462-24.357-15.506-28.087-29.55-3.803-13.97-0.219-28.745 9.509-39.497l39.058-43.374-113.445-88.357-222.72 292.718c-9.874 12.946-28.379 15.506-41.399 5.632-12.946-9.874-15.433-28.379-5.559-41.326l226.158-297.179c8.704-11.483 21.358-18.871 35.621-20.699 1.39-0.219 2.853-0.293 4.242-0.366 12.8-0.658 25.234 3.291 35.474 11.191l121.271 94.501 75.703-83.895c3.803-4.242 9.070-6.656 14.555-6.875 2.706-0.146 5.486 0.219 8.119 1.17 8.046 2.853 13.531 10.24 13.97 18.798l1.975 37.961c0.293 5.486-1.609 10.825-5.193 14.921l-146.944 168.009zM815.47 575.195c0 0-106.862-13.824-236.544 81.262s-194.706 15.945-164.864-17.481c0 0 236.837-271.141 308.663-287.232 0 0 24.503 1.902 0.658-27.282 0 0 104.302-153.307 153.234-143.214 48.859 10.167 143.872 144.311 140.873 175.47 0 0.073-174.226 89.6-202.021 218.478z" />
<glyph unicode="&#xe905;" glyph-name="6RA-04" d="M721.042 643.438c0 0-147.383-26.258-333.605 97.061-186.295 123.319-271.214 9.216-227.621-35.255 0 0 346.551-360.448 447.342-378.002 0 0 33.865 4.315 2.779-37.742 0 0 154.917-205.824 222.062-188.489s190.025 209.774 183.808 252.855c-0.073 0-247.735 112.567-294.766 289.573zM162.523 649.216c-8.192 8.485-20.553 11.191-31.525 7.022-18.944-7.168-32.768-23.259-37.010-43.008-4.242-19.822 1.755-40.155 16.091-54.418l65.463-65.536-160.914-223.378c-11.41-15.799-7.826-37.888 8.046-49.225 6.217-4.462 13.458-6.656 20.553-6.656 10.971 0 21.797 5.12 28.672 14.702l154.185 214.089 111.323-111.323c5.632-5.632 13.093-8.631 20.773-8.631 3.803 0 7.607 0.731 11.264 2.267 10.971 4.535 18.139 15.287 18.139 27.136v53.029c0 7.68-2.999 14.994-8.265 20.48l-216.795 223.451z" />
<glyph unicode="&#xe906;" glyph-name="6RA-09" d="M880.055 451.511c-32.768 49.152-94.793 50.542-140.142 40.667-19.383 19.017-45.422 30.135-72.704 30.135h-431.543c-29.257 0-57.271-12.361-77.019-33.938-19.895-21.797-29.769-51.273-27.063-80.896 19.017-208.238 135.607-327.607 319.854-327.607 106.715 0 190.537 40.229 246.053 114.395 71.168 10.24 139.41 72.85 173.129 135.461 26.039 48.64 29.403 91.867 9.435 121.783zM451.365 152.21c-185.125 0-236.983 142.409-247.881 261.925-0.878 9.509 2.121 18.578 8.485 25.6 6.144 6.729 14.482 10.386 23.625 10.386h431.543c9.070 0 17.481-3.73 23.625-10.386 6.363-6.949 9.362-16.018 8.485-25.6-10.825-119.515-62.683-261.925-247.881-261.925zM801.865 355.255c-12.873-21.285-31.89-43.008-53.029-59.977 11.045 33.865 18.725 71.314 22.455 112.274 0.512 5.486 0.146 10.971-0.219 16.457 18.944 2.121 39.936 0.805 48.786-12.507 1.975-3.803 1.463-24.21-17.993-56.247zM796.965 32.256c18.066-42.935-13.458-90.405-59.977-90.405h-502.491c-41.472 0-72.411 38.254-63.707 78.775l1.317 5.998c3.072 14.482 15.872 24.795 30.72 24.795h565.175c12.654 0.073 24.064-7.534 28.965-19.163zM334.994 865.353c11.41 16.384 33.938 20.48 50.322 9.070s20.407-33.865 9.070-50.249c-0.731-1.097-35.109-53.248-8.631-72.265 38.4-27.648 77.531-62.391 76.069-110.665-1.024-37.522-26.551-71.534-77.824-104.009-5.998-3.803-12.654-5.559-19.237-5.559-11.995 0-23.698 5.925-30.574 16.823-10.679 16.823-5.632 39.205 11.191 49.883 32.256 20.407 44.032 36.645 44.251 45.056 0.219 7.387-7.607 22.089-46.007 49.737-67.73 48.64-35.255 133.925-8.631 172.178zM450.779 776.119c-17.042 19.456-24.576 42.715-21.943 67.438 5.851 55.223 62.391 98.743 68.827 103.497 15.945 11.849 38.619 8.558 50.542-7.461s8.631-38.546-7.314-50.542c-15.214-11.41-38.473-36.206-40.229-53.248-0.366-3.73 0.293-7.241 4.535-12.069l8.631-9.728c35.401-39.79 83.822-94.354 79.945-158.72-2.194-34.743-19.163-66.414-50.615-94.208-6.875-6.071-15.433-9.070-23.918-9.070-10.021 0-19.968 4.096-27.063 12.215-13.312 14.921-11.849 37.815 3.072 50.981 16.75 14.848 25.381 29.33 26.258 44.398 2.048 34.377-34.816 75.995-61.806 106.35l-8.923 10.167z" />
<glyph unicode="&#xe907;" glyph-name="6RA-06" d="M755.566 816.786l0.073 0.146c0.219 0.439 0.219 0.731 0.146 1.17 0 0.293-0.073 0.585-0.219 0.805-0.146 0.146-0.439 0.366-0.658 0.585-0.878 0.585-2.121 0.512-2.999-0.512-71.387 38.766-153.161 60.855-239.909 60.855-278.016 0-504.247-226.231-504.247-504.247 0-132.023 50.688-256.805 142.629-351.451 5.12-5.266 11.995-7.973 18.798-7.973 6.583 0 13.166 2.487 18.286 7.461 10.386 10.094 10.606 26.697 0.512 37.083-71.461 73.435-114.907 167.278-125.294 267.995h142.409c12.507 0 22.601 10.094 22.601 22.601s-10.094 22.601-22.601 22.601l-144.896 1.024c0 0.219 0 0.439 0 0.658 0 116.37 44.617 222.281 117.175 302.446l105.618-105.618c8.85-8.85 23.113-8.85 31.963 0s8.85 23.113 0 31.963l-105.691 105.618c74.971 67.877 172.544 110.885 280.137 116.224v-152.21c0-12.507 10.094-22.601 22.601-22.601s22.601 10.094 22.601 22.601v152.21c67.73-3.365 131.438-21.723 188.123-51.785l-4.315-6.583-212.261-324.681c-14.482-2.048-27.136-8.704-36.864-17.993-15.653-14.629-24.137-36.279-21.138-59.099 4.974-37.742 39.643-64.219 77.385-59.246 30.793 4.096 54.199 28.087 58.88 57.344 1.097 6.51 1.17 13.239 0.293 20.041-0.951 7.022-2.926 13.824-5.778 20.041l82.066 191.781 68.974 160.914 4.608 10.606c28.233-16.091 54.857-34.816 78.921-56.466l-106.789-106.789c-8.85-8.85-8.85-23.113 0-31.963s23.113-8.85 31.963 0l106.862 106.862c73.216-80.311 118.345-186.734 118.345-303.762 0-0.219 0-0.439 0-0.658l-144.75-1.024c-12.507 0-22.601-10.094-22.601-22.601s10.094-22.601 22.601-22.601h142.263c-10.313-99.986-53.248-193.243-123.831-266.533-10.021-10.459-9.728-27.063 0.658-37.083 10.459-10.021 27.063-9.728 37.083 0.658 90.99 94.427 141.019 218.624 141.019 349.769-0.073 189.952-105.472 355.401-260.754 441.417z" />
<glyph unicode="&#xe908;" glyph-name="6RA-07" d="M512 879.835c-278.016 0-504.247-226.231-504.247-504.247 0-84.846 21.211-166.619 60.562-239.397l-13.166-8.046c-0.439-0.219-0.585-0.512-0.805-0.878-0.146-0.219-0.293-0.512-0.293-0.805 0.073-0.219 0.146-0.585 0.146-0.878 0.439-1.024 1.463-1.755 2.779-1.317l14.848 5.778c21.358-38.107 47.323-73.874 78.555-105.984 5.12-5.266 11.995-7.973 18.798-7.973 6.583 0 13.166 2.487 18.286 7.461 10.386 10.094 10.606 26.697 0.512 37.083-26.258 26.99-48.64 56.759-67.072 88.576l354.45 138.24c13.019-6.729 27.136-8.704 40.448-6.802 21.211 2.779 40.741 15.506 51.566 35.767 17.847 33.646 5.12 75.264-28.526 93.184-27.502 14.629-60.489 8.704-81.335-12.434-4.681-4.608-8.704-10.094-11.849-16.091-3.365-6.29-5.632-12.946-6.949-19.675l-325.413-197.851c-27.136 51.054-44.617 106.862-50.615 165.157h142.409c12.507 0 22.601 10.094 22.601 22.601s-10.094 22.601-22.601 22.601l-144.896 1.024c0 0.219 0 0.439 0 0.658 0 116.37 44.617 222.281 117.175 302.446l105.618-105.618c8.85-8.85 23.113-8.85 31.963 0s8.85 23.113 0 31.963l-105.691 105.618c74.971 67.877 172.544 110.885 280.137 116.224v-152.21c0-12.507 10.094-22.601 22.601-22.601s22.601 10.094 22.601 22.601v152.21c106.935-5.339 204.069-47.835 278.821-115.054l-106.789-106.789c-8.85-8.85-8.85-23.113 0-31.963s23.113-8.85 31.963 0l106.862 106.862c73.216-80.311 118.345-186.734 118.345-303.762 0-0.219 0-0.439 0-0.658l-144.75-1.024c-12.507 0-22.601-10.094-22.601-22.601s10.094-22.601 22.601-22.601h142.263c-10.313-99.986-53.248-193.243-123.831-266.533-10.021-10.459-9.728-27.063 0.658-37.083 10.459-10.021 27.063-9.728 37.083 0.658 90.99 94.427 141.019 218.624 141.019 349.769 0 278.162-226.231 504.393-504.247 504.393z" />
<glyph unicode="&#xe909;" glyph-name="6RA-08" d="M740.571 901.047c-207.214 104.594-452.974 53.102-602.697-110.080-30.72-33.573-57.49-71.826-78.921-114.395-13.678-27.063-24.649-54.784-33.061-82.871-61.733-205.531 13.824-430.153 187.904-556.398 21.723-15.726 44.983-29.989 69.632-42.423 22.309-11.264 44.983-20.626 68.023-28.379 205.019-68.535 431.982 1.755 562.834 171.959 19.090 24.869 36.206 51.858 50.834 80.896 21.504 42.569 36.352 86.747 45.056 131.438 42.277 217.454-62.318 445.659-269.605 550.254zM933.595 403.895c-2.779-27.063-8.192-54.053-16.457-80.677-6.802-22.455-15.726-44.617-26.624-66.194-13.239-26.185-28.818-50.395-46.299-72.558-5.998-7.607-12.288-14.921-18.798-22.016-106.13-116.37-270.555-165.23-424.009-123.685-1.682 0.439-3.365 0.878-4.974 1.317-25.6 7.241-50.834 16.969-75.41 29.33-24.576 12.434-47.397 26.917-68.389 43.154-1.39 1.024-2.779 2.194-4.096 3.291-124.635 98.743-182.93 259.95-152.357 414.501 0.439 2.341 0.951 4.681 1.463 7.095 0.439 2.414 1.024 4.681 1.536 7.095 0.512 2.194 1.097 4.389 1.609 6.583 0.439 1.829 0.951 3.657 1.463 5.486 0.146 0.658 0.293 1.317 0.512 1.975 0.878 3.218 1.755 6.51 2.779 9.801 0.073 0.293 0.146 0.512 0.219 0.805 0.073 0.219 0.073 0.366 0.073 0.366 0.951 3.145 1.829 6.071 2.779 8.923 1.097 3.291 2.194 6.656 3.365 9.947 0.146 0.366 0.293 0.731 0.439 1.097 1.097 3.145 2.267 6.217 3.365 9.362 0 0 0.146 0.293 0.219 0.512 1.243 3.145 2.414 6.29 3.73 9.362l0.146 0.366 0.073 0.219c0.439 1.024 0.878 1.975 1.243 2.999 0.878 2.194 1.902 4.462 2.853 6.656l0.146 0.146c1.17 2.706 2.341 5.339 3.584 8.046l0.073 0.073c0.731 1.682 1.536 3.291 2.414 4.974 1.024 2.267 2.121 4.462 3.291 6.729 10.898 21.65 23.479 41.984 37.376 60.782 16.53 22.455 35.035 42.862 55.15 61.147 126.171 115.127 315.538 146.944 476.891 65.536s248.247-252.635 230.619-422.546zM272.603 744.594c-40.887-32.987-75.557-75.045-100.791-124.928-13.093-26.039-22.967-52.882-29.696-80.018 58.295-34.45 107.227-94.208 132.169-169.984 24.942-75.849 21.065-152.942-5.486-215.406 21.577-17.92 45.568-33.646 71.68-46.885 25.893-13.093 52.59-22.894 79.579-29.696 34.523 58.514 94.281 107.52 170.203 132.462 75.995 25.015 153.307 21.065 215.845-5.559 17.847 21.504 33.499 45.422 46.665 71.387 25.161 49.883 38.327 102.693 40.594 155.209-89.527 60.27-207.506 135.973-298.13 181.76-90.551 45.641-221.184 95.378-322.633 131.657zM572.635 417.426c-16.896-33.499-57.71-46.958-91.209-30.062s-46.958 57.71-30.062 91.209c16.896 33.499 57.71 46.958 91.209 30.062s46.958-57.71 30.062-91.209z" />
<glyph unicode="&#xe90a;" glyph-name="05MA-09" d="M895.488 812.69c-14.482 37.595-36.206 60.782-65.097 70.875h-636.782c-28.965-10.094-50.688-33.28-65.097-70.875-36.206-104.229-69.486-206.994-107.081-309.687l1.463-361.765v-56.466c0-40.521 33.28-72.338 72.338-72.338 40.521 0 72.411 31.817 72.411 72.338v55.003h688.859v-55.003c0-40.521 31.817-72.338 72.338-72.338 39.058 0 72.338 31.817 72.338 72.338v56.466l1.463 361.765c-37.669 102.766-72.411 205.531-107.154 309.687zM210.944 802.523h600.576l86.821-243.127h-772.754l85.358 243.127zM199.387 293.157c-44.837 0-82.505 37.595-82.505 82.505 0 46.299 37.595 82.505 82.505 82.505 46.299 0 82.505-36.206 82.505-82.505 0-44.91-36.206-82.505-82.505-82.505zM823.15 293.157c-44.837 0-82.505 37.595-82.505 82.505 0 46.299 37.595 82.505 82.505 82.505 46.299 0 82.505-36.206 82.505-82.505 0-44.91-36.206-82.505-82.505-82.505z" />
<glyph unicode="&#xe90b;" glyph-name="7MA-09" d="M662.747 864.695v-97.573c0-40.375 32.768-73.143 73.143-73.143h97.573v-651.337c0-6.144-5.193-11.264-11.264-11.264h-620.69c-5.925 0-10.971 5.193-10.971 11.264v810.789c0 6.217 4.901 11.264 10.971 11.264h461.239zM735.89 937.838h-534.382c-46.373 0-84.114-37.742-84.114-84.407v-810.789c0-46.373 37.742-84.407 84.114-84.407h620.617c46.738 0 84.407 38.034 84.407 84.407v724.48h-170.715v170.715h0.073zM773.778 937.838v-132.827h132.827l-132.827 132.827zM745.399 589.385c-25.893 18.944-62.245 13.385-81.189-12.507l-125.586-171.154-0.219 0.146-68.754-93.696 0.146-0.146-23.771-32.475-77.312 56.686c-25.893 19.017-62.245 13.458-81.262-12.434s-13.385-62.245 12.507-81.262l77.312-56.686-0.073-0.073 93.623-68.681 0.073 0.073 0.073-0.073 68.754 93.696-0.073 0.073 218.551 297.838c18.505 25.893 12.946 61.806-12.8 80.677z" />
<glyph unicode="&#xe90c;" glyph-name="12AU-04" d="M683.447 276.919v0c0.366 0.366 0.439 0.805 0.731 1.097 7.314 7.607 13.312 16.384 17.408 26.258 4.242 10.313 6.51 21.285 6.51 32.256v448.585c0 46.519-37.742 84.261-84.334 84.261-46.519 0-84.261-37.742-84.261-84.261v-245.175l-377.271 377.271c-32.914 32.987-86.235 32.987-119.15 0-16.457-16.457-24.722-37.961-24.722-59.538s8.265-43.154 24.722-59.611l377.271-377.271h-245.248c-46.519 0-84.261-37.742-84.261-84.334 0-46.519 37.742-84.261 84.261-84.261h448.585c11.045 0 22.016 2.194 32.402 6.51 10.24 4.315 19.602 10.459 27.355 18.213zM927.378-45.934h-141.093c-43.227 0-78.19 35.035-78.19 78.19v141.093c0 43.227 35.035 78.19 78.19 78.19h141.093c43.227 0 78.19-35.035 78.19-78.19v-141.093c0.073-43.154-34.962-78.19-78.19-78.19z" />
<glyph unicode="&#xe90d;" glyph-name="12AU-05" d="M1004.837 564.809v0c-0.293 0.219-0.585 0.293-0.878 0.585-5.851 5.705-12.727 10.313-20.334 13.531-7.973 3.291-16.53 5.047-25.015 5.047h-347.941c-36.059 0-65.317-29.257-65.317-65.39 0-36.059 29.257-65.317 65.317-65.317h190.171l-292.571-292.645c-25.6-25.527-25.6-66.853 0-92.379 12.727-12.727 29.403-19.163 46.153-19.163s33.499 6.437 46.226 19.163l292.571 292.645v-190.245c0-36.059 29.257-65.317 65.39-65.317 36.059 0 65.317 29.257 65.317 65.317v347.794c0 8.558-1.682 17.115-5.047 25.088-3.218 8.046-8.046 15.214-14.043 21.285zM19.163 331.191v0c0.293-0.219 0.585-0.293 0.878-0.585 5.851-5.705 12.727-10.313 20.334-13.531 7.973-3.291 16.53-5.047 25.015-5.047h347.941c36.059 0 65.317 29.257 65.317 65.39 0 36.059-29.257 65.317-65.317 65.317h-190.171l292.571 292.645c25.6 25.527 25.6 66.853 0 92.379-12.727 12.873-29.403 19.31-46.153 19.31s-33.499-6.437-46.226-19.163l-292.571-292.645v190.245c0 36.059-29.257 65.317-65.39 65.317s-65.39-29.257-65.39-65.317v-347.941c0-8.558 1.682-17.115 5.047-25.088 3.291-8.046 8.119-15.214 14.117-21.285z" />
<glyph unicode="&#xe90e;" glyph-name="02FO-05" d="M952.613 713.070c10.459 0 20.846-3.95 28.818-11.922 15.945-15.945 15.945-41.765 0-57.71l-448.658-448.585c-15.945-15.945-41.765-15.945-57.71 0l-432.494 432.567c-15.945 15.945-15.945 41.765 0 57.71s41.765 15.945 57.637 0l403.749-403.749 419.84 419.694c7.899 8.046 18.359 11.995 28.818 11.995z" />
<glyph unicode="&#xe90f;" glyph-name="02FO-06" d="M71.387 182.93c-10.459 0-20.846 3.95-28.818 11.922-15.945 15.945-15.945 41.765 0 57.71l448.658 448.585c15.945 15.945 41.765 15.945 57.71 0l432.567-432.567c15.945-15.945 15.945-41.765 0-57.71s-41.765-15.945-57.71 0l-403.749 403.749-419.84-419.694c-7.899-8.046-18.359-11.995-28.818-11.995z" />
<glyph unicode="&#xe910;" glyph-name="01TA-15" d="M296.448-27.429c-12.361 0-24.722 4.754-34.158 14.19-18.871 18.871-18.871 49.445 0 68.315l396.873 397.019-388.827 388.827c-18.871 18.871-18.871 49.445 0 68.315s49.445 18.871 68.315 0l423.058-423.058c18.871-18.871 18.871-49.445 0-68.315l-431.104-431.104c-9.435-9.435-21.797-14.19-34.158-14.19z" />
<glyph unicode="&#xe911;" glyph-name="01TA-14" d="M800.695 923.429c12.361 0 24.722-4.754 34.158-14.19 18.871-18.871 18.871-49.445 0-68.315l-396.873-396.946 388.901-388.901c18.871-18.871 18.871-49.445 0-68.315s-49.445-18.871-68.315 0l-423.131 422.985c-18.871 18.871-18.871 49.445 0 68.315l431.031 431.177c9.509 9.435 21.87 14.19 34.231 14.19z" />
<glyph unicode="&#xe912;" glyph-name="02FO-07" d="M962.56 72.485l-375.589 375.515 375.442 375.515c20.773 20.773 20.773 54.272 0 74.971-20.699 20.773-54.199 20.773-74.971 0l-375.442-375.515-375.515 375.442c-20.773 20.773-54.272 20.773-74.971 0-20.773-20.699-20.773-54.199 0-74.971l375.515-375.442-375.589-375.515c-20.699-20.773-20.699-54.272 0-75.045 10.386-10.313 23.918-15.506 37.522-15.506 13.531 0 27.136 5.193 37.522 15.506l375.515 375.589 375.515-375.515c10.386-10.313 23.918-15.506 37.522-15.506 13.531 0 27.136 5.193 37.522 15.506 20.626 20.699 20.626 54.199 0 74.971z" />
<glyph unicode="&#xe913;" glyph-name="02FO-08" d="M83.675 66.121c-11.045 0-22.089 4.242-30.574 12.654-16.896 16.896-16.896 44.251 0 61.074l311.369 311.369-304.933 304.933c-16.896 16.896-16.896 44.251 0 61.074s44.251 16.896 61.074 0l335.506-335.506c16.896-16.896 16.896-44.251 0-61.074l-341.87-341.87c-8.485-8.485-19.529-12.654-30.574-12.654zM598.455 66.121c-11.045 0-22.089 4.242-30.574 12.654-16.896 16.896-16.896 44.251 0 61.074l311.369 311.369-304.933 304.933c-16.896 16.896-16.896 44.251 0 61.074 16.896 16.896 44.251 16.896 61.074 0l335.506-335.506c16.896-16.896 16.896-44.251 0-61.074l-341.87-341.87c-8.485-8.485-19.529-12.654-30.574-12.654z" />
<glyph unicode="&#xe914;" glyph-name="02FO-09" d="M512 350.647h233.179l-233.179-403.968-233.179 403.968zM512 545.353h-233.179l233.179 403.968 233.179-403.968z" />
<glyph unicode="&#xe915;" glyph-name="04GR-01" d="M618.277 836.462c0 58.734-47.616 106.277-106.277 106.277-58.734 0-106.277-47.616-106.277-106.277s47.543-106.277 106.277-106.277c58.734 0 106.277 47.616 106.277 106.277zM618.277 448c0 58.734-47.616 106.277-106.277 106.277-58.734 0-106.277-47.543-106.277-106.277s47.543-106.277 106.277-106.277c58.734 0 106.277 47.543 106.277 106.277zM618.277 59.538c0 58.734-47.616 106.277-106.277 106.277-58.734 0-106.277-47.616-106.277-106.277s47.543-106.35 106.277-106.35c58.734 0 106.277 47.616 106.277 106.35z" />
<glyph unicode="&#xe916;" glyph-name="04GR-02" d="M913.847 539.867h-581.925l189.147 189.147c35.913 35.913 35.913 94.062 0 129.975s-94.062 35.913-129.975 0l-346.039-346.039c-8.411-8.411-15.141-18.578-19.822-29.842-9.289-22.455-9.289-47.835 0-70.29 4.681-11.191 11.337-21.358 19.822-29.842l345.966-345.966c35.913-35.913 94.062-35.913 129.975 0s35.913 94.062 0 129.975l-189.074 189.074h581.925c25.381 0 48.347 10.313 64.951 26.917 16.603 16.677 26.917 39.643 26.917 65.024 0 50.761-41.106 91.867-91.867 91.867z" />
<glyph unicode="&#xe917;" glyph-name="04GR-03" d="M990.647 522.386l-197.339 168.741-254.391 218.405c-15.653 12.946-38.107 12.946-53.76 0l-255.195-218.405-196.608-168.741c-29.257-25.161-11.557-72.777 26.551-72.777h77.531v-431.397c0-23.113 18.359-41.472 41.472-41.472h213.65v300.032c0 23.113 19.017 42.203 42.203 42.203h153.746c23.845 0 42.203-19.017 42.203-42.203v-300.032h214.309c22.455 0 40.814 18.359 40.814 41.472v431.397h77.531c38.839 0 56.539 47.616 27.282 72.777z" />
<glyph unicode="&#xe918;" glyph-name="4LO-021" d="M344.576 339.822l-93.842-164.425c-0.439-1.243-1.243-2.121-2.121-2.926-0.878-1.243-1.682-2.121-2.56-2.926-2.926-3.803-6.363-7.168-10.533-9.728h-0.439v-0.439c-2.121-1.243-4.681-2.121-7.168-2.926-4.681-1.243-9.289-2.56-13.97-2.56-5.925 0-12.288 1.682-18.213 4.242-0.878 0.439-1.682 0.878-2.56 1.243l-164.791 93.769c-20.334 11.849-27.502 37.669-16.091 57.929 11.849 20.261 37.595 27.502 57.929 15.653l60.416-34.231c-8.485 35.109-13.531 71.022-13.531 107.374 0 221.915 161.938 406.674 373.248 443.026-0.878-2.56-2.121-5.047-2.926-8.046-1.682-5.047-2.926-10.167-3.803-16.896-0.805-3.365-1.243-7.607-1.243-10.606 0-1.682 0-3.803 0.439-5.486 0-3.365 0.439-6.729 1.243-10.167 0.439-2.487 1.243-5.047 2.121-6.29 1.243-4.681 2.56-8.85 4.242-12.654 1.243-2.56 2.56-5.486 3.803-8.046l3.803-6.363c-168.229-32.11-296.375-180.517-296.375-358.473 0-37.23 6.363-73.947 17.335-109.495l52.005 91.282c11.849 20.261 37.595 27.502 57.929 16.091 20.261-11.849 27.502-37.669 15.653-57.929zM1017.125 399.872c0-52.809-9.289-105.253-27.867-154.331-15.214 22.821-41.033 36.791-71.022 36.791h-5.047c12.654 37.595 19.456 77.385 19.456 117.541 0 174.592-123.026 320.439-286.647 356.791l53.687-91.282c11.849-20.261 5.047-46.080-15.214-57.929-6.802-3.803-13.97-5.925-21.577-5.925-14.409 0-28.306 7.607-36.352 21.138l-95.963 163.547c-0.439 0.878-0.439 1.755-0.878 2.56-1.243 2.56-2.121 5.047-2.926 8.046-0.439 1.682-1.317 3.365-1.682 5.047v3.803c0 0.439-0.439 1.243-0.439 1.682 0 0.878 0.439 1.682 0.439 2.56 0.439 4.242 1.243 8.046 2.56 11.849 0.439 0.878 0.439 2.121 0.878 2.926 2.121 4.681 4.681 8.485 8.046 12.288 0.878 0.878 2.121 1.243 2.926 2.121 2.048 1.682 3.73 3.365 6.29 5.047l163.621 95.963c20.261 11.849 46.080 5.047 57.929-15.214 11.41-19.895 5.047-46.080-15.214-57.929l-60.050-35.109c187.246-54.491 325.047-227.401 325.047-431.982zM966.802 8.85c0.439-23.259-17.774-42.715-41.399-43.154 0 0-0.439 0-0.878 0-22.821 0-41.838 18.213-42.277 41.399l-1.682 71.022c-82.871-80.75-195.291-128.073-313.71-128.073-133.998 0-260.827 60.416-344.942 161.938 7.168 0.878 13.531 2.56 19.017 4.242 4.681 1.682 9.728 3.365 15.653 6.729 1.243 0.878 2.926 1.682 4.242 2.926 6.363 4.242 11.849 9.289 16.896 15.653 1.682 1.682 3.803 3.803 5.486 6.729 1.243 1.682 2.926 3.803 4.242 6.363l3.365 6.363c68.462-79.067 169.545-126.391 276.041-126.391 103.131 0 200.411 44.398 268.873 118.784l-104.448-2.121c0 0-0.439 0-0.878 0-22.821 0-41.838 18.213-42.277 41.033-0.439 23.259 18.213 42.715 41.399 43.52l189.806 4.242c21.577 0 36.352-13.531 41.033-31.671 0.439-1.243 0.439-2.56 0.878-3.365 0-2.121 0.878-3.803 1.243-5.925v-0.439l4.315-189.806z" />
<glyph unicode="&#xe919;" glyph-name="06LO-09" d="M673.646 448l295.205 295.205c44.69 44.69 44.69 117.029 0 161.646s-117.029 44.69-161.646 0l-295.205-295.205-295.205 295.205c-44.69 44.69-117.029 44.69-161.646 0s-44.69-117.029 0-161.646l295.205-295.205-295.205-295.205c-44.69-44.69-44.69-117.029 0-161.646 22.309-22.309 51.566-33.499 80.823-33.499s58.514 11.191 80.823 33.499l295.205 295.205 295.205-295.205c22.309-22.309 51.566-33.499 80.823-33.499s58.514 11.191 80.823 33.499c44.69 44.69 44.69 117.029 0 161.646l-295.205 295.205z" />
<glyph unicode="&#xe91a;" glyph-name="06LO-10" d="M951.296 788.773l-439.296-438.93-438.857 438.857c16.603 9.509 35.255 14.263 54.638 14.263h768.951c19.31 0 37.961-4.754 54.565-14.19zM951.296 107.227c-16.603-9.509-35.182-14.263-54.638-14.263h-768.951c-19.383 0-37.961 4.754-54.638 14.263l297.984 298.423 119.515-119.515c5.998-5.925 13.531-8.704 21.431-8.704 8.338 0 15.799 3.145 21.358 8.704l119.515 119.515 298.423-298.423zM1008.274 691.419v-486.766c0-19.383-5.12-37.961-14.263-54.638l-298.35 297.984 297.984 298.423c9.509-16.677 14.629-35.621 14.629-55.003zM328.777 448l-298.423-297.984c-9.509 16.603-14.629 35.255-14.629 54.638v486.766c0 19.383 5.12 38.4 14.629 55.003l298.423-298.423z" />
<glyph unicode="&#xe91b;" glyph-name="01TA-01" d="M995.547 841.362l-22.674-260.096c0-2.121-0.512-4.827-1.097-7.022v-0.512c-5.413-16.75-21.577-28.087-39.351-26.405l-66.926 5.925-193.097 16.677c-32.402 3.218-56.686 30.208-56.686 62.025v5.413c3.218 34.011 33.426 59.392 67.438 56.686l104.155-9.143 8.631-0.512c-68.535 83.017-172.105 135.899-287.598 135.899-94.427 0-181.321-35.035-246.565-94.939-5.925-3.803-11.337-9.216-16.165-14.629-68.023-66.853-109.568-160.183-109.568-262.729 0-55.003 11.849-107.374 33.426-154.331 23.771-52.37 59.319-97.646 103.57-133.778h0.512c63.634-52.882 145.701-84.187 234.715-84.187 141.897 0 266.021 79.872 328.046 196.974 1.609 3.803 4.535 8.631 6.144 11.922 9.143 11.849 21.358 18.871 37.010 20.992 2.194 0.512 4.827 0.512 7.022 0.512 17.774 0 33.426-8.631 43.666-21.577 6.51-9.143 10.825-20.48 10.825-32.914 0-5.413-0.512-10.825-2.706-15.653-2.706-6.51-5.925-12.946-9.728-18.871-80.969-148.407-239.031-249.271-420.279-249.271-212.553 0-393.362 138.679-456.485 330.752-14.994 46.885-23.625 97.061-23.625 149.431 0 51.273 8.119 100.864 23.186 147.31 62.61 192.585 243.346 332.873 456.997 332.873 141.385 0 268.142-61.513 356.133-158.647l1.097 12.946 5.925 69.632c3.218 32.402 30.208 56.686 62.025 56.686h5.413c34.011-3.291 59.904-33.499 56.613-67.438z" />
<glyph unicode="&#xe91c;" glyph-name="01TA-02" d="M909.751-57.637h-795.502c-25.527 0-46.153 20.699-46.153 46.153v0c0 25.527 20.699 46.153 46.153 46.153h795.575c25.527 0 46.153-20.699 46.153-46.153v0c-0.073-25.454-20.699-46.153-46.226-46.153zM736.256 478.72l-192.293-193.682c-5.12-5.12-11.41-9.143-18.578-11.264-1.463-0.439-2.926-0.805-4.389-1.17-2.853-0.585-5.851-0.951-9.070-0.951-7.607 0-14.702 1.829-20.919 5.266-1.39 0.658-2.633 1.463-3.877 2.267s-2.487 1.755-3.73 2.779c-1.243 0.878-2.341 1.902-3.365 3.072l-192.293 193.682c-17.627 17.774-17.627 46.738 0 64.585 17.774 17.774 46.373 17.774 64.073 0l114.834-115.858v480.549c0 25.234 20.334 45.641 45.275 45.641 25.015 0 45.275-20.407 45.275-45.641v-480.622l114.981 115.858c17.627 17.774 46.299 17.774 64.073 0 17.627-17.774 17.627-46.738 0-64.512z" />
<glyph unicode="&#xe91d;" glyph-name="01TA-03" d="M743.131-64h-462.263c-155.867 0-282.551 126.757-282.551 282.478v458.971c0 155.794 126.757 282.551 282.551 282.551h462.19c155.867 0 282.551-126.757 282.551-282.551v-458.971c0.073-155.721-126.683-282.478-282.478-282.478zM280.869 862.793c-102.254 0-185.344-83.163-185.344-185.344v-458.971c0-102.181 83.163-185.344 185.344-185.344h462.19c102.254 0 185.344 83.163 185.344 185.344v458.971c0 102.254-83.163 185.344-185.344 185.344h-462.19z" />
<glyph unicode="&#xe91e;" glyph-name="01TA-04" d="M775.314 960h-526.629c-137.362 0-248.686-111.323-248.686-248.686v-526.629c0-137.362 111.323-248.686 248.686-248.686h526.629c137.362 0 248.686 111.323 248.686 248.686v526.629c0 137.362-111.323 248.686-248.686 248.686zM835.145 675.84l-393.362-547.547c-10.386-14.482-27.063-22.967-44.837-22.967s-34.523 8.558-44.837 22.967l-141.897 197.559c-17.847 24.795-12.142 59.246 12.507 77.093 24.795 17.774 59.319 12.142 77.093-12.654l97.061-135.095 348.526 485.157c17.774 24.795 52.224 30.427 77.093 12.581 24.722-17.774 30.427-52.297 12.654-77.093z" />
<glyph unicode="&#xe91f;" glyph-name="01TA-06" d="M995.621 71.387l-113.006 113.006c51.419 76.069 81.481 167.717 81.481 266.24 0 262.802-213.797 476.672-476.672 476.672s-476.672-213.87-476.672-476.745 213.797-476.672 476.672-476.672c120.978 0 231.278 45.714 315.392 120.247l107.813-107.813c11.703-11.703 27.136-17.627 42.496-17.627s30.72 5.851 42.496 17.627c23.479 23.552 23.479 61.586 0 85.065zM487.424 94.135c-196.535 0-356.425 159.89-356.425 356.498 0 196.535 159.89 356.425 356.425 356.425s356.425-159.89 356.425-356.425c0-196.608-159.89-356.498-356.425-356.498z" />
<glyph unicode="&#xe920;" glyph-name="01TA-09" d="M114.395-45.714c-15.36 0-30.647 5.851-42.35 17.554-23.406 23.406-23.406 61.294 0 84.699l391.387 391.461-391.387 391.461c-23.406 23.406-23.406 61.294 0 84.699s61.294 23.406 84.699 0l433.81-433.81c23.406-23.406 23.406-61.294 0-84.699l-433.81-433.81c-11.703-11.703-27.063-17.554-42.35-17.554zM909.605-45.714c-33.134 0-59.904 26.77-59.904 59.904v867.621c0 33.134 26.77 59.904 59.904 59.904s59.904-26.77 59.904-59.904v-867.621c0-33.134-26.77-59.904-59.904-59.904z" />
<glyph unicode="&#xe921;" glyph-name="01TA-08" d="M909.605 941.714c15.36 0 30.647-5.851 42.35-17.554 23.406-23.406 23.406-61.294 0-84.699l-391.387-391.461 391.461-391.461c23.406-23.406 23.406-61.294 0-84.699s-61.294-23.406-84.699 0l-433.81 433.81c-23.406 23.406-23.406 61.294 0 84.699l433.81 433.81c11.63 11.703 26.99 17.554 42.277 17.554zM114.395 941.714c33.134 0 59.904-26.77 59.904-59.904v-867.621c0-33.134-26.77-59.904-59.904-59.904s-59.904 26.77-59.904 59.904v867.621c0 33.134 26.77 59.904 59.904 59.904z" />
<glyph unicode="&#xe922;" glyph-name="01TA-07" d="M853.797 846.775h-246.857v75.922c-2.341 11.264-12.434 19.237-23.918 19.017h-142.043c-11.483 0.219-21.577-7.753-23.918-19.017v-75.922h-246.857c-7.973 2.194-16.238-2.487-18.432-10.459-0.366-1.317-0.585-2.633-0.585-3.95v-97.646c-1.024-10.459 6.583-19.749 17.042-20.773 0.658-0.073 1.317-0.073 1.975-0.073h683.593c10.459-0.073 19.017 8.411 19.090 18.871 0 0.658 0 1.317-0.073 1.975v97.646c0 8.265-6.729 14.994-15.067 14.994-1.317-0.073-2.633-0.219-3.95-0.585zM800.037 656.896h-576.073c-5.266 0-9.509-4.242-9.509-9.509v-0.366l25.454-673.719c0-10.459 8.485-19.017 19.017-19.017h495.25c10.094 0 18.505 7.899 19.017 18.066l36.425 674.67c0.219 5.266-3.877 9.655-9.143 9.874h-0.439zM436.078 125.221h-38.034v341.797h37.961v-341.797zM625.957 125.221h-38.034v341.797h37.961v-341.797z" />
<glyph unicode="&#xe923;" glyph-name="01TA-10" d="M1005.714 448c0-272.671-221.043-493.714-493.714-493.714s-493.714 221.043-493.714 493.714c0 272.671 221.043 493.714 493.714 493.714s493.714-221.043 493.714-493.714z" />
<glyph unicode="&#xe924;" glyph-name="01TA-11" d="M512 868.571c231.936 0 420.571-188.635 420.571-420.571s-188.635-420.571-420.571-420.571-420.571 188.635-420.571 420.571 188.635 420.571 420.571 420.571zM512 941.714c-272.677 0-493.714-221.038-493.714-493.714s221.038-493.714 493.714-493.714 493.714 221.038 493.714 493.714-221.038 493.714-493.714 493.714v0z" />
<glyph unicode="&#xe925;" glyph-name="01TA-12" d="M67.072 630.053v-605.769c0-45.202 36.206-81.847 80.896-81.847h728.064c44.69 0 80.896 36.645 80.896 81.847v605.769h-889.856zM289.499 3.072h-161.792v161.792h161.792v-161.792zM289.499 205.312h-161.792v161.792h161.792v-161.792zM289.499 407.552h-161.792v161.792h161.792v-161.792zM491.739 3.072h-161.792v161.792h161.792v-161.792zM491.739 205.312h-161.792v161.792h161.792v-161.792zM491.739 407.552h-161.792v161.792h161.792v-161.792zM694.053 3.072h-161.792v161.792h161.792v-161.792zM694.053 205.312h-161.792v161.792h161.792v-161.792zM694.053 407.552h-161.792v161.792h161.792v-161.792zM896.293 3.072h-161.792v161.792h161.792v-161.792zM896.293 205.312h-161.792v161.792h161.792v-161.792zM896.293 407.552h-161.792v161.792h161.792v-161.792zM876.032 832.293h-131.438v90.99c0 16.75-13.605 30.354-30.354 30.354s-30.354-13.605-30.354-30.354v-90.99h-343.771v90.99c0 16.75-13.605 30.354-30.354 30.354s-30.354-13.605-30.354-30.354v-90.99h-131.438c-44.69 0-80.896-36.645-80.896-81.847v-79.945h889.856v79.945c0 45.202-36.206 81.847-80.896 81.847zM309.76 690.688c-33.499 0-60.709 27.136-60.709 60.709 0 22.455 12.215 41.984 30.354 52.517v-52.517c0-16.75 13.605-30.354 30.354-30.354s30.354 13.605 30.354 30.354v52.443c18.139-10.533 30.354-30.062 30.354-52.517-0.073-33.426-27.209-60.635-60.709-60.635zM714.24 690.688c-33.499 0-60.709 27.136-60.709 60.709 0 22.455 12.215 41.984 30.354 52.517v-52.517c0-16.75 13.605-30.354 30.354-30.354s30.354 13.605 30.354 30.354v52.443c18.139-10.533 30.354-30.062 30.354-52.517 0-33.426-27.209-60.635-60.709-60.635z" />
<glyph unicode="&#xe926;" glyph-name="01TA-13" d="M920.064 545.938h-310.053v310.126c0 54.126-43.813 98.011-98.011 98.011s-98.011-43.886-98.011-98.011v-310.126h-310.126c-54.126 0-98.011-43.886-98.011-98.011s43.813-98.011 98.011-98.011h310.126v-310.053c0-54.126 43.813-98.011 98.011-98.011s98.011 43.886 98.011 98.011v310.126h310.126c54.126 0 98.011 43.886 98.011 98.011s-43.886 97.938-98.085 97.938z" />
<glyph unicode="&#xe927;" glyph-name="7MA-10" d="M662.747 864.695v-97.573c0-40.375 32.768-73.143 73.143-73.143h97.573v-651.337c0-6.144-5.193-11.264-11.264-11.264h-620.69c-5.925 0-10.971 5.193-10.971 11.264v810.789c0 6.217 4.901 11.264 10.971 11.264h461.239zM735.89 937.838h-534.382c-46.373 0-84.114-37.742-84.114-84.407v-810.789c0-46.373 37.742-84.407 84.114-84.407h620.617c46.738 0 84.407 38.034 84.407 84.407v724.48h-170.715v170.715h0.073zM773.778 937.838v-132.827h132.827l-132.827 132.827zM591.726 399.799l145.554 145.554c22.016 22.016 22.016 57.71 0 79.726s-57.71 22.016-79.726 0l-145.554-145.554-145.554 145.554c-22.016 22.016-57.71 22.016-79.726 0s-22.016-57.71 0-79.726l145.554-145.554-145.554-145.554c-22.016-22.016-22.016-57.71 0-79.726 11.045-11.045 25.454-16.53 39.863-16.53s28.818 5.486 39.863 16.53l145.554 145.627 145.554-145.554c11.045-11.045 25.454-16.53 39.863-16.53s28.818 5.486 39.863 16.53c22.016 22.016 22.016 57.71 0 79.726l-145.554 145.481z" />
<glyph unicode="&#xe928;" glyph-name="03ME-01" d="M28.818 376.174h413.623c15.506 0 28.014 12.581 28.014 28.014v526.994c0 15.506-12.581 28.014-28.014 28.014h-413.623c-15.506 0-28.014-12.581-28.014-28.014v-526.994c0-15.433 12.507-28.014 28.014-28.014zM553.545 931.182v-297.984c0-15.506 12.581-28.014 28.014-28.014h413.623c15.506 0 28.014 12.581 28.014 28.014v297.984c0 15.506-12.581 28.014-28.014 28.014h-413.55c-15.506 0-28.087-12.507-28.087-28.014zM581.632-63.195h413.623c15.506 0 28.014 12.581 28.014 28.014v526.921c0 15.506-12.581 28.014-28.014 28.014h-413.623c-15.506 0-28.014-12.581-28.014-28.014v-526.994c-0.073-15.433 12.507-27.941 28.014-27.941zM28.818-63.195h413.623c15.506 0 28.014 12.581 28.014 28.014v297.984c0 15.506-12.581 28.014-28.014 28.014h-413.623c-15.506 0-28.014-12.581-28.014-28.014v-297.984c0-15.506 12.507-28.014 28.014-28.014z" />
<glyph unicode="&#xe929;" glyph-name="03ME-02" d="M512 960c-179.712 0-325.486-145.701-325.486-325.486 0-149.065 223.744-550.912 300.178-683.886 11.191-19.529 39.351-19.529 50.542 0 76.434 132.974 300.178 534.894 300.178 683.886 0.073 179.785-145.701 325.486-325.413 325.486zM580.242 509.586c-130.853-60.928-258.121 66.267-197.193 197.12 12.434 26.697 34.011 48.274 60.635 60.709 130.853 61.074 258.267-66.267 197.266-197.193-12.434-26.624-34.011-48.201-60.709-60.635z" />
<glyph unicode="&#xe92a;" glyph-name="03ME-03" d="M852.407 852.187h-151.845v28.526c0 12.654-10.24 22.821-22.821 22.821h-67.365v23.552c0 12.581-10.24 22.747-22.821 22.747h-151.479c-0.731 0.073-1.463 0.073-2.121 0-11.776-1.024-20.773-10.971-20.699-22.747v-23.552h-66.999c-12.654 0-22.821-10.24-22.821-22.821v-28.526h-151.845c-12.654 0-22.821-10.24-22.821-22.821v-860.453c0-12.654 10.24-22.821 22.821-22.821h680.814c12.654 0 22.821 10.24 22.821 22.821v860.453c0 12.654-10.167 22.821-22.821 22.821zM369.006 857.893h66.999c12.654 0 22.821 10.24 22.821 22.821v23.552h105.838v-23.552c0-12.654 10.24-22.821 22.821-22.821h67.365v-57.71h-285.842v57.71zM761.929 158.866h-499.858c-8.485 0-15.36 6.875-15.36 15.36s6.875 15.36 15.36 15.36h499.785c8.485 0 15.36-6.875 15.36-15.36s-6.875-15.36-15.287-15.36zM761.929 329.874h-499.858c-8.485 0-15.36 6.875-15.36 15.36s6.875 15.36 15.36 15.36h499.785c8.485 0 15.36-6.875 15.36-15.36s-6.875-15.36-15.287-15.36zM761.929 575.195h-125.733c-5.266 0-10.24 2.779-13.093 7.314l-4.754 7.753-13.166 21.504-41.984-68.535c-2.926-4.827-8.338-7.68-13.97-7.314-5.705 0.366-10.752 3.803-13.019 8.997l-20.407 45.129-17.481 38.473-18.359-38.546-38.4-80.457c-2.414-4.974-7.314-8.338-12.873-8.704-0.293 0-0.658 0-0.951 0-5.193 0-10.021 2.633-12.873 7.022l-42.862 66.414h-109.934c-8.485 0-15.36 6.875-15.36 15.36s6.875 15.36 15.36 15.36h118.272c5.193 0 10.094-2.633 12.873-7.022l32.475-50.322 20.187 42.277 38.985 81.554c2.56 5.339 7.899 8.704 13.824 8.704h0.146c5.925-0.073 11.337-3.584 13.824-8.997l36.718-81.042 2.779-6.217 3.803 6.217 36.133 58.953c2.779 4.535 7.68 7.314 13.093 7.314 5.339 0 10.313-2.779 13.093-7.314l26.551-43.227h117.102c8.485 0 15.36-6.875 15.36-15.36s-6.949-15.287-15.36-15.287z" />
<glyph unicode="&#xe92b;" glyph-name="03ME-12" d="M859.282 628.151h-70.949c-16.311 137.070-132.681 242.981-274.286 242.981-141.531 0-257.902-105.911-274.213-242.981h-70.949c16.75 175.982 164.791 313.563 345.161 313.563 180.443 0 328.485-137.582 345.234-313.563zM239.47 591.287h-74.533c-52.37 0-94.647-49.079-94.647-109.787v-159.963c0-60.709 42.277-109.787 94.647-109.787h74.533c17.115 0 30.208 15.141 30.208 35.035v309.467c0 19.895-13.093 35.035-30.208 35.035zM859.063 591.287h-74.459c-17.115 0-30.208-15.214-30.208-35.035v-309.467c0-19.822 13.093-35.035 30.208-35.035h74.459c5.486 0 10.825 0.512 16.091 1.609 44.69 8.85 78.555 53.833 78.555 108.178v160.037c0 60.635-42.277 109.714-94.647 109.714zM638.025 47.104c-5.12-19.822-15.287-38.254-29.989-52.882-23.479-25.893-57.563-39.936-92.818-39.936-71.68 0-129.243 57.563-129.243 128.073 0 70.583 57.563 128.146 128.073 128.146 58.514 0 108.178-39.717 123.319-92.891 3.145-10.898 4.754-22.309 4.754-34.085 0.512-12.288-0.878-24.576-4.096-36.425zM571.611 81.189v1.17c0 31.744-25.819 57.637-57.563 57.637s-57.563-25.893-57.563-57.637c0-31.744 27.063-57.563 58.734-57.563 16.457 0 31.744 5.851 42.277 17.627 9.435 10.606 15.36 23.479 14.117 38.766zM791.991 171.739c-13.678-31.817-45.275-54.126-82.139-54.126h-29.403c2.706-10.898 4.096-22.235 4.096-33.865 0.439-12.361-0.658-24.722-3.438-36.645h28.745c62.171 0 116.151 35.621 142.555 87.625 5.925 11.557 10.459 23.991 13.312 37.010h-73.728z" />
<glyph unicode="&#xe92c;" glyph-name="13PA-04" d="M852.48 959.561l-317.074 0.293c-712.046 0-712.046-1023.854 0-1023.854l487.205 1.17v371.931h-470.894c-183.589 0-183.589 277.65 0 277.65l470.894 0.805v372.297l-106.789 0.146-33.719-21.285c-5.851 5.632-13.019 1.463-14.629 0.439-6.363-3.95-9.289-8.558-6.217-13.458 8.411-13.605 61.806 32.11 84.626-4.827 12.654-20.48 5.266-44.251-29.038-65.536-21.431-13.239-49.298-20.846-64.585 0.585l35.328 21.87c6.217-3.803 12.727-3.218 17.335-0.146 5.632 3.657 10.606 9.143 6.363 16.091-9.728 15.799-59.246-32.256-82.871 5.925-15.579 25.161 4.681 47.909 24.064 59.904zM318.171 488.887l-34.45-21.285-8.777 6.949c-2.779-13.678-7.826-21.138-23.186-30.574-20.334-12.581-41.691-7.68-59.173 20.553l-37.010 59.904 37.083 22.967 32.914-53.102c8.411-13.531 15.506-15.067 24.43-9.509 10.679 6.583 8.85 17.042-0.585 32.329l-29.257 47.25 37.083 22.967 60.928-98.45zM274.066 597.65l34.011 21.065 8.923-7.095c0 16.311 17.042 28.526 27.355 32.768 10.898 5.047 23.771 3.657 33.28-3.657 1.243 30.793 23.113 39.643 29.403 42.423 24.503 10.825 39.57-1.39 54.272-25.161l36.059-58.222-37.083-22.967-31.013 50.176c-8.411 13.605-14.848 18.798-25.015 12.507-10.898-6.729-6.875-18.066 0.439-29.842l30.135-48.64-37.083-23.040-31.086 50.176c-8.923 14.482-14.482 19.017-25.015 12.507-10.898-6.729-6.875-17.993 0.439-29.769l30.135-48.64-37.157-22.967-61.001 98.377zM694.857 721.993l-60.928 98.45 37.083 22.967 60.928-98.45-37.083-22.967zM608.987 860.818l37.083 22.967 17.189-27.794-37.083-23.040-17.189 27.867zM690.834 855.625l33.938 20.992 10.898-7.387c1.463 18.066 13.093 28.014 26.99 33.938 21.723 9.289 39.424 0.146 54.418-24.064l36.498-58.953-37.083-22.967-32.183 52.005c-6.217 9.947-13.751 16.969-24.43 10.386-11.41-7.095-9.655-16.603-1.902-29.257l31.013-50.103-37.083-22.967-61.074 98.377zM157.33 389.486c-99.986-61.952-190.464 82.505-90.478 144.384l45.422 27.794 23.406-37.815-39.863-24.43c-49.737-30.647-3.877-98.45 42.789-69.193l39.863 24.503 23.406-37.815-44.544-27.429zM452.462 708.096l34.011 21.065 8.923-7.095c0 16.238 17.115 28.453 27.355 32.695 10.971 5.047 23.698 3.657 33.28-3.657 1.243 30.793 23.113 39.643 29.33 42.423 24.576 10.825 39.643-1.317 54.345-25.161l36.059-58.222-37.083-22.894-31.013 50.103c-8.411 13.605-14.848 18.871-25.015 12.581-10.898-6.802-6.875-18.066 0.439-29.915l30.135-48.64-37.157-22.967-31.013 50.176c-8.923 14.409-14.482 19.017-25.088 12.507-10.898-6.729-6.875-17.993 0.512-29.842l30.135-48.64-37.157-22.967-61.001 98.45z" />
<glyph unicode="&#xe92d;" glyph-name="13PA-05" d="M103.643 540.599c-51.127 0-92.599-41.472-92.599-92.599s41.472-92.599 92.599-92.599c51.127 0 92.599 41.472 92.599 92.599s-41.472 92.599-92.599 92.599zM512 540.599c-51.127 0-92.599-41.472-92.599-92.599s41.472-92.599 92.599-92.599c51.127 0 92.599 41.472 92.599 92.599s-41.472 92.599-92.599 92.599zM920.357 540.599c-51.127 0-92.599-41.472-92.599-92.599s41.472-92.599 92.599-92.599c51.127 0 92.599 41.472 92.599 92.599s-41.472 92.599-92.599 92.599z" />
<glyph unicode="&#xe92e;" glyph-name="13PA-06" d="M512 923.429c-114.176 0-191.781-90.331-191.781-201.801 0-111.397 77.605-201.801 191.781-201.801s191.781 90.331 191.781 201.801c0 111.47-77.605 201.801-191.781 201.801zM512 473.527c-0.512 0-1.024 0.073-1.536 0.073v-0.146c-184.905-1.609-334.336-148.261-334.336-329.143 2.56-53.175 21.211-112.786 51.419-146.871 29.038-34.45 557.934-31.89 568.978 0 30.281 34.085 48.859 93.696 51.419 146.871 0 180.882-149.431 327.534-334.336 329.143v0.219c-0.585 0-1.097-0.146-1.609-0.146z" />
<glyph unicode="&#xe92f;" glyph-name="13PA-07" d="M512.805 429.714c126.025 0 228.133 102.107 228.133 228.133s-102.107 228.133-228.133 228.133-228.133-102.181-228.133-228.133c0-126.025 102.181-228.133 228.133-228.133zM517.778 498.907v0c-0.293 0-0.512 0-0.805 0 0.219 0 0.512 0 0.805 0zM715.045 472.357c-49.883-54.272-121.271-88.576-200.704-88.576-80.75 0-153.234 35.474-203.264 91.429-150.309-75.557-192.219-216.722-203.483-302.373 104.96-100.645 247.077-162.816 403.968-162.816 157.257 0 299.666 62.464 404.699 163.474-23.113 165.157-109.495 253.294-201.216 298.862z" />
<glyph unicode="&#xe930;" glyph-name="13PA-08" d="M512 942.446c-273.115 0-494.446-221.403-494.446-494.446s221.33-494.446 494.446-494.446c273.042 0 494.446 221.403 494.446 494.446s-221.33 494.446-494.446 494.446zM512-13.239c-254.683 0-461.239 206.482-461.239 461.239 0 254.683 206.482 461.239 461.239 461.239s461.239-206.482 461.239-461.239c0-254.683-206.555-461.239-461.239-461.239zM512.878 664.064c-93.33 0-169.033-75.703-169.033-169.033s75.703-169.033 169.033-169.033c93.33 0 169.033 75.703 169.033 169.033s-75.703 169.033-169.033 169.033zM516.535 377.271c-0.219 0-0.366 0-0.585 0 0.219-0.073 0.366 0 0.585 0v0zM811.886 136.119c-77.824-74.898-183.369-121.125-299.886-121.125-116.224 0-221.55 46.080-299.374 120.613 8.338 63.488 39.351 168.009 150.747 224.037 37.083-41.472 90.77-67.73 150.601-67.73 58.807 0 111.762 25.454 148.699 65.682 68.023-33.792 132.023-99.109 149.211-221.477z" />
<glyph unicode="&#xe931;" glyph-name="13PA-09" d="M511.561 942.446c-142.336 0-239.104-111.031-239.104-247.881 0-136.923 96.695-247.954 239.104-247.954 142.263 0 239.031 111.031 239.031 247.954 0.073 136.85-96.695 247.881-239.031 247.881zM519.168 475.721c-0.293 0-0.585 0-0.878 0 0.293 0 0.585 0 0.878 0v0zM594.725 421.961l-63.707-64.585 3.877-21.285v-0.073l69.851-382.464c120.686 17.627 230.254 68.901 318.683 144.603-30.427 162.304-161.426 290.816-328.704 323.803zM492.032 357.376l-2.853 2.926-60.855 61.659c-110.007-21.723-204.361-84.773-264.777-171.593-31.159-44.763-52.517-96.11-62.976-151.113 88.21-75.776 197.413-127.269 317.879-145.335l69.778 382.245 3.803 21.211z" />
<glyph unicode="&#xe932;" glyph-name="13PA-10" d="M512 947.712c-275.968 0-499.712-223.744-499.712-499.712s223.744-499.712 499.712-499.712c275.968 0 499.712 223.744 499.712 499.712s-223.744 499.712-499.712 499.712zM512-18.139c-257.463 0-466.139 208.677-466.139 466.139s208.677 466.139 466.139 466.139c257.463 0 466.139-208.677 466.139-466.139 0-257.39-208.677-466.139-466.139-466.139zM511.342 699.026c-98.377 0-165.303-76.727-165.303-171.374s66.853-171.374 165.303-171.374c98.377 0 165.23 76.727 165.23 171.374s-66.853 171.374-165.23 171.374zM516.608 376.466c-0.219 0-0.439 0-0.658 0 0.219 0 0.439 0 0.658 0v0zM568.832 339.31l-44.032-44.617 2.706-14.775 48.274-264.338c83.383 12.215 159.159 47.616 220.306 99.986-21.138 112.055-111.616 200.923-227.255 223.744zM497.81 294.693l-1.975 1.975-42.057 42.642c-76.069-14.994-141.312-58.587-183.003-118.638-21.504-30.939-36.279-66.487-43.52-104.448 61.001-52.37 136.485-87.991 219.721-100.425l48.201 264.192 2.633 14.702z" />
<glyph unicode="&#xe933;" glyph-name="02FO-10" d="M7.314 886.857l504.686-877.714 504.686 877.714z" />
<glyph unicode="&#xe934;" glyph-name="02FO-11" d="M1016.686 9.143l-504.686 877.714-504.686-877.714z" />
<glyph unicode="&#xe935;" glyph-name="7MA-15" d="M365.714 535.771c7.314 14.629 21.943 21.943 36.571 29.257s21.943 29.257 7.314 43.886c-14.629 21.943-29.257 29.257-51.2 14.629-7.314-7.314-21.943-14.629-29.257-29.257-7.314 0-14.629-7.314-14.629-7.314-14.629-14.629-7.314-36.571 0-51.2 14.629-14.629 36.571-7.314 51.2 0zM680.229 374.857c-7.314-14.629 7.314-36.571 21.943-36.571 14.629-7.314 36.571 7.314 43.886 21.943 7.314 21.943 7.314 36.571 7.314 58.514 0 0 0 7.314 0 7.314 0 21.943-14.629 29.257-36.571 29.257-7.314 0-14.629 0-21.943-7.314s-14.629-14.629-14.629-29.257c0-14.629 0-29.257 0-43.886zM321.829 418.743c0 14.629 0 21.943 0 36.571 0 21.943-7.314 36.571-29.257 36.571-14.629 0-21.943 0-29.257-7.314 0 0-7.314-7.314-7.314-14.629 0-14.629-7.314-29.257-7.314-51.2 0-7.314 0-7.314 0-14.629 7.314-14.629 21.943-29.257 43.886-29.257s29.257 14.629 29.257 36.571c0 0 0 7.314 0 7.314zM687.543 250.514c14.629 14.629 14.629 36.571 0 51.2s-36.571 14.629-51.2 0l-7.314-7.314c-7.314-14.629-21.943-21.943-29.257-29.257 0 0-7.314 0-7.314-7.314-14.629-7.314-14.629-21.943-7.314-36.571s29.257-21.943 43.886-7.314c21.943 7.314 36.571 14.629 58.514 36.571v0zM380.343 287.086v0c-14.629 14.629-21.943 21.943-29.257 36.571s-29.257 21.943-51.2 7.314c0 0-7.314 0-7.314-7.314-7.314-7.314-7.314-21.943 0-36.571s21.943-29.257 29.257-36.571c0 0 7.314-7.314 7.314-7.314 14.629-14.629 36.571-7.314 51.2 0s14.629 29.257 0 43.886zM512 243.2h-7.314c-14.629 0-29.257 0-36.571 7.314-14.629 0-21.943 0-29.257-7.314-14.629-14.629-14.629-14.629-14.629-21.943-7.314-21.943 7.314-36.571 29.257-43.886 14.629-7.314 36.571-7.314 51.2-7.314h14.629c21.943 0 36.571 14.629 29.257 36.571s-21.943 36.571-36.571 36.571zM563.2 565.029l102.4 29.257c7.314 0 7.314 14.629 7.314 21.943l-87.771 73.143c-7.314 7.314-14.629 0-14.629-7.314l-7.314-21.943c-21.943 7.314-36.571 7.314-58.514 7.314-7.314 0-14.629 0-21.943 0s-14.629 0-21.943-7.314c-7.314-7.314-14.629-14.629-7.314-29.257 0-21.943 14.629-29.257 36.571-29.257 7.314 0 7.314 0 14.629 0 14.629 0 29.257 0 43.886-7.314 0 0 0 0 0 0v-21.943c-7.314-7.314 0-14.629 14.629-7.314zM665.6 864.914v-95.086c0-43.886 29.257-73.143 73.143-73.143h95.086v-650.971c0-7.314-7.314-14.629-14.629-14.629h-614.4c-7.314 0-7.314 7.314-7.314 14.629v804.571c0 7.314 7.314 14.629 7.314 14.629h460.8zM738.743 938.057h-533.943c-43.886 0-87.771-36.571-87.771-87.771v-811.886c0-43.886 36.571-87.771 87.771-87.771h621.714c43.886 0 87.771 36.571 87.771 87.771v731.429h-168.229v168.229h-7.314zM775.314 938.057v-131.657h131.657z" />
<glyph unicode="&#xe936;" glyph-name="4LO-05" d="M908.215 485.815c-14.263-4.901-29.184-8.265-44.544-9.728-6.437-0.658-13.093-1.097-19.456-1.097-3.218 0-6.51 0.146-9.728 0.293 0.658-9.070 1.097-18.139 1.097-27.209 0-26.112-2.633-51.639-7.753-76.142-1.755-8.411-3.73-16.823-5.998-25.088-37.742-134.802-148.553-239.323-286.939-267.922-1.609-0.293-3.072-0.658-4.535-0.951-23.186-4.535-47.177-6.802-71.607-6.802-24.503 0-48.421 2.267-71.607 6.802-1.463 0.293-3.072 0.658-4.535 0.951-138.386 28.526-249.198 133.047-286.866 267.922-0.658 2.121-1.17 4.169-1.682 6.29-0.585 1.975-1.097 4.096-1.536 6.144-0.512 1.975-1.097 4.023-1.463 5.998-0.219 1.609-0.658 3.218-1.024 4.754-0.146 0.731-0.293 1.243-0.439 1.902-0.512 2.926-1.17 5.851-1.682 8.777l-0.146 0.805c0 0.146 0 0.366 0 0.366-0.512 2.853-0.951 5.486-1.317 8.192-0.585 3.072-0.951 6.144-1.39 9.216 0 0-0.146 0.658-0.146 1.097-0.366 2.926-0.658 5.851-1.097 8.777v0.366c-0.219 3.072-0.439 5.998-0.731 9.070v0.512c-0.146 0.951-0.146 1.902-0.293 2.853-0.073 2.121-0.219 4.242-0.366 6.51v0.146c-0.146 2.487-0.293 5.193-0.293 7.68v0.146c-0.146 1.609-0.146 3.218-0.146 4.974-0.073 2.121-0.073 4.389-0.073 6.656 0 21.504 1.902 42.642 5.339 63.195 4.169 24.43 10.679 47.982 19.31 70.51 53.979 141.897 191.488 242.981 352.183 242.981 76.654 0 148.114-22.967 207.653-62.537 11.045 22.382 26.405 42.569 44.91 59.099-72.192 49.225-158.939 77.751-252.562 77.751-206.263 0-380.855-139.191-434.176-328.704-11.118-38.985-16.969-80.018-16.969-122.295 0-26.917 2.414-53.321 6.949-79.067 33.353-187.758 183.223-335.799 371.931-366.299 23.625-3.73 47.762-5.705 72.265-5.705 22.162 0 44.032 1.609 65.317 4.681 190.171 27.721 342.016 174.446 377.783 361.911 5.193 27.355 7.973 55.589 7.973 84.553 0 12.581-0.512 25.234-1.609 37.669zM796.233 480.841c-62.171 15.433-112.786 60.27-136.265 118.784-69.925 7.095-142.702 12.581-201.216 12.581-90.112 0-213.723-12.8-308.663-24.649-19.31-42.642-29.989-89.746-29.989-139.483 0-26.039 2.926-51.2 8.411-75.483 60.050-4.023 122.734-31.744 172.837-81.847 50.249-50.249 78.043-112.933 81.993-173.202 24.283-5.486 49.591-8.411 75.63-8.411 25.893 0 50.907 2.779 75.045 8.265 4.023 60.27 31.744 123.099 81.993 173.349s113.225 78.043 173.495 81.993c5.486 24.137 8.411 49.371 8.411 75.337 0.073 11.045-0.512 22.016-1.682 32.768zM458.752 387.657c-33.353 0-60.416 27.063-60.416 60.416s27.063 60.27 60.416 60.27c33.353 0 60.416-26.917 60.416-60.27s-27.063-60.416-60.416-60.416zM867.694 680.448l-28.672 62.245c-2.267 4.754-6.875 8.046-11.922 8.485-1.829 0.219-3.438 0.073-4.023-0.146-1.536-0.146-2.926-0.585-4.023-1.097-7.314-3.438-10.533-11.995-7.168-19.602l25.527-55.296-33.426-51.639c-2.194-3.291-2.926-7.241-2.121-11.045 0.805-3.877 3.072-7.168 6.437-9.362 2.048-1.317 4.462-2.194 5.559-2.048l2.706-0.293c1.17 0 2.341 0.146 2.706 0.293 3.95 0.585 7.387 2.853 9.728 6.363l37.888 58.514c1.536 2.341 2.341 5.12 2.341 8.046 0 1.17-0.146 2.414-0.439 3.511-0.293 1.243-0.731 2.267-1.097 3.072zM812.032 608.549v0 0 0zM1015.515 690.688c-6.583 67.584-53.321 125.221-117.467 146.432l0.293 0.366-10.021 2.706c-0.658 0.146-1.317 0.293-2.633 0.512-5.047 1.243-10.094 2.267-15.287 2.999l-1.682 0.293c-1.317 0.219-2.633 0.439-4.023 0.585-7.461 0.878-14.19 1.317-20.48 1.317-94.866 0-172.105-77.166-172.105-172.105s77.166-172.105 172.105-172.105c5.705 0 11.337 0.293 16.896 0.878 68.169 6.656 126.171 54.053 146.944 119.077l3.072 10.825c1.243 4.974 2.267 10.021 2.999 15.214l0.293 1.682c0.219 1.317 0.439 2.633 0.585 4.023 0.878 7.534 1.317 14.19 1.317 20.48 0.073 5.705-0.219 11.264-0.805 16.823zM924.014 591.506c-2.121-1.975-3.438-4.608-3.584-7.168-0.073-0.805-0.293-2.121 0-3.657 0.293-2.706 1.536-5.047 3.365-6.729l10.825-10.825c-21.504-17.554-47.835-28.453-75.41-31.378v28.087c0 0.805-0.146 1.609-0.439 2.414h0.073c-0.293 2.048-1.243 3.365-1.463 3.584-0.439 1.097-1.17 2.779-2.487 4.096-1.755 1.902-3.73 2.853-5.632 3.511-0.512 0.293-1.097 0.512-1.975 0.731-0.658 0.293-1.682 0.658-2.999 0.658l-4.681-1.024-0.658-0.512c-1.39-0.512-3.438-1.39-4.974-3.145-1.536-1.536-2.194-3.145-2.414-3.877l-1.463-2.267-0.658-32.11c-6.29 0.658-12.434 1.682-18.213 2.999-2.048 0.512-3.95 1.17-5.925 1.902-1.39 0.512-2.706 0.951-4.096 1.39l-3.73 1.17c-3.438 1.024-6.802 2.048-10.094 3.438-2.706 1.17-5.266 2.633-7.753 4.096l-7.241 3.95c-2.267 1.17-4.535 2.341-6.656 3.73-2.779 1.829-5.339 4.023-7.899 6.144l-5.266 4.242 8.704 8.704c1.829 1.829 2.999 4.169 3.365 6.875 0.146 0.951 0.146 1.902 0.073 2.853 1.024 4.023 0 7.973-2.779 10.752-1.975 2.121-4.608 3.438-7.241 3.584-0.805 0.073-2.048 0.293-3.511 0-2.706-0.366-5.047-1.536-6.729-3.438l-10.533-10.533c-0.293 0.439-0.658 0.878-0.951 1.243l-4.535 5.998c-1.463 1.755-2.926 3.511-4.169 5.486-1.829 2.853-3.365 5.925-4.901 8.997l-1.682 3.291c-0.658 1.243-1.317 2.414-1.975 3.657-0.951 1.755-1.975 3.511-2.853 5.413-1.682 3.877-2.853 8.046-4.096 12.142l-0.805 2.853c-0.366 1.317-0.805 2.56-1.243 3.803-0.512 1.536-1.097 2.999-1.463 4.608-1.39 5.851-2.341 11.776-2.999 17.701h28.014l4.901 0.878 1.317 1.024c0.951 0.366 2.56 1.097 3.877 2.341 1.755 1.609 2.706 3.438 3.365 5.266 0.366 0.512 0.805 1.243 0.731 1.682l0.219 0.805c0.293 0.658 0.585 1.609 0.585 2.779l-1.024 4.681-0.585 0.731c-0.585 1.682-1.463 3.438-2.999 4.901-1.536 1.682-3.218 2.414-4.974 3.145 0.512-0.219 0.805-0.439 0.878-0.512l-1.097 0.585c-0.073 0-0.073 0.073-0.146 0.073 0.073 0 0.073 0 0.146-0.073l-1.975 1.024-31.232 0.439c0.658 5.925 1.609 11.849 2.999 17.627 0.293 1.463 0.805 2.779 1.317 4.096 0.439 1.243 0.878 2.414 1.243 3.657l0.585 2.048c1.39 4.754 2.706 9.289 4.535 13.531 0.731 1.829 1.682 3.584 2.633 5.266 0.658 1.17 1.317 2.414 1.975 3.584l1.463 2.999c1.609 3.218 3.218 6.51 5.193 9.509 1.243 1.902 2.633 3.657 4.096 5.413l4.169 5.413c0.366 0.512 0.805 1.097 1.17 1.609l10.24-10.24c4.608-4.608 12.215-4.608 17.189 0.219 1.755 1.975 2.853 4.242 2.926 5.559l0.439 2.853c0 0.439 0 0.878-0.073 1.243 0.951 4.023-0.073 8.046-2.999 10.898l-8.85 8.777 4.901 3.95c2.633 2.194 5.266 4.389 8.192 6.29 2.048 1.39 4.315 2.487 6.51 3.657l7.241 3.95c2.56 1.463 5.193 2.999 7.899 4.169 3.365 1.463 6.875 2.487 10.386 3.584l3.584 1.097c1.39 0.439 2.779 0.951 4.096 1.39 1.902 0.658 3.803 1.39 5.778 1.829 5.925 1.39 11.995 2.414 18.286 3.072v-28.014c0-0.512 0.073-1.097 0.146-1.609l0.366-1.902c0.366-1.317 1.024-2.121 1.097-2.121 0 0 0 0 0 0 0.512-1.243 1.243-3.072 2.779-4.608s3.218-2.341 4.754-2.999l1.975-1.024c0.439-0.146 0.951-0.293 1.317-0.366l2.414-0.366c0.951 0 1.755 0.146 2.341 0.366v0c1.975 0.293 3.291 1.243 2.706 1.024 1.39 0.512 3.511 1.317 5.193 3.072 1.609 1.536 2.341 3.218 2.999 4.754l1.024 1.609 0.146 1.243c0 0.146 0.073 0.219 0.073 0.366l0.366 30.501c27.429-2.853 53.614-13.751 75.045-31.086l-10.386-10.386c-4.608-4.608-4.681-12.215 0.219-17.189 1.902-1.755 4.169-2.853 5.559-2.926 1.243-0.439 2.341-0.439 2.853-0.439l1.975 0.146c2.487 0.366 4.681 1.463 6.802 3.365l10.679 10.752c19.383-22.162 31.451-49.81 34.523-79.214h-28.014c-0.658 0-1.39-0.073-2.048-0.293l-1.536-0.366c-1.317-0.366-2.048-0.951-1.682-0.878-1.317-0.512-3.365-1.317-4.974-2.999-1.609-1.536-2.414-3.218-2.999-4.754-0.439-0.658-1.097-1.755-1.243-3.072l-0.439-0.878 0.146-3.803 0.293-0.512c0.073-0.293 0.146-0.658 0.293-1.024l0.878-1.902c0.512-1.463 1.39-3.291 2.999-4.754 1.536-1.609 3.218-2.267 4.023-2.487l2.267-1.463 1.17-0.146c0.219-0.073 0.512-0.146 0.731-0.146l30.208-0.219c-2.999-29.257-14.994-56.832-34.231-78.921l-11.191 11.191c-2.194 2.341-5.193 3.584-8.411 3.657-3.438-0.439-6.437-1.317-8.558-3.438z" />
<glyph unicode="&#xe937;" glyph-name="13PA-101" d="M716.8 506.514c-14.629 0-29.257 14.629-29.257 29.257v256c7.314 14.629-7.314 21.943-14.629 21.943h-241.371c-14.629 0-29.257 14.629-29.257 29.257s14.629 29.257 29.257 29.257h241.371c43.886 0 80.457-36.571 80.457-80.457v-263.314c-7.314-14.629-14.629-21.943-36.571-21.943zM680.229 23.771h-248.686c-14.629 0-29.257 14.629-29.257 29.257s14.629 29.257 29.257 29.257h248.686c7.314 0 7.314 7.314 7.314 7.314v270.629c0 14.629 14.629 29.257 29.257 29.257s29.257-14.629 29.257-29.257v-270.629c0-36.571-29.257-65.829-65.829-65.829zM928.914 469.943l-87.771 95.086c-7.314 14.629-29.257 14.629-36.571 0-14.629-7.314-14.629-29.257 0-36.571l43.886-43.886h-263.314c-14.629-7.314-29.257-21.943-29.257-36.571s14.629-29.257 29.257-29.257h256l-43.886-43.886c-7.314-14.629-7.314-29.257 0-36.571s14.629-7.314 21.943-7.314c7.314 0 14.629 0 21.943 7.314l87.771 95.086c7.314 7.314 7.314 21.943 0 36.571zM373.029 945.371c-7.314 7.314-14.629 7.314-21.943 0l-241.371-102.4c-14.629 0-21.943-14.629-21.943-21.943v-738.743c0-14.629 7.314-21.943 14.629-29.257l241.371-109.714c7.314 0 7.314 0 14.629 0s7.314 0 14.629 7.314 14.629 14.629 14.629 21.943v950.857c0 7.314-7.314 14.629-14.629 21.943z" />
<glyph unicode="&#xe938;" glyph-name="MO-26" d="M992.987 475.575h-114.322c-13.678 181.394-157.696 325.339-339.090 339.090v114.322c0 15.214-12.361 27.575-27.575 27.575s-27.575-12.361-27.575-27.575v-114.249c-181.394-13.678-325.413-157.696-339.090-339.090h-114.322c-15.214-0.073-27.575-12.434-27.575-27.648s12.361-27.575 27.575-27.575h114.249c13.678-181.394 157.696-325.413 339.090-339.090v-114.249c0-15.214 12.361-27.575 27.575-27.575s27.575 12.361 27.575 27.575v114.322c181.394 13.678 325.413 157.696 339.090 339.090h114.322c15.214 0 27.575 12.361 27.575 27.575 0.073 15.141-12.288 27.502-27.502 27.502zM512 133.705c-173.275 0-314.295 141.019-314.295 314.295s141.019 314.295 314.295 314.295 314.295-141.019 314.295-314.295c0-173.275-141.019-314.295-314.295-314.295zM630.491 448c0-65.39-53.029-118.491-118.491-118.491-65.39 0-118.491 53.102-118.491 118.491s53.029 118.491 118.491 118.491c65.39 0 118.491-53.029 118.491-118.491z" />
<glyph unicode="&#xe939;" glyph-name="06LO-04" d="M17.115 213.65v-26.331h-15.214v65.39h67.95v-11.703h-52.736v-15.653h35.913v-11.63h-35.913zM148.773 187.319l-21.065 24.503h-22.162v-24.503h-14.921v65.39h55.077c12.288 0 15.872-2.926 15.872-12.946v-14.629c0-10.533-4.242-13.312-16.018-13.312l21.943-24.503h-18.725zM146.286 239.47c0 1.682-0.512 1.829-2.194 1.829h-38.546v-17.92h38.546c1.682 0.073 2.194 0.293 2.194 1.902v14.19zM187.392 187.319v65.39h68.096v-11.703h-52.955v-13.897h35.547v-11.63h-35.547v-15.872h53.541v-12.288h-68.681zM280.795 187.319v65.39h15.214v-65.39h-15.214zM338.651 186.88c-12.361 0-16.238 2.999-16.238 15.506v34.816c0 12.361 3.877 15.506 16.238 15.506h58.807v-11.703h-57.49c-1.682 0-2.341-0.219-2.341-1.902v-38.034c0-1.609 0.658-1.902 2.341-1.902h42.496c1.682 0 2.267 0.293 2.267 1.902v13.239h-18.139v11.191h33.28v-23.040c0-12.434-3.73-15.506-16.165-15.506h-45.056zM487.131 187.319v27.941h-45.641v-27.941h-15.214v65.39h15.214v-25.527h45.641v25.527h15.214v-65.39h-15.214zM552.741 187.319v53.614h-29.842v11.776h75.118v-11.703h-29.989v-53.614h-15.287zM618.496 187.319v65.39h15.214v-53.102h48.933v-12.288h-64.146zM703.342 187.319v65.39h15.214v-65.39h-15.214zM813.202 187.319l-43.301 37.669c-2.779 2.414-7.607 6.949-9.362 8.85h-0.366c0.366-3.73 0.585-15.726 0.585-20.334v-26.185h-15.214v65.39h11.63l44.178-38.473c2.779-2.414 6.656-6.071 8.411-7.899h0.366c-0.293 3.657-0.439 15.653-0.439 20.334v26.039h15.214v-65.39h-11.703zM851.822 187.319v65.39h68.096v-11.703h-52.882v-13.897h35.547v-11.63h-35.547v-15.872h53.541v-12.288h-68.754zM1003.374 187.319l-21.065 24.503h-22.162v-24.503h-14.921v65.39h55.077c12.288 0 15.872-2.926 15.872-12.946v-14.629c0-10.533-4.242-13.312-16.018-13.312l21.943-24.503h-18.725zM1000.96 239.47c0 1.682-0.585 1.902-2.267 1.902h-38.546v-17.92h38.546c1.682 0 2.267 0.293 2.267 1.902v14.117zM4.096 299.813v120.101h127.269v-23.918h-95.086v-22.382h63.195v-23.259h-63.195v-25.673h96.11v-24.795h-128.293zM298.423 299.813l-68.754 59.465c-10.825 9.289-19.602 17.701-23.406 21.358h-0.512c0.512-7.095 1.024-27.063 1.024-37.522v-43.227h-31.817v120.027h24.795l71.461-62.025c6.729-5.705 17.189-15.506 20.48-18.798h0.658c-0.439 6.875-1.17 27.429-1.17 37.742v43.081h31.89v-120.027h-24.649zM369.371 299.813v120.101h32.402v-94.72h87.333v-25.307h-119.735zM650.825 299.813l-12.069 22.235h-72.997l-11.922-22.235h-35.109l67.145 120.101h33.573l67.511-120.027h-36.133zM577.097 344.43h50.469l-25.307 45.495h-0.146l-25.015-45.495zM750.885 299.813c-24.283 0-31.89 5.705-31.89 29.257v61.513c0 23.406 7.387 29.257 31.89 29.257h99.035v-24.283h-94.574c-2.926 0-3.95-0.512-3.95-3.291v-63.927c0-2.56 1.024-3.291 3.95-3.291h94.574v-25.307h-99.035zM891.611 299.813v120.101h127.269v-23.918h-95.086v-22.382h63.195v-23.259h-63.195v-25.673h96.11v-24.795h-128.293zM397.824 72.777v26.478c0 13.385 4.535 16.896 18.798 16.896h38.327c1.755 0 2.341 0.293 2.341 1.902v9.728c0 1.609-0.585 1.902-2.341 1.902h-54.857v13.824h57.198c14.336 0 18.725-3.145 18.725-14.629v-11.483c0-11.557-4.681-14.921-18.725-14.921h-38.327c-1.755 0-2.341-0.439-2.341-2.048v-13.093h59.319v-14.629h-78.117zM501.467 72.777v14.921h18.505v-14.921h-18.505zM564.078 72.265c-14.19 0-18.725 3.438-18.725 17.262v37.303c0 13.824 4.462 17.262 18.725 17.262h43.374c14.336 0 18.725-3.438 18.725-17.262v-37.303c0-13.897-4.389-17.262-18.725-17.262h-43.374zM607.086 127.781c0 1.609-0.512 1.902-2.267 1.902h-37.961c-1.755 0-2.341-0.293-2.341-1.902v-38.693c0-1.536 0.585-1.902 2.341-1.902h37.961c1.755 0 2.267 0.439 2.267 1.902v38.693zM224.475 672.841c-14.629-21.211-12.288-49.81 5.486-68.389 5.413-5.705 11.045-11.191 16.823-16.53 13.605-12.654 28.233-24.283 43.593-34.816l0.512-0.366c24.43-16.677 58.002-10.606 74.459 14.043 2.194 3.365 4.608 6.583 7.022 9.801 30.939 40.009 79.36 65.829 133.705 65.829 48.494 0 92.233-20.553 123.099-53.394 5.486-5.851 3.365-15.433-4.023-18.432-8.265-3.291-16.53-6.29-25.015-8.85-3.803-1.17-7.973-0.293-10.898 2.414-21.943 20.114-51.127 32.402-83.163 32.402-34.377 0-65.463-14.19-87.845-36.937-5.339-5.413-10.24-11.337-14.482-17.701-11.776-17.554-2.194-41.545 18.432-46.226 0.219 0 0.439-0.073 0.585-0.073 12.361-2.779 24.869 2.56 32.037 13.019 11.191 16.311 29.989 27.063 51.273 27.063 23.771 0 44.471-13.458 54.93-33.134 3.584-6.802 11.483-10.24 19.017-8.704 15.287 3.072 30.281 7.022 44.91 11.849s28.965 10.459 42.789 16.969c12.361 5.778 24.357 12.215 35.913 19.31 10.679 6.363 14.994 19.895 9.509 31.159-5.851 12.142-12.8 23.625-20.626 34.523-41.765 57.929-109.787 95.671-186.514 95.671-70.802 0-134.217-32.256-176.494-82.798-6.144-7.314-17.042-8.485-24.503-2.487-5.266 4.315-10.459 8.777-15.579 13.385-6.875 6.217-7.753 16.896-1.902 24.137 52.736 65.39 133.486 107.301 223.817 107.301 93.184 0 176.128-44.544 228.718-113.445 4.754-6.217 9.216-12.654 13.458-19.237 10.971-17.115 35.621-18.286 48.421-2.487l0.439 0.512c8.338 10.24 9.070 24.649 1.902 35.694-7.899 12.288-16.603 24.064-25.966 35.182-64 76.142-159.89 124.635-266.971 124.635-110.665 0-209.335-51.858-273.262-132.535-4.681-5.925-9.289-12.069-13.605-18.359z" />
<glyph unicode="&#xe93a;" glyph-name="06LO-05" d="M20.699 472.283c-25.015-36.206-21.065-85.065 9.362-116.882 9.289-9.728 18.871-19.090 28.745-28.233 23.333-21.577 48.201-41.399 74.533-59.392l0.878-0.585c41.691-28.526 99.182-18.139 127.195 23.918 3.803 5.705 7.753 11.264 11.995 16.75 52.809 68.315 135.534 112.421 228.425 112.421 82.871 0 157.623-35.109 210.286-91.209 9.362-9.947 5.778-26.405-6.949-31.525-13.897-5.559-28.16-10.606-42.569-15.067-6.51-1.975-13.678-0.439-18.651 4.169-37.449 34.377-87.333 55.369-142.117 55.369-58.734 0-111.835-24.21-150.089-63.122-9.143-9.216-17.408-19.383-24.722-30.281-20.114-29.989-3.73-71.022 31.525-78.921 0.366-0.073 0.658-0.146 1.024-0.219 21.065-4.754 42.423 4.389 54.711 22.235 19.163 27.867 51.273 46.153 87.552 46.153 40.667 0 75.995-22.967 93.915-56.613 6.144-11.63 19.602-17.481 32.475-14.921 26.185 5.193 51.785 11.995 76.727 20.261 25.015 8.265 49.445 17.92 73.070 29.038 21.065 9.947 41.545 20.919 61.367 32.914 18.286 11.118 25.673 34.158 16.384 53.394-10.094 20.773-21.943 40.521-35.255 59.026-71.387 98.962-187.611 163.474-318.683 163.474-121.051 0-229.376-55.077-301.495-141.385-10.459-12.507-29.111-14.482-41.838-4.315-9.143 7.314-18.066 14.921-26.697 22.821-11.703 10.679-13.239 28.818-3.218 41.179 90.112 111.689 227.913 183.296 382.318 183.296 159.159 0 300.91-76.142 390.729-193.902 8.119-10.606 15.799-21.577 22.967-32.841 18.725-29.257 60.855-31.232 82.798-4.242l0.731 0.878c14.19 17.481 15.433 42.057 3.291 61.001-13.531 20.992-28.379 41.106-44.398 60.197-109.349 130.194-273.189 213.065-456.046 213.065-189.001 0-357.669-88.649-466.871-226.377-8.192-10.24-15.945-20.773-23.406-31.525z" />
<glyph unicode="&#xe93b;" glyph-name="06LO-07" d="M512 550.4c-58.514 0-102.4-43.886-102.4-102.4s43.886-102.4 102.4-102.4 102.4 43.886 102.4 102.4-43.886 102.4-102.4 102.4zM987.429 550.4c-58.514 109.714-182.857 270.629-460.8 270.629-285.257 0-424.229-168.229-482.743-285.257-36.571-51.2-36.571-124.343-7.314-182.857 51.2-109.714 182.857-277.943 460.8-277.943s416.914 168.229 482.743 277.943c36.571 58.514 36.571 131.657 7.314 197.486zM512 257.829c-102.4 0-190.171 87.771-190.171 190.171s87.771 190.171 190.171 190.171 190.171-87.771 190.171-190.171c0-102.4-87.771-190.171-190.171-190.171z" />
<glyph unicode="&#xe93c;" glyph-name="12AU-06" d="M512 696.686c-80.457 0-131.657-65.829-131.657-138.971s51.2-138.971 131.657-138.971 131.657 65.829 131.657 138.971-51.2 138.971-131.657 138.971zM512 382.171c0 0 0 0 0 0v0c-131.657 0-234.057-102.4-234.057-226.743 0-36.571 14.629-80.457 36.571-102.4s387.657-21.943 394.971 0c21.943 21.943 36.571 65.829 36.571 102.4 0 124.343-102.4 226.743-234.057 226.743v0c0 0 0 0 0 0zM775.314 579.657c80.457 0 131.657 65.829 131.657 138.971s-51.2 138.971-131.657 138.971-131.657-58.514-131.657-138.971 58.514-138.971 131.657-138.971zM248.686 857.6c-80.457 0-131.657-65.829-131.657-138.971s51.2-138.971 131.657-138.971 131.657 65.829 131.657 138.971-51.2 138.971-131.657 138.971zM782.629 550.4v0c0 0 0 0 0 0-7.314 0-7.314 0 0 0v0c-36.571 0-73.143-7.314-102.4-21.943-7.314-51.2-36.571-95.086-80.457-124.343 87.771-29.257 160.914-109.714 175.543-204.8 95.086 0 197.486 7.314 197.486 14.629 21.943 21.943 36.571 65.829 36.571 102.4 7.314 131.657-102.4 226.743-226.743 234.057zM241.371 199.314c21.943 95.086 87.771 175.543 182.857 204.8-43.886 29.257-73.143 73.143-80.457 124.343-29.257 14.629-65.829 21.943-95.086 21.943v0c0 0 0 0 0 0s0 0 0 0v0c-131.657-7.314-241.371-102.4-241.371-226.743 0-36.571 14.629-80.457 36.571-102.4 14.629-14.629 109.714-21.943 197.486-21.943z" />
<glyph unicode="&#xe93d;" glyph-name="06LO-08" d="M980.114 557.714c-51.2 102.4-175.543 270.629-453.486 270.629s-416.914-175.543-475.429-277.943c-36.571-65.829-36.571-146.286-7.314-212.114 51.2-102.4 175.543-277.943 453.486-277.943s416.914 168.229 468.114 270.629c43.886 73.143 43.886 160.914 14.629 226.743zM899.657 374.857v0c-58.514-102.4-175.543-234.057-402.286-234.057s-329.143 131.657-380.343 234.057c-21.943 43.886-21.943 95.086 0 138.971 58.514 109.714 175.543 234.057 402.286 234.057 219.429 0 329.143-124.343 380.343-226.743 29.257-43.886 29.257-95.086 0-146.286zM512 660.114c-117.029 0-212.114-95.086-212.114-212.114s95.086-212.114 212.114-212.114 212.114 95.086 212.114 212.114c0 117.029-95.086 212.114-212.114 212.114zM512 316.343c-73.143 0-131.657 58.514-131.657 131.657s58.514 131.657 131.657 131.657 131.657-58.514 131.657-131.657-58.514-131.657-131.657-131.657z" />
<glyph unicode="&#xe93e;" glyph-name="13PA-12" d="M512 235.886c58.514 0 109.714 51.2 109.714 117.029s-51.2 117.029-109.714 117.029-109.714-51.2-109.714-117.029c0-65.829 51.2-117.029 109.714-117.029zM292.571 374.857c58.514 0 109.714 51.2 109.714 117.029s-43.886 109.714-109.714 109.714-109.714-51.2-109.714-109.714c0-65.829 51.2-117.029 109.714-117.029zM731.429 374.857c58.514 0 109.714 51.2 109.714 117.029s-51.2 109.714-109.714 109.714c-58.514 0-109.714-51.2-109.714-117.029s51.2-109.714 109.714-109.714zM731.429 345.6c0 0 0 0 0 0v0c-29.257 0-58.514-7.314-80.457-14.629-7.314-43.886-29.257-80.457-65.829-102.4 73.143-21.943 124.343-87.771 146.286-160.914 73.143 43.886 131.657 102.4 168.229 182.857-29.257 58.514-95.086 95.086-168.229 95.086zM438.857 228.571c-36.571 21.943-58.514 58.514-65.829 102.4-21.943 7.314-51.2 14.629-80.457 14.629 0 0 0 0 0 0s0 0 0 0c-73.143 0-138.971-36.571-168.229-95.086 36.571-73.143 95.086-138.971 168.229-182.857 21.943 73.143 73.143 138.971 146.286 160.914zM512 945.371c-270.629 0-497.371-219.429-497.371-497.371s219.429-497.371 497.371-497.371 497.371 219.429 497.371 497.371-226.743 497.371-497.371 497.371zM512-12.8c-256 0-460.8 204.8-460.8 460.8s204.8 460.8 460.8 460.8 460.8-204.8 460.8-460.8c0-256-204.8-460.8-460.8-460.8zM512 213.943c0 0 0 0 0 0s0 0 0 0c-95.086 0-175.543-65.829-190.171-153.6 58.514-29.257 124.343-43.886 190.171-43.886s131.657 14.629 190.171 43.886c-14.629 87.771-95.086 153.6-190.171 153.6z" />
<glyph unicode="&#xe93f;" glyph-name="05MA-03" d="M965.486 243.2c0-7.314 0-14.629-7.314-21.943 0 0 0-7.314-7.314-7.314-65.829-124.343-175.543-212.114-314.514-248.686-43.886-14.629-87.771-14.629-131.657-14.629-131.657 0-263.314 51.2-358.4 153.6v-80.457c0-29.257-29.257-58.514-58.514-58.514 0 0 0 0-7.314 0-36.571 0-58.514 29.257-58.514 65.829l21.943 256c0 21.943 21.943 36.571 43.886 36.571l256-21.943c29.257 0 58.514-29.257 58.514-58.514 0 0 0 0 0-7.314 0-36.571-29.257-58.514-65.829-58.514l-102.4 7.314c95.086-102.4 241.371-146.286 380.343-109.714 102.4 29.257 190.171 95.086 241.371 190.171v0c0 0 0 7.314 0 7.314 7.314 21.943 29.257 29.257 51.2 29.257 29.257 7.314 58.514-21.943 58.514-58.514zM58.514 652.8c0 7.314 0 14.629 7.314 21.943 0 0 0 7.314 7.314 7.314 65.829 124.343 175.543 212.114 314.514 248.686 36.571 14.629 80.457 21.943 124.343 21.943 131.657 0 263.314-51.2 358.4-153.6l7.314 73.143c0 29.257 29.257 58.514 58.514 58.514 0 0 0 0 7.314 0 36.571 0 58.514-29.257 58.514-65.829l-21.943-256c0-21.943-21.943-36.571-43.886-36.571l-256 21.943c-29.257 0-58.514 29.257-58.514 58.514 0 0 0 0 0 7.314 0 36.571 29.257 58.514 65.829 58.514l102.4-7.314c-87.771 95.086-234.057 138.971-373.029 102.4-102.4-29.257-190.171-95.086-241.371-190.171v0c0 0 0-7.314 0-7.314-14.629-14.629-29.257-29.257-58.514-29.257s-58.514 29.257-58.514 65.829z" />
<glyph unicode="&#xe940;" glyph-name="5CE-09" d="M512 952.686c-277.943 0-504.686-226.743-504.686-504.686s226.743-504.686 504.686-504.686c277.943 0 504.686 226.743 504.686 504.686s-226.743 504.686-504.686 504.686zM512-5.486c-248.686 0-453.486 204.8-453.486 453.486s204.8 453.486 453.486 453.486 453.486-204.8 453.486-453.486c0-248.686-204.8-453.486-453.486-453.486zM687.543 557.714c36.571 0 65.829 29.257 65.829 65.829s-29.257 65.829-65.829 65.829c-36.571 0-65.829-29.257-65.829-65.829 7.314-36.571 29.257-65.829 65.829-65.829zM351.086 557.714c36.571 0 65.829 29.257 65.829 65.829s-29.257 65.829-65.829 65.829c-36.571 0-65.829-29.257-65.829-65.829s29.257-65.829 65.829-65.829zM797.257 433.371c0 14.629-14.629 14.629-21.943 14.629-65.829-65.829-160.914-109.714-263.314-109.714s-197.486 43.886-263.314 109.714c-7.314 0-21.943 0-21.943-14.629v0c-7.314-138.971 95.086-263.314 226.743-292.571 21.943 0 36.571-7.314 58.514-7.314s36.571 0 58.514 7.314c131.657 29.257 234.057 153.6 226.743 292.571v0z" />
<glyph unicode="&#xe941;" glyph-name="2MO-07" d="M994.743 433.371c0-14.629-7.314-21.943-21.943-21.943h-80.457c-7.314-190.171-168.229-343.771-358.4-358.4v-80.457c0-14.629-7.314-21.943-21.943-21.943s-21.943 7.314-21.943 21.943v80.457c-190.171 7.314-343.771 160.914-358.4 358.4h-80.457c-14.629 0-21.943 7.314-21.943 21.943 0 7.314 7.314 14.629 21.943 14.629h80.457c7.314 160.914 117.029 292.571 263.314 336.457l-21.943-51.2c-109.714-51.2-190.171-153.6-197.486-277.943h80.457c14.629 0 21.943-7.314 21.943-21.943s-7.314-21.943-21.943-21.943h-80.457c7.314-168.229 146.286-299.886 314.514-314.514v80.457c0 14.629 7.314 21.943 21.943 21.943s21.943-7.314 21.943-21.943v-80.457c168.229 7.314 299.886 146.286 314.514 314.514h-80.457c-14.629 0-21.943 7.314-21.943 21.943s7.314 21.943 21.943 21.943h80.457c-7.314 124.343-87.771 234.057-197.486 285.257l-21.943 51.2c146.286-43.886 256-182.857 263.314-336.457h80.457c14.629-7.314 21.943-14.629 21.943-21.943zM687.543 521.143c0 0 0 0 0 0 0-7.314 0-7.314 0-7.314s0 0 0 0 0 0-7.314 0c0 0 0 0 0 0l-168.229 65.829c0 0 0 0 0 0s0 0 0 0l-160.914-73.143c-7.314 0-7.314 0-14.629 0 0 0 0 0 0 0s0 7.314 0 7.314l87.771 234.057 21.943 43.886 51.2 138.971c0 7.314 7.314 7.314 7.314 7.314s7.314 0 7.314 0c0 0 0 0 7.314-7.314l58.514-138.971 21.943-51.2 87.771-219.429c0 0 0 0 0 0z" />
<glyph unicode="&#xe943;" glyph-name="05MA-06" d="M973.678-64h-923.648c-26.478 0-50.030 23.552-50.030 50.030v923.648c0 44.105 52.955 67.657 85.285 35.328l923.648-923.648c32.402-32.402 8.85-85.358-35.255-85.358z" />
<glyph unicode="&#xe945;" glyph-name="03ME-10" d="M570.514 769.829h-526.629c-21.943 0-43.886-14.629-43.886-36.571v-482.743c0-21.943 14.629-36.571 36.571-36.571h73.143c0 65.829 51.2 117.029 117.029 117.029s117.029-51.2 117.029-117.029h270.629v519.314c0 21.943-21.943 36.571-43.886 36.571zM1016.686 411.429l-175.543 219.429c-7.314 7.314-14.629 7.314-21.943 7.314h-175.543v-431.543h29.257c0 65.829 51.2 117.029 117.029 117.029s117.029-51.2 117.029-117.029h73.143c21.943 0 36.571 14.629 36.571 36.571v146.286c7.314 7.314 0 14.629 0 21.943zM936.229 404.114h-226.743c-7.314 0-7.314 0-7.314 7.314v168.229c0 7.314 0 7.314 7.314 7.314h80.457c0 0 7.314 0 7.314 0l138.971-175.543c14.629 0 7.314-7.314 0-7.314zM797.257 294.4c-43.886 0-87.771-36.571-87.771-87.771s36.571-87.771 87.771-87.771c43.886 0 87.771 36.571 87.771 87.771s-43.886 87.771-87.771 87.771zM226.743 294.4c-43.886 0-80.457-36.571-80.457-87.771s36.571-87.771 87.771-87.771 87.771 36.571 87.771 87.771-43.886 87.771-95.086 87.771z" />
<glyph unicode="&#xe949;" glyph-name="5CE-02" d="M753.371-20.114v0c0 0-7.314-7.314-7.314-7.314-87.771-87.771-314.514 7.314-512 204.8s-285.257 424.229-204.8 512c0 0 7.314 7.314 7.314 7.314v0l95.086 95.086c14.629 14.629 43.886 14.629 58.514 0l160.914-160.914c14.629-14.629 14.629-43.886 0-58.514l-58.514-80.457c-14.629-14.629-21.943-36.571-7.314-51.2 29.257-36.571 65.829-80.457 102.4-117.029s73.143-73.143 117.029-102.4c14.629-14.629 43.886-7.314 58.514 7.314l65.829 65.829c14.629 14.629 43.886 14.629 58.514 0l160.914-160.914c14.629-14.629 14.629-43.886 0-58.514l-95.086-95.086zM731.429 448c0-7.314-7.314-14.629-14.629-14.629h-7.314c-14.629 0-29.257 0-36.571 14.629-21.943 65.829-58.514 109.714-117.029 138.971-7.314 14.629-21.943 14.629-36.571 21.943s-21.943 21.943-21.943 36.571v7.314c7.314 7.314 7.314 7.314 14.629 14.629 7.314 0 21.943 0 29.257 0 14.629-7.314 36.571-14.629 51.2-21.943 65.829-43.886 117.029-102.4 138.971-175.543 7.314-7.314 7.314-14.629 0-21.943zM877.714 484.571c0-7.314-7.314-14.629-14.629-14.629h-7.314c-14.629 0-29.257 7.314-36.571 14.629-36.571 102.4-102.4 182.857-190.171 234.057-21.943 14.629-51.2 21.943-73.143 29.257-14.629 7.314-21.943 21.943-21.943 36.571v7.314c0 7.314 7.314 14.629 14.629 14.629s14.629 7.314 21.943 0c29.257-7.314 58.514-21.943 87.771-43.886 102.4-58.514 175.543-153.6 212.114-263.314 7.314 0 7.314-7.314 7.314-14.629zM1016.686 521.143c0-7.314-7.314-14.629-14.629-14.629h-7.314c-14.629 0-29.257 7.314-36.571 14.629-43.886 131.657-131.657 248.686-256 314.514-29.257 29.257-73.143 43.886-117.029 58.514-7.314 7.314-21.943 21.943-14.629 36.571v7.314c0 7.314 7.314 14.629 14.629 14.629s14.629 7.314 21.943 0c43.886-14.629 87.771-36.571 131.657-58.514 131.657-80.457 234.057-204.8 285.257-351.086 0-7.314 0-14.629-7.314-21.943z" />
<glyph unicode="&#xe94d;" glyph-name="4LO-06" d="M773.998 834.853v0.658c-0.146 0.658-0.293 1.17-0.366 1.829-0.293 0.951-0.366 1.682-0.805 2.633-0.146 0.512-0.146 1.024-0.366 1.463-0.146 0.366-0.366 0.805-0.658 1.17-0.146 0.366-0.293 0.658-0.512 1.024 0 0.293-0.146 0.658-0.366 0.951-0.146 0.366-0.366 0.658-0.658 0.951-0.293 0.512-0.658 1.024-1.024 1.463-0.146 0.293-0.366 0.512-0.658 0.805-0.293 0.366-0.658 0.805-1.024 1.17-0.512 0.512-0.951 0.951-1.463 1.317-1.682 1.609-3.584 2.779-5.705 3.73-2.926 1.024-5.778 1.682-9.070 1.682h-153.234v28.818c0 1.609-0.146 3.145-0.512 4.608-0.146 1.317-0.512 2.633-1.097 3.803-0.512 1.609-1.463 3.145-2.487 4.462-0.512 0.951-1.17 1.755-1.829 2.56-0.293 0.219-0.658 0.658-0.951 0.878-0.219 0.293-0.366 0.439-0.658 0.658-0.805 0.951-1.682 1.463-2.633 2.121 0 0 0 0-0.146 0-1.17 0.658-2.633 1.463-3.95 2.121-1.317 0.512-2.779 0.951-4.389 1.317-1.39 0.293-2.999 0.366-4.535 0.366h-67.438v23.918c0 1.609-0.293 3.145-0.512 4.462-0.293 1.463-0.512 2.633-1.024 3.803-1.39 3.072-3.072 5.705-5.339 7.826-0.146 0.146-0.146 0.146-0.293 0.146-1.024 1.024-2.121 1.829-3.291 2.779h-0.146c-0.731 0.658-1.682 1.17-2.706 1.536-0.805 0.439-1.609 0.805-2.56 0.951-1.024 0.366-2.194 0.805-3.438 0.951-1.317 0.366-2.706 0.512-4.169 0.512h-154.917c-0.805-0.146-1.317-0.293-2.121-0.439-0.512-0.073-1.317-0.366-1.975-0.512h-0.146c-1.17-0.512-2.487-1.024-3.657-1.536-1.243-0.585-2.414-1.243-3.438-2.121-2.121-1.755-4.096-3.73-5.705-5.925-0.658-0.951-1.17-2.121-1.682-3.218-0.293-0.219-0.439-0.658-0.585-1.024 0-0.366-0.146-0.805-0.146-1.17-0.366-0.805-0.512-1.609-0.731-2.56-0.293-1.317-0.293-2.853-0.293-4.462v-23.918h-68.096c-3.145 0-6.217-0.658-8.997-1.829-1.39-0.512-2.56-1.17-3.877-2.121-1.243-0.731-2.414-1.682-3.365-2.779-2.048-2.048-3.803-4.462-4.827-7.241-1.243-2.779-1.902-5.778-1.902-8.923v-28.745h-153.161c-1.609 0-3.145-0.146-4.608-0.512-0.951-0.219-1.755-0.366-2.487-0.731-0.585-0.146-1.243-0.293-1.902-0.658-0.293 0-0.366-0.146-0.658-0.293-0.219-0.073-0.512-0.073-0.805-0.219-1.536-0.951-3.145-1.975-4.315-3.072-0.512-0.512-1.024-0.731-1.463-1.317-1.024-1.024-1.975-2.121-2.779-3.438-0.512-0.658-1.024-1.536-1.536-2.341 0-0.293-0.146-0.366-0.146-0.512-0.146-0.293-0.293-0.658-0.439-0.951-0.512-1.024-0.731-2.121-1.024-3.291-0.146-0.366-0.293-0.805-0.293-1.17-0.366-1.463-0.512-2.926-0.512-4.389 0-0.146 0-0.146 0-0.293v-867.986c0-1.609 0.146-3.145 0.512-4.608 0.293-1.463 0.658-2.926 1.17-4.389 1.17-2.779 2.926-5.12 5.047-7.241s4.608-3.803 7.241-4.901c2.779-1.17 5.778-1.829 8.997-1.829h457.874c-2.779 3.145-5.12 6.583-7.241 10.313-5.047 8.558-8.046 17.92-9.216 27.429-2.121 15.433 1.024 31.378 9.216 45.641l65.463 113.371h-267.63c-9.655 0-17.554 9.801-17.554 21.87 0 12.288 7.899 22.309 17.554 22.309h293.083l87.771 151.991c10.533 18.359 27.941 30.72 48.055 34.962 5.047 1.024 10.021 1.609 15.287 1.609 5.925 0 11.63-0.658 17.189-1.975v463.506c0 0.146 0 0.146 0 0.366-0.073 0.658-0.073 1.317-0.219 1.829zM127.707 690.030c6.583 6.729 17.92 7.241 23.991 1.024l20.699-20.699 54.199 54.199c6.437 6.363 17.042 5.925 23.991-0.951l1.024-1.024c6.217-7.022 6.363-17.042 0.293-23.259l-68.023-67.877c-2.999-2.926-6.875-4.462-10.971-4.462-3.145 0-6.363 0.951-9.070 2.487h-0.658l-3.657 3.365-32.987 33.134c-2.926 2.926-4.535 6.729-4.535 10.971 0 4.901 2.121 9.655 5.705 13.093zM127.707 517.559c6.583 6.729 18.066 7.241 23.991 0.951l20.699-20.553 54.199 54.199c6.51 6.29 17.115 5.778 24.064-1.097l1.024-1.17c6.071-7.022 6.217-16.896 0.146-22.967l-67.95-67.95c-2.999-2.926-6.875-4.462-10.971-4.462-3.145 0-6.363 0.951-9.070 2.487h-0.658l-3.657 3.291-32.987 33.134c-2.926 2.853-4.535 6.802-4.535 11.045 0 4.901 2.121 9.509 5.705 13.093zM238.519 132.754c3.438-3.438 5.266-7.899 5.266-12.654s-1.829-9.216-5.266-12.507c-6.729-6.729-18.505-6.729-25.234 0l-24.137 24.137-24.283-24.137c-3.291-3.438-7.753-5.266-12.507-5.266s-9.216 1.829-12.507 5.266c-7.022 7.022-7.022 18.213 0 25.234l24.137 24.137-24.283 24.137c-6.875 7.022-6.875 18.359 0 25.234s18.505 6.875 25.234 0l24.283-24.137 24.137 24.137c6.729 6.875 18.505 6.875 25.234 0 3.438-3.291 5.266-7.753 5.266-12.507s-1.829-9.216-5.266-12.507l-24.137-24.283 24.064-24.283zM251.831 354.45l-67.95-67.95c-2.999-2.926-6.875-4.462-10.971-4.462-3.145 0-6.363 0.805-9.070 2.487h-0.658l-3.657 3.291-32.987 33.134c-2.926 2.926-4.462 6.875-4.462 11.118 0 4.754 2.121 9.509 5.705 13.093 6.583 6.583 18.066 7.095 23.991 0.951l20.699-20.699 54.199 54.199c6.437 6.437 17.042 5.925 23.991-0.951l0.951-1.097c6.217-7.022 6.437-17.042 0.219-23.113zM263.607 803.182v58.368h67.803c2.999 0 6.071 0.512 8.704 1.609 1.609 0.658 2.926 1.463 4.096 2.267 6.217 4.096 10.167 10.971 10.167 19.163v23.259h106.642v-23.333c0-4.901 1.463-9.216 3.95-12.8 0.951-1.243 1.829-2.414 2.926-3.438 0.073-0.146 0.219-0.293 0.366-0.439 0.658-0.951 1.682-1.829 2.926-2.487 1.17-0.805 2.487-1.463 3.95-1.975 1.317-0.658 2.779-1.024 4.389-1.317 1.463-0.366 2.926-0.512 4.462-0.512h67.95v-42.715h0.146v-15.579h-288.475zM664.576 311.15h-351.744c-9.874 0-17.554 9.655-17.554 21.87 0 12.288 7.68 21.797 17.554 21.797h351.744c9.801 0 17.554-9.509 17.554-21.797 0-12.215-7.753-21.87-17.554-21.87zM664.576 483.328h-351.744c-9.655 0-17.554 9.874-17.554 21.87 0 12.288 7.899 22.309 17.554 22.309h351.744c9.655 0 17.554-10.021 17.554-22.309 0-11.922-7.899-21.87-17.554-21.87zM664.576 656.238h-351.744c-9.874 0-17.554 9.509-17.554 21.797s7.68 21.87 17.554 21.87h351.744c9.801 0 17.554-9.655 17.554-21.87 0-12.288-7.753-21.797-17.554-21.797zM752.933 181.394c-10.313 10.313-24.722 13.897-38.181 11.118-1.317-0.293-1.755-1.902-0.805-2.853l15.726-15.726c1.097-1.097 1.463-2.633 1.097-4.023l-4.608-17.115c-0.366-1.39-1.536-2.487-2.999-2.926l-16.969-4.681c-1.39-0.366-2.999 0.073-4.023 1.097l-15.579 15.579c-0.878 0.951-2.56 0.512-2.853-0.731-2.999-13.239 0.805-27.648 11.118-38.034 11.045-11.337 27.575-14.629 41.765-9.947l53.979-53.979c0 0.073 0.073 0.073 0.146 0.073l34.304-34.304c5.413-5.413 14.117-5.413 19.529 0l6.583 6.583c5.413 5.413 5.413 14.117 0 19.529l-67.072 67.072-0.073-0.073-21.211 21.211c4.754 14.336 1.463 30.793-9.874 42.13zM976.238 11.922l-178.688 309.394c-8.411 14.629-23.625 23.479-40.521 23.479-0.146 0-0.146 0-0.146 0-16.896 0-32.037-8.85-40.521-23.479l-178.688-309.394c-8.411-14.629-8.411-32.183 0-46.811s23.625-23.333 40.521-23.333h357.449c16.896 0 32.037 8.704 40.521 23.333 8.558 14.629 8.558 32.183 0.073 46.811zM951.589-20.699c-1.609-2.633-6.363-9.070-15.799-9.070h-357.449c-9.509 0-14.263 6.437-15.799 9.070-1.609 2.779-4.754 10.021 0 18.359l178.688 309.394c4.754 8.338 12.581 9.289 15.726 9.289 3.291 0 11.118-0.951 15.799-9.216l178.761-309.394c4.827-8.411 1.682-15.653 0.073-18.432z" />
<glyph unicode="&#xe978;" glyph-name="2MO-06" d="M1010.469 97.646l-405.797 702.757c-18.725 32.987-54.199 53.102-92.672 53.102s-73.947-20.48-92.672-53.102l-404.992-701.294c-19.456-35.547-19.017-75.483 0.731-108.763 19.456-32.549 53.833-52.005 91.575-52.005h810.789c38.107 0 72.119 19.456 91.575 52.005 19.383 33.353 20.114 73.216 1.463 107.301zM512.439 104.229c-20.553 0-37.376 15.726-37.376 36.279s16.823 37.376 37.376 37.376c19.383 0 36.279-16.823 36.279-37.376s-16.896-36.279-36.279-36.279zM548.645 267.557c0-8.411-7.314-15.726-15.726-15.726h-42.13c-8.411 0-15.726 7.314-15.726 15.726v298.13c0 8.411 7.314 15.726 15.726 15.726h42.13c8.411 0 15.726-7.314 15.726-15.726v-298.13z" />
<glyph unicode="&#xe979;" glyph-name="05MA-13" d="M309.541-61.659c-20.334 0-40.594 7.753-56.027 23.186-30.866 30.866-30.866 81.262 0 112.128l364.398 364.398-379.904 379.758c-30.866 30.866-30.866 81.262 0 112.128s81.262 30.866 112.128 0l435.858-435.858c14.994-14.994 23.186-34.962 23.186-56.027 0-21.138-8.558-41.033-23.186-56.027l-420.425-419.986c-15.433-15.945-35.767-23.698-56.027-23.698z" />
<glyph unicode="&#xe97b;" glyph-name="2MO-09" d="M425.691 398.336c-18.286-61.294-74.752-105.618-141.824-105.618s-123.831 44.69-141.751 105.618h-90.551c-23.552 0-42.277 18.651-42.277 42.277 0 23.552 19.090 42.277 42.277 42.277h90.551c18.286 61.294 74.752 105.545 141.751 105.545s123.904-44.69 141.824-105.618h556.105c23.552 0 42.203-18.651 42.203-42.203s-19.090-42.277-42.277-42.277h-556.032zM606.793 123.319c18.286 61.367 74.752 105.618 141.751 105.618s123.904-44.69 141.751-105.618h90.551c23.552 0 42.277-18.651 42.277-42.277 0-23.552-19.090-42.277-42.277-42.277h-90.551c-18.286-61.367-74.752-105.618-141.751-105.618s-123.904 44.69-141.751 105.618h-555.666c-23.552 0-42.277 18.651-42.277 42.277 0 23.552 19.090 42.277 42.277 42.277h555.666zM606.793 842.313c18.286 61.367 74.752 105.618 141.751 105.618s123.904-44.69 141.751-105.618h90.551c23.552 0 42.277-18.651 42.277-42.277 0-23.552-19.090-42.277-42.277-42.277h-90.551c-18.286-61.367-74.752-105.618-141.751-105.618s-123.904 44.69-141.751 105.618h-555.666c-23.552 0-42.277 18.651-42.277 42.277 0 23.552 19.090 42.277 42.277 42.277h555.666zM748.983 736.695c34.962 0 63.342 28.453 63.342 63.342s-28.379 63.415-63.342 63.415c-34.962 0-63.342-28.453-63.342-63.342s28.014-63.415 63.342-63.415zM748.983 17.774c34.962 0 63.342 28.453 63.342 63.342 0 34.962-28.453 63.342-63.342 63.342-34.962 0-63.342-28.453-63.342-63.342 0-34.962 28.014-63.342 63.342-63.342zM283.502 503.954c-34.962 0-63.342-28.453-63.342-63.342s28.453-63.342 63.342-63.342 63.342 28.453 63.342 63.342-28.014 63.342-63.342 63.342z" />
<glyph unicode="&#xe97c;" glyph-name="2MO-10" d="M634.149 55.442c0-67.365-54.784-122.149-122.149-122.149s-122.149 54.784-122.149 122.149c0 60.855 44.617 111.616 103.058 120.539v529.262c-58.441 8.923-103.058 59.685-103.058 120.539 0 67.365 54.784 122.149 122.149 122.149s122.149-54.784 122.149-122.149c0-60.855-44.617-111.616-103.497-120.539v-528.823c58.88-9.362 103.497-59.685 103.497-120.978z" />
<glyph unicode="&#xe97d;" glyph-name="5CE-06" d="M510.976 99.109c-146.139 0-292.206 0-438.345 0-52.37 0-72.631 20.261-72.631 73.509 0 180.297 0 360.521 0 540.818 0 46.446 21.431 68.681 67.877 68.681 296.229 0 592.018 0 888.174 0 46.519-0.073 67.95-22.309 67.95-68.754 0-180.297 0-360.521 0-540.818 0-53.175-19.822-73.435-72.631-73.435-146.944 0-293.815 0-440.393 0zM285.477 185.71c151.698 0 301.787 0 452.242 0 0 37.742 0 73.874 0 111.543-151.259 0-301.349 0-452.242 0 0-37.303 0-73.874 0-111.543zM226.304 583.168c0 37.742 0 74.24 0 111.543-38.107 0-74.679 0-111.177 0 0-38.107 0-75.045 0-111.543 37.742 0 74.24 0 111.177 0zM796.891 583.168c38.546 0 74.679 0 111.543 0 0 37.742 0 74.24 0 111.543-37.742 0-74.24 0-111.543 0 0-37.742 0-73.874 0-111.543zM285.477 583.534c38.107 0 74.24 0 110.811 0 0 37.742 0 74.679 0 111.543-37.742 0-73.874 0-110.811 0 0-37.303 0-73.801 0-111.543zM567.369 695.077c-38.546 0-74.679 0-110.811 0 0-38.107 0-74.679 0-111.543 37.742 0 73.874 0 110.811 0 0 37.742 0 73.874 0 111.543zM737.719 583.168c0 38.107 0 75.045 0 111.982-37.742 0-73.874 0-110.373 0 0-38.107 0-74.679 0-111.982 37.303 0 73.070 0 110.373 0zM312.101 495.397c-38.107 0-74.679 0-111.543 0 0-37.303 0-73.435 0-110.373 37.742 0 74.24 0 111.543 0 0 37.303 0 73.070 0 110.373zM371.273 496.201c0-38.107 0-74.24 0-111.543 37.303 0 73.435 0 110.373 0 0 37.742 0 74.24 0 111.543-37.376 0-73.070 0-110.373 0zM541.55 385.024c38.107 0 74.24 0 110.811 0 0 37.742 0 73.874 0 110.811-37.303 0-73.435 0-110.811 0 0-37.010 0-73.143 0-110.811zM711.899 495.762c0-37.742 0-73.874 0-110.811 37.742 0 74.24 0 111.177 0 0 37.742 0 73.874 0 110.811-36.937 0-73.070 0-111.177 0z" />
<glyph unicode="&#xe97e;" glyph-name="5CE-07" d="M512.439 947.931c-279.991 0-506.149-226.158-507.026-506.587-0.878-278.601 227.109-506.587 506.587-506.587 279.040 0 506.587 227.109 506.587 505.71 0.439 279.991-226.597 507.465-506.149 507.465zM487.131 472.869c0-4.462-0.439-7.095-5.778-6.656-65.317 0-130.194 0-195.511 0-1.317 0-2.633 0-4.901 0.439 2.633 54.199 11.995 106.642 29.33 158.208 57.783-18.213 116.005-28.453 176.421-30.647 0-2.194 0.439-4.462 0.439-6.217 0-38.181 0-76.873 0-115.127zM486.693 888.393c0-82.213 0-162.67 0-244.882-54.199 1.829-106.642 11.557-159.086 27.136 36.864 84.846 89.307 156.891 159.086 217.746zM412.014 886.638c-55.515-58.661-99.109-124.416-130.633-199.095-38.693 15.067-75.118 34.67-110.226 57.783 65.755 72.85 145.774 119.954 240.859 141.312zM140.069 707.072c39.131-26.185 80.018-47.543 123.977-65.755-18.651-56.905-29.33-115.054-32.037-174.665-58.661 0-116.882 0-175.982 0 4.901 87.991 32.914 168.009 84.041 240.421zM140.069 175.616c-51.127 72.411-79.067 151.991-84.407 240.421 58.661 0 116.882 0 175.982 0 2.194-59.538 12.434-117.76 31.086-175.543-43.593-17.774-84.041-38.693-122.661-64.878zM171.154 136.923c34.67 22.674 70.217 41.765 108.398 57.344 30.208-72.85 72.411-138.167 125.733-196.389-92.379 21.797-169.691 68.389-234.13 139.045zM486.693-10.606c-71.095 61.733-123.977 135.095-160.841 221.769 52.37 16.457 105.691 25.746 160.841 28.014 0-83.529 0-165.742 0-249.783zM487.131 296.009c0-2.194 0-4.462 0-7.534-60.855-2.194-119.954-12.434-178.176-31.086-16.896 52.443-25.819 104.887-28.014 158.647 3.145 0 5.339 0.439 7.095 0.439 64 0 127.561 0 191.561 0 6.217 0 7.973-1.317 7.973-7.534-0.439-37.815-0.439-75.118-0.439-112.933zM883.931 707.072c51.127-72.411 79.067-151.991 84.407-240.421-59.099 0-116.882 0-175.982 0-2.633 59.538-13.312 117.76-32.475 175.104 44.105 17.774 84.992 39.131 124.050 65.317zM852.846 745.765c-35.109-23.113-71.095-42.203-110.226-57.783-16.018 36.864-34.231 71.973-56.466 105.326s-46.592 64.439-74.167 93.769c95.086-21.797 175.104-68.901 240.859-141.312zM536.869 888.393c70.217-60.855 122.222-132.901 159.086-217.307-52.005-16.018-104.375-25.307-159.086-27.575 0 81.774 0 162.67 0 244.882zM536.869 590.629c0 0.878 0.439 1.755 0.439 3.584 59.977 2.194 118.638 12.434 176.421 30.647 17.335-51.566 26.697-104.009 29.33-158.208-2.194 0-4.462-0.439-6.217-0.439-64.439 0-128.878 0-193.317 0-4.023 0-6.656 0-6.656 5.339 0 39.57 0 79.579 0 119.077zM536.43 410.258c0 4.901 0.878 6.656 6.217 6.656 65.317 0 130.194 0 195.511 0 1.317 0 2.633 0 4.901-0.439-2.194-54.199-11.557-106.642-28.014-158.647-11.995 3.072-23.040 6.656-34.597 9.801-44.91 11.995-90.697 18.651-137.362 20.846-5.339 0.439-6.656 1.755-6.656 7.095 0.439 37.815 0.439 75.995 0 114.688zM536.869-11.045c0 83.968 0 166.181 0 249.71 54.638-1.755 107.959-11.557 160.841-28.014-35.986-86.162-89.307-159.451-160.841-221.696zM618.642-2.121c53.321 58.222 95.525 123.099 125.733 196.389 38.693-15.579 73.801-34.67 108.398-57.344-63.927-70.656-141.678-117.248-234.13-139.045zM883.931 175.616c-39.131 26.185-79.579 47.543-122.661 65.317 18.651 57.344 28.891 115.566 31.086 175.543 58.661 0 116.882 0 175.982 0-5.266-88.43-33.28-168.448-84.407-240.859z" />
<glyph unicode="&#xe97f;" glyph-name="5CE-10" d="M799.086 947.931h-579.145c-13.019 0-23.918-10.167-23.918-23.186v-967.607c0-13.093 10.898-23.918 23.918-23.918h579.145c13.019 0 23.186 10.898 23.186 23.918v967.607c0 13.019-10.167 23.186-23.186 23.186zM577.243-30.501c0-9.435-7.973-16.677-17.408-16.677h-100.718c-9.435 0-17.408 7.241-17.408 16.677v13.751c0 9.435 7.973 16.677 17.408 16.677h100.791c9.435 0 17.408-7.241 17.408-16.677v-13.751zM791.113 55.735c0-16.677-13.751-29.696-29.696-29.696h-503.808c-16.677 0-29.696 13.093-29.696 29.696v831.269c0 15.945 13.019 29.038 29.696 29.038h503.735c15.945 0 29.696-13.093 29.696-29.038v-831.269z" />
<glyph unicode="&#xe980;" glyph-name="5CE-01" d="M1021.367 390.071v100.645c0 4.608-3.73 9.582-8.338 9.582-19.163 1.243-41.618 3.365-65.317 4.608-28.672 2.048-53.248 22.455-61.586 49.957-7.095 23.698-16.677 47.397-28.672 69.047-12.873 24.576-9.582 56.613 9.582 78.19 15.36 17.92 29.55 34.523 42.862 49.957 2.487 3.73 2.487 9.582-1.243 12.873l-69.925 69.925c-3.365 3.73-9.582 4.974-12.873 1.243-15.36-12.873-32.037-27.429-49.957-42.423-21.211-19.163-53.248-22.455-78.19-9.582-22.455 11.995-44.983 21.138-68.681 28.672-28.672 8.265-47.397 33.28-49.883 61.513-1.243 23.771-2.121 44.983-4.608 65.317 0 4.608-4.608 8.338-9.582 8.338h-99.401c-4.608 0-9.582-3.73-9.582-8.338-1.243-19.090-3.291-41.545-4.608-65.317-2.487-28.233-22.455-53.248-49.883-61.513-23.698-7.095-47.47-16.677-68.681-28.745-24.942-12.873-56.978-9.582-78.19 9.582-17.92 15.36-34.523 29.55-49.957 42.423-3.291 2.487-9.509 2.487-12.873-1.243l-69.851-69.925c-3.365-3.291-4.608-9.509-1.243-12.873 11.63-14.117 27.429-32.037 42.423-49.957 19.163-21.211 22.455-53.248 9.582-78.19-11.703-22.455-21.285-45.349-28.306-69.047-8.338-28.306-33.28-47.397-61.586-49.883-23.698-1.317-44.91-2.56-65.317-4.608-4.608 0-8.338-4.974-8.338-9.582v-99.401c0-4.974 3.365-9.582 8.338-9.582 19.163-1.243 41.618-3.365 65.317-4.608 28.306-2.487 53.248-22.455 61.586-49.883 7.022-23.698 16.603-47.47 28.306-68.681 12.873-24.942 9.582-56.613-9.582-78.19-15.36-17.92-29.55-34.523-42.423-49.957-2.048-3.73-2.048-9.582 1.243-13.312l69.925-69.925c3.73-3.365 9.582-4.608 12.873-1.243 15.36 13.312 32.037 27.429 49.957 42.862 12.873 10.825 29.55 16.677 46.153 16.677 11.63 0 22.455-2.048 33.28-8.338 22.455-12.069 44.91-21.211 68.681-28.672 28.672-8.338 47.397-33.28 49.957-61.586 1.243-23.698 2.487-44.91 4.974-65.317 0-4.974 4.608-8.338 9.582-8.338h99.84c4.608 0 9.582 3.365 9.582 8.338 1.243 19.163 3.365 41.618 4.608 65.317 2.487 28.306 22.455 53.248 49.957 61.586 23.698 7.095 47.397 16.677 69.047 28.672 24.942 12.873 56.978 9.582 78.19-9.582 17.92-15.36 34.523-29.55 49.957-42.423 3.365-2.487 9.582-2.487 12.873 1.243l69.925 69.925c3.365 3.365 4.608 9.582 1.243 12.873-12.873 15.36-27.063 32.037-42.423 49.957-19.163 21.211-22.455 53.248-9.582 78.19 11.63 22.455 21.211 44.91 28.306 68.681 8.338 28.306 33.28 47.397 61.586 49.957 23.698 1.243 45.349 2.487 65.317 4.608 4.974 0 8.338 4.974 8.338 9.582l-2.706-0.073zM515.438 157.915c-156.014 0-282.478 126.464-282.478 282.478s126.464 282.478 282.478 282.478 282.478-126.464 282.478-282.478-126.464-282.478-282.478-282.478z" />
<glyph unicode="&#xe981;" glyph-name="5CE-08" d="M814.446 873.618v-582.437l-490.789 424.521h204.361l239.543 184.978c20.919 12.069 46.885-3.072 46.885-27.063zM166.546 617.838c-6.583-17.042-9.655-34.816-9.655-54.199v-289.061c0-83.968 68.096-152.064 152.064-152.064h219.429l239.909-184.978c20.48-11.995 46.811 3.072 46.811 26.697v92.453l-648.558 561.152zM1004.032 86.455l-908.288 785.993c-10.825 9.289-24.357 13.97-37.961 13.97-16.238 0-32.11-6.949-43.739-20.114-20.919-23.991-18.213-60.343 5.778-81.262l908.361-785.627c2.706-2.341 5.778-4.242 8.485-6.217 2.706-1.536 5.413-2.706 8.119-3.877 1.536-0.805 3.511-1.17 5.047-1.536 1.17-0.366 2.341-0.805 3.511-0.805 0.805-0.366 1.902-0.366 2.706-0.805 1.536-0.366 3.511-0.366 5.047-0.805 1.536 0 3.072-0.366 4.608-0.366 1.17 0 2.706 0 4.242 0 14.702 1.17 29.038 7.753 39.497 19.749 21.285 24.43 18.944 60.782-5.413 81.701z" />
<glyph unicode="&#xe982;" glyph-name="2MO-11" d="M507.392 947.931c-279.771 0-507.392-227.547-507.392-507.319s227.621-507.392 507.392-507.392 507.392 227.547 507.392 507.392c0 279.771-227.621 507.319-507.392 507.319zM781.678 577.755v-274.286c0-7.607-1.463-14.848-4.389-21.797l-159.086 159.086 159.086 159.086c2.926-7.022 4.389-14.555 4.389-22.089zM290.67 635.319h433.371c7.607 0 14.848-1.463 21.504-4.096l-238.153-238.226-238.226 238.226c6.656 2.633 13.97 4.096 21.504 4.096zM233.106 303.47v274.286c0 7.607 1.463 15.141 4.389 22.089l159.086-159.086-159.159-159.086c-2.853 6.949-4.315 14.19-4.315 21.797zM290.67 245.833c-7.607 0-14.848 1.463-21.504 4.389l158.793 158.793 63.707-63.415c8.485-8.411 23.259-8.411 31.451 0l63.707 63.415 158.793-158.793c-6.656-2.926-13.97-4.389-21.504-4.389h-433.445z" />
</font>
</defs>
</svg>
